M48
;Layer_Color=9474304
;FILE_FORMAT=4:4
METRIC,LZ
;TYPE=PLATED
T01F00S00C0.5000
T03F00S00C1.0000
T04F00S00C1.0200
T05F00S00C1.3000
;TYPE=NON_PLATED
T06F00S00C0.6500
%
T01
X0093218Y0052832
X0089408Y0059182
Y0072136
X0094615Y007874
X0106934Y0071882
Y0070358
X0108712Y0068834
X0113284Y0054864
X0115443Y0079629
X0112649Y0083947
X0108966Y0087503
X0106426Y0090665
X0104267Y0089016
X0104394Y0080264
X0096139Y0081153
X0093599Y0079883
X0089408Y0085217
X0093726Y0092075
X0089408Y0098044
X010033Y0100965
X01016Y0102997
X0116459Y0096393
X0121539Y0093218
X0123952
X012065Y0089662
X0129159Y0096393
T03
X0086396Y0050777
X0090896
Y0057277
X0086396
Y0063756
X0090896
Y0070256
X0086396
Y0076735
X0090896
Y0083235
X0086396
Y0089714
X0090896
Y0096214
X0086396
T04
X0122936Y0049276
Y0051816
Y0054356
Y0056896
Y0059436
T05
X0101712Y0052451
X0105212
X0108712
T06
X0119823Y0096901
X0125603
M30
