G04*
G04 #@! TF.GenerationSoftware,Altium Limited,Altium Designer,25.1.2 (22)*
G04*
G04 Layer_Physical_Order=1*
G04 Layer_Color=255*
%FSLAX44Y44*%
%MOMM*%
G71*
G04*
G04 #@! TF.SameCoordinates,A930DEB4-3CD8-4DA0-A88C-A09D9B1332F7*
G04*
G04*
G04 #@! TF.FilePolarity,Positive*
G04*
G01*
G75*
%ADD10R,1.3000X0.6000*%
%ADD11R,1.3000X0.3000*%
%ADD12C,0.3000*%
%ADD13C,0.3500*%
%ADD14C,0.6000*%
%ADD15C,1.9500*%
G04:AMPARAMS|DCode=16|XSize=1.95mm|YSize=1.95mm|CornerRadius=0.4875mm|HoleSize=0mm|Usage=FLASHONLY|Rotation=90.000|XOffset=0mm|YOffset=0mm|HoleType=Round|Shape=RoundedRectangle|*
%AMROUNDEDRECTD16*
21,1,1.9500,0.9750,0,0,90.0*
21,1,0.9750,1.9500,0,0,90.0*
1,1,0.9750,0.4875,0.4875*
1,1,0.9750,0.4875,-0.4875*
1,1,0.9750,-0.4875,-0.4875*
1,1,0.9750,-0.4875,0.4875*
%
%ADD16ROUNDEDRECTD16*%
%ADD17O,2.1000X1.0500*%
%ADD18O,1.6000X0.8000*%
%ADD19C,0.6500*%
%ADD20R,1.5000X1.5000*%
%ADD21C,1.5000*%
%ADD22C,1.5500*%
%ADD23R,1.5500X1.5500*%
%ADD24C,1.0000*%
D10*
X1137890Y624010D02*
D03*
Y672010D02*
D03*
Y616010D02*
D03*
Y680010D02*
D03*
Y1174390D02*
D03*
Y1222390D02*
D03*
Y1166390D02*
D03*
Y1230390D02*
D03*
X487180Y624010D02*
D03*
Y672010D02*
D03*
Y616010D02*
D03*
Y680010D02*
D03*
Y1174390D02*
D03*
Y1222390D02*
D03*
Y1166390D02*
D03*
Y1230390D02*
D03*
D11*
X1137890Y630510D02*
D03*
Y635510D02*
D03*
Y640510D02*
D03*
Y645510D02*
D03*
Y665510D02*
D03*
Y660510D02*
D03*
Y655510D02*
D03*
Y650510D02*
D03*
Y1180890D02*
D03*
Y1185890D02*
D03*
Y1190890D02*
D03*
Y1195890D02*
D03*
Y1215890D02*
D03*
Y1210890D02*
D03*
Y1205890D02*
D03*
Y1200890D02*
D03*
X487180Y630510D02*
D03*
Y635510D02*
D03*
Y640510D02*
D03*
Y645510D02*
D03*
Y665510D02*
D03*
Y660510D02*
D03*
Y655510D02*
D03*
Y650510D02*
D03*
Y1180890D02*
D03*
Y1185890D02*
D03*
Y1190890D02*
D03*
Y1195890D02*
D03*
Y1215890D02*
D03*
Y1210890D02*
D03*
Y1205890D02*
D03*
Y1200890D02*
D03*
D12*
X1163320Y660510D02*
X1137890D01*
X1155801Y630510D02*
X1137890D01*
X1155801D02*
X1161561Y636270D01*
X1137890Y645510D02*
X1118710D01*
X1137890Y655510D02*
X1108710D01*
X1118710Y645510D02*
X1108900Y655320D01*
X1147593Y640510D02*
X1137890D01*
X1113790D01*
X1149350Y642267D02*
Y648753D01*
X1147593Y640510D02*
X1149350Y642267D01*
X1147593Y650510D02*
X1137890D01*
X1149350Y648753D02*
X1147593Y650510D01*
X1163320Y1210890D02*
X1137890D01*
X1155801Y1180890D02*
X1137890D01*
X1155801D02*
X1161561Y1186650D01*
X1137890Y1195890D02*
X1118710D01*
X1137890Y1205890D02*
X1108710D01*
X1118710Y1195890D02*
X1108900Y1205700D01*
X1147593Y1190890D02*
X1137890D01*
X1113790D01*
X1149350Y1192647D02*
Y1199133D01*
X1147593Y1190890D02*
X1149350Y1192647D01*
X1147593Y1200890D02*
X1137890D01*
X1149350Y1199133D02*
X1147593Y1200890D01*
X512610Y660510D02*
X487180D01*
X505091Y630510D02*
X487180D01*
X505091D02*
X510851Y636270D01*
X487180Y645510D02*
X468000D01*
X487180Y655510D02*
X458000D01*
X468000Y645510D02*
X458190Y655320D01*
X496883Y640510D02*
X487180D01*
X463080D01*
X498640Y642267D02*
Y648753D01*
X496883Y640510D02*
X498640Y642267D01*
X496883Y650510D02*
X487180D01*
X498640Y648753D02*
X496883Y650510D01*
X512610Y1210890D02*
X487180D01*
X505091Y1180890D02*
X487180D01*
X505091D02*
X510851Y1186650D01*
X487180Y1195890D02*
X468000D01*
X487180Y1205890D02*
X458000D01*
X468000Y1195890D02*
X458190Y1205700D01*
X496883Y1190890D02*
X487180D01*
X463080D01*
X498640Y1192647D02*
Y1199133D01*
X496883Y1190890D02*
X498640Y1192647D01*
X496883Y1200890D02*
X487180D01*
X498640Y1199133D02*
X496883Y1200890D01*
D13*
X1085850Y574040D02*
X1075690Y584200D01*
Y623570D01*
X1085850Y424180D02*
Y574040D01*
X1271270Y547370D02*
X1256030D01*
X1271270D02*
X1299210Y575310D01*
X1075690Y623570D02*
X1092630Y640510D01*
X1065530Y436880D02*
Y637540D01*
X1083310Y655320D01*
X1142640Y681260D02*
Y681260D01*
X1141390Y680010D02*
X1142640Y681260D01*
X1141390Y680010D02*
X1137890D01*
X1131740Y712300D02*
X1131570Y712470D01*
X1163320Y636270D02*
X1161561D01*
X1325490Y464820D02*
X1292860D01*
X1325490D02*
X1368669Y508000D01*
X1204096Y469894D02*
X1188850Y485140D01*
X1204096Y464794D02*
Y469894D01*
X1205340Y463550D02*
X1204096Y464794D01*
X1113790Y640510D02*
X1092630D01*
X1311910Y356870D02*
X1296670D01*
X1108900Y655320D02*
X1083310D01*
X1407160Y508000D02*
X1368669D01*
X1391920Y436880D02*
Y490220D01*
X1311910Y356870D02*
X1391920Y436880D01*
X1376680Y435610D02*
Y490220D01*
X1308100Y367030D02*
X1376680Y435610D01*
X1085850Y1124420D02*
X1075690Y1134580D01*
Y1173950D01*
X1085850Y974560D02*
Y1124420D01*
X1271270Y1097750D02*
X1256030D01*
X1271270D02*
X1299210Y1125690D01*
X1075690Y1173950D02*
X1092630Y1190890D01*
X1065530Y987260D02*
Y1187920D01*
X1083310Y1205700D01*
X1142640Y1231640D02*
Y1231640D01*
X1141390Y1230390D02*
X1142640Y1231640D01*
X1141390Y1230390D02*
X1137890D01*
X1131740Y1262680D02*
X1131570Y1262850D01*
X1163320Y1186650D02*
X1161561D01*
X1325490Y1015200D02*
X1292860D01*
X1325490D02*
X1368669Y1058380D01*
X1204096Y1020274D02*
X1188850Y1035520D01*
X1204096Y1015174D02*
Y1020274D01*
X1205340Y1013930D02*
X1204096Y1015174D01*
X1113790Y1190890D02*
X1092630D01*
X1311910Y907250D02*
X1296670D01*
X1108900Y1205700D02*
X1083310D01*
X1407160Y1058380D02*
X1368669D01*
X1391920Y987260D02*
Y1040600D01*
X1311910Y907250D02*
X1391920Y987260D01*
X1376680Y985990D02*
Y1040600D01*
X1308100Y917410D02*
X1376680Y985990D01*
X435140Y574040D02*
X424980Y584200D01*
Y623570D01*
X435140Y424180D02*
Y574040D01*
X620560Y547370D02*
X605320D01*
X620560D02*
X648500Y575310D01*
X424980Y623570D02*
X441920Y640510D01*
X414820Y436880D02*
Y637540D01*
X432600Y655320D01*
X491930Y681260D02*
Y681260D01*
X490680Y680010D02*
X491930Y681260D01*
X490680Y680010D02*
X487180D01*
X481030Y712300D02*
X480860Y712470D01*
X512610Y636270D02*
X510851D01*
X674780Y464820D02*
X642150D01*
X674780D02*
X717960Y508000D01*
X553386Y469894D02*
X538140Y485140D01*
X553386Y464794D02*
Y469894D01*
X554630Y463550D02*
X553386Y464794D01*
X463080Y640510D02*
X441920D01*
X661200Y356870D02*
X645960D01*
X458190Y655320D02*
X432600D01*
X756450Y508000D02*
X717960D01*
X741210Y436880D02*
Y490220D01*
X661200Y356870D02*
X741210Y436880D01*
X725970Y435610D02*
Y490220D01*
X657390Y367030D02*
X725970Y435610D01*
X435140Y1124420D02*
X424980Y1134580D01*
Y1173950D01*
X435140Y974560D02*
Y1124420D01*
X620560Y1097750D02*
X605320D01*
X620560D02*
X648500Y1125690D01*
X424980Y1173950D02*
X441920Y1190890D01*
X414820Y987260D02*
Y1187920D01*
X432600Y1205700D01*
X491930Y1231640D02*
Y1231640D01*
X490680Y1230390D02*
X491930Y1231640D01*
X490680Y1230390D02*
X487180D01*
X481030Y1262680D02*
X480860Y1262850D01*
X512610Y1186650D02*
X510851D01*
X674780Y1015200D02*
X642150D01*
X674780D02*
X717960Y1058380D01*
X553386Y1020274D02*
X538140Y1035520D01*
X553386Y1015174D02*
Y1020274D01*
X554630Y1013930D02*
X553386Y1015174D01*
X463080Y1190890D02*
X441920D01*
X661200Y907250D02*
X645960D01*
X458190Y1205700D02*
X432600D01*
X756450Y1058380D02*
X717960D01*
X741210Y987260D02*
Y1040600D01*
X661200Y907250D02*
X741210Y987260D01*
X725970Y985990D02*
Y1040600D01*
X657390Y917410D02*
X725970Y985990D01*
D14*
X1200150Y358140D02*
X1174750D01*
X1200150D02*
X1224280Y382270D01*
X1535430Y314960D02*
X1546860Y326390D01*
Y553720D01*
X1090930Y379730D02*
X1168400Y457200D01*
X1108710Y298450D02*
X1090930Y316230D01*
Y379730D01*
X1168400Y457200D02*
Y615950D01*
X1150620Y607060D02*
X1143000Y614680D01*
X1150620Y592600D02*
Y607060D01*
X1150865Y689485D02*
Y704605D01*
X1142640Y681260D02*
X1150865Y689485D01*
Y704605D02*
X1143170Y712300D01*
X1131740D01*
X1172650Y624010D02*
X1160340D01*
X1137890D01*
X1168400Y615950D02*
X1160340Y624010D01*
X1172650D02*
X1186180Y637540D01*
Y657860D01*
X1172030Y672010D01*
X1198880Y645160D02*
X1186180Y657860D01*
X1143490Y585470D02*
X1150620Y592600D01*
X1143490Y585470D02*
X1131570D01*
X1545590Y298450D02*
X1567180Y320040D01*
Y353060D01*
X1545590Y298450D02*
X1108710D01*
X1535430Y314960D02*
X1503680D01*
X1374140D01*
X1198880Y627380D02*
Y645160D01*
Y501650D02*
Y627380D01*
X1224280Y476250D02*
X1198880Y501650D01*
X1224280Y382270D02*
Y476250D01*
X1283970Y382270D02*
Y447040D01*
X1273810Y314960D02*
X1283970Y325120D01*
Y382270D01*
X1273810Y314960D02*
X1243330D01*
X1374140D02*
X1273810D01*
X1283970Y447040D02*
X1220470Y510540D01*
X1172030Y672010D02*
X1137890D01*
X1243330Y314960D02*
X1115060D01*
X1200150Y908520D02*
X1174750D01*
X1200150D02*
X1224280Y932650D01*
X1535430Y865340D02*
X1546860Y876770D01*
Y1104100D01*
X1090930Y930110D02*
X1168400Y1007580D01*
X1108710Y848830D02*
X1090930Y866610D01*
Y930110D01*
X1168400Y1007580D02*
Y1166330D01*
X1150620Y1157440D02*
X1143000Y1165060D01*
X1150620Y1142980D02*
Y1157440D01*
X1150865Y1239865D02*
Y1254985D01*
X1142640Y1231640D02*
X1150865Y1239865D01*
Y1254985D02*
X1143170Y1262680D01*
X1131740D01*
X1172650Y1174390D02*
X1160340D01*
X1137890D01*
X1168400Y1166330D02*
X1160340Y1174390D01*
X1172650D02*
X1186180Y1187920D01*
Y1208240D01*
X1172030Y1222390D01*
X1198880Y1195540D02*
X1186180Y1208240D01*
X1143490Y1135850D02*
X1150620Y1142980D01*
X1143490Y1135850D02*
X1131570D01*
X1545590Y848830D02*
X1567180Y870420D01*
Y903440D01*
X1545590Y848830D02*
X1108710D01*
X1535430Y865340D02*
X1503680D01*
X1374140D01*
X1198880Y1177760D02*
Y1195540D01*
Y1052030D02*
Y1177760D01*
X1224280Y1026630D02*
X1198880Y1052030D01*
X1224280Y932650D02*
Y1026630D01*
X1283970Y932650D02*
Y997420D01*
X1273810Y865340D02*
X1283970Y875500D01*
Y932650D01*
X1273810Y865340D02*
X1243330D01*
X1374140D02*
X1273810D01*
X1283970Y997420D02*
X1220470Y1060920D01*
X1172030Y1222390D02*
X1137890D01*
X1243330Y865340D02*
X1115060D01*
X549440Y358140D02*
X524040D01*
X549440D02*
X573570Y382270D01*
X884720Y314960D02*
X896150Y326390D01*
Y553720D01*
X440220Y379730D02*
X517690Y457200D01*
X458000Y298450D02*
X440220Y316230D01*
Y379730D01*
X517690Y457200D02*
Y615950D01*
X499910Y607060D02*
X492290Y614680D01*
X499910Y592600D02*
Y607060D01*
X500155Y689485D02*
Y704605D01*
X491930Y681260D02*
X500155Y689485D01*
Y704605D02*
X492460Y712300D01*
X481030D01*
X521940Y624010D02*
X509630D01*
X487180D01*
X517690Y615950D02*
X509630Y624010D01*
X521940D02*
X535470Y637540D01*
Y657860D01*
X521320Y672010D01*
X548170Y645160D02*
X535470Y657860D01*
X492780Y585470D02*
X499910Y592600D01*
X492780Y585470D02*
X480860D01*
X894880Y298450D02*
X916470Y320040D01*
Y353060D01*
X894880Y298450D02*
X458000D01*
X884720Y314960D02*
X852970D01*
X723430D01*
X548170Y627380D02*
Y645160D01*
Y501650D02*
Y627380D01*
X573570Y476250D02*
X548170Y501650D01*
X573570Y382270D02*
Y476250D01*
X633260Y382270D02*
Y447040D01*
X623100Y314960D02*
X633260Y325120D01*
Y382270D01*
X623100Y314960D02*
X592620D01*
X723430D02*
X623100D01*
X633260Y447040D02*
X569760Y510540D01*
X521320Y672010D02*
X487180D01*
X592620Y314960D02*
X464350D01*
X549440Y908520D02*
X524040D01*
X549440D02*
X573570Y932650D01*
X884720Y865340D02*
X896150Y876770D01*
Y1104100D01*
X440220Y930110D02*
X517690Y1007580D01*
X458000Y848830D02*
X440220Y866610D01*
Y930110D01*
X517690Y1007580D02*
Y1166330D01*
X499910Y1157440D02*
X492290Y1165060D01*
X499910Y1142980D02*
Y1157440D01*
X500155Y1239865D02*
Y1254985D01*
X491930Y1231640D02*
X500155Y1239865D01*
Y1254985D02*
X492460Y1262680D01*
X481030D01*
X521940Y1174390D02*
X509630D01*
X487180D01*
X517690Y1166330D02*
X509630Y1174390D01*
X521940D02*
X535470Y1187920D01*
Y1208240D01*
X521320Y1222390D01*
X548170Y1195540D02*
X535470Y1208240D01*
X492780Y1135850D02*
X499910Y1142980D01*
X492780Y1135850D02*
X480860D01*
X894880Y848830D02*
X916470Y870420D01*
Y903440D01*
X894880Y848830D02*
X458000D01*
X884720Y865340D02*
X852970D01*
X723430D01*
X548170Y1177760D02*
Y1195540D01*
Y1052030D02*
Y1177760D01*
X573570Y1026630D02*
X548170Y1052030D01*
X573570Y932650D02*
Y1026630D01*
X633260Y932650D02*
Y997420D01*
X623100Y865340D02*
X633260Y875500D01*
Y932650D01*
X623100Y865340D02*
X592620D01*
X723430D02*
X623100D01*
X633260Y997420D02*
X569760Y1060920D01*
X521320Y1222390D02*
X487180D01*
X592620Y865340D02*
X464350D01*
D15*
X1570990Y473000D02*
D03*
Y508000D02*
D03*
Y1023380D02*
D03*
Y1058380D02*
D03*
X920280Y473000D02*
D03*
Y508000D02*
D03*
Y1023380D02*
D03*
Y1058380D02*
D03*
D16*
X1570990Y438000D02*
D03*
Y988380D02*
D03*
X920280Y438000D02*
D03*
Y988380D02*
D03*
D17*
X1131490Y604810D02*
D03*
Y691210D02*
D03*
Y1155190D02*
D03*
Y1241590D02*
D03*
X480780Y604810D02*
D03*
Y691210D02*
D03*
Y1155190D02*
D03*
Y1241590D02*
D03*
D18*
X1089690Y604810D02*
D03*
Y691210D02*
D03*
Y1155190D02*
D03*
Y1241590D02*
D03*
X438980Y604810D02*
D03*
Y691210D02*
D03*
Y1155190D02*
D03*
Y1241590D02*
D03*
D19*
X1126490Y619110D02*
D03*
Y676910D02*
D03*
Y1169490D02*
D03*
Y1227290D02*
D03*
X475780Y619110D02*
D03*
Y676910D02*
D03*
Y1169490D02*
D03*
Y1227290D02*
D03*
D20*
X1522730Y329840D02*
D03*
X1392940D02*
D03*
X1263150D02*
D03*
X1133360D02*
D03*
X1522730Y880220D02*
D03*
X1392940D02*
D03*
X1263150D02*
D03*
X1133360D02*
D03*
X872020Y329840D02*
D03*
X742230D02*
D03*
X612440D02*
D03*
X482650D02*
D03*
X872020Y880220D02*
D03*
X742230D02*
D03*
X612440D02*
D03*
X482650D02*
D03*
D21*
X1587730Y329840D02*
D03*
Y284840D02*
D03*
X1522730D02*
D03*
X1457940Y329840D02*
D03*
Y284840D02*
D03*
X1392940D02*
D03*
X1328150Y329840D02*
D03*
Y284840D02*
D03*
X1263150D02*
D03*
X1198360Y329840D02*
D03*
Y284840D02*
D03*
X1133360D02*
D03*
X1587730Y880220D02*
D03*
Y835220D02*
D03*
X1522730D02*
D03*
X1457940Y880220D02*
D03*
Y835220D02*
D03*
X1392940D02*
D03*
X1328150Y880220D02*
D03*
Y835220D02*
D03*
X1263150D02*
D03*
X1198360Y880220D02*
D03*
Y835220D02*
D03*
X1133360D02*
D03*
X937020Y329840D02*
D03*
Y284840D02*
D03*
X872020D02*
D03*
X807230Y329840D02*
D03*
Y284840D02*
D03*
X742230D02*
D03*
X677440Y329840D02*
D03*
Y284840D02*
D03*
X612440D02*
D03*
X547650Y329840D02*
D03*
Y284840D02*
D03*
X482650D02*
D03*
X937020Y880220D02*
D03*
Y835220D02*
D03*
X872020D02*
D03*
X807230Y880220D02*
D03*
Y835220D02*
D03*
X742230D02*
D03*
X677440Y880220D02*
D03*
Y835220D02*
D03*
X612440D02*
D03*
X547650Y880220D02*
D03*
Y835220D02*
D03*
X482650D02*
D03*
D22*
X1501140Y650240D02*
D03*
X1526540D02*
D03*
X1551940D02*
D03*
X1577340D02*
D03*
X1501140Y1200620D02*
D03*
X1526540D02*
D03*
X1551940D02*
D03*
X1577340D02*
D03*
X850430Y650240D02*
D03*
X875830D02*
D03*
X901230D02*
D03*
X926630D02*
D03*
X850430Y1200620D02*
D03*
X875830D02*
D03*
X901230D02*
D03*
X926630D02*
D03*
D23*
X1602740Y650240D02*
D03*
Y1200620D02*
D03*
X952030Y650240D02*
D03*
Y1200620D02*
D03*
D24*
X1085850Y424180D02*
D03*
X1256030Y547370D02*
D03*
X1174750Y358140D02*
D03*
X1546860Y553720D02*
D03*
X1065530Y436880D02*
D03*
X1131570Y712470D02*
D03*
X1163320Y636270D02*
D03*
X1131570Y585470D02*
D03*
X1299210Y575310D02*
D03*
X1292860Y464820D02*
D03*
X1567180Y353060D02*
D03*
X1188850Y485140D02*
D03*
X1205340Y463550D02*
D03*
X1296670Y356870D02*
D03*
X1220470Y510540D02*
D03*
X1198880Y627380D02*
D03*
X1163320Y660400D02*
D03*
X1115060Y314960D02*
D03*
X1243330D02*
D03*
X1503680D02*
D03*
X1374140D02*
D03*
X1407160Y508000D02*
D03*
X1391920Y490220D02*
D03*
X1376680D02*
D03*
X1308100Y367030D02*
D03*
X1283970Y382270D02*
D03*
X1085850Y974560D02*
D03*
X1256030Y1097750D02*
D03*
X1174750Y908520D02*
D03*
X1546860Y1104100D02*
D03*
X1065530Y987260D02*
D03*
X1131570Y1262850D02*
D03*
X1163320Y1186650D02*
D03*
X1131570Y1135850D02*
D03*
X1299210Y1125690D02*
D03*
X1292860Y1015200D02*
D03*
X1567180Y903440D02*
D03*
X1188850Y1035520D02*
D03*
X1205340Y1013930D02*
D03*
X1296670Y907250D02*
D03*
X1220470Y1060920D02*
D03*
X1198880Y1177760D02*
D03*
X1163320Y1210780D02*
D03*
X1115060Y865340D02*
D03*
X1243330D02*
D03*
X1503680D02*
D03*
X1374140D02*
D03*
X1407160Y1058380D02*
D03*
X1391920Y1040600D02*
D03*
X1376680D02*
D03*
X1308100Y917410D02*
D03*
X1283970Y932650D02*
D03*
X435140Y424180D02*
D03*
X605320Y547370D02*
D03*
X524040Y358140D02*
D03*
X896150Y553720D02*
D03*
X414820Y436880D02*
D03*
X480860Y712470D02*
D03*
X512610Y636270D02*
D03*
X480860Y585470D02*
D03*
X648500Y575310D02*
D03*
X642150Y464820D02*
D03*
X916470Y353060D02*
D03*
X538140Y485140D02*
D03*
X554630Y463550D02*
D03*
X645960Y356870D02*
D03*
X569760Y510540D02*
D03*
X548170Y627380D02*
D03*
X512610Y660400D02*
D03*
X464350Y314960D02*
D03*
X592620D02*
D03*
X852970D02*
D03*
X723430D02*
D03*
X756450Y508000D02*
D03*
X741210Y490220D02*
D03*
X725970D02*
D03*
X657390Y367030D02*
D03*
X633260Y382270D02*
D03*
X435140Y974560D02*
D03*
X605320Y1097750D02*
D03*
X524040Y908520D02*
D03*
X896150Y1104100D02*
D03*
X414820Y987260D02*
D03*
X480860Y1262850D02*
D03*
X512610Y1186650D02*
D03*
X480860Y1135850D02*
D03*
X648500Y1125690D02*
D03*
X642150Y1015200D02*
D03*
X916470Y903440D02*
D03*
X538140Y1035520D02*
D03*
X554630Y1013930D02*
D03*
X645960Y907250D02*
D03*
X569760Y1060920D02*
D03*
X548170Y1177760D02*
D03*
X512610Y1210780D02*
D03*
X464350Y865340D02*
D03*
X592620D02*
D03*
X852970D02*
D03*
X723430D02*
D03*
X756450Y1058380D02*
D03*
X741210Y1040600D02*
D03*
X725970D02*
D03*
X657390Y917410D02*
D03*
X633260Y932650D02*
D03*
M02*
