G04*
G04 #@! TF.GenerationSoftware,Altium Limited,Altium Designer,25.1.2 (22)*
G04*
G04 Layer_Color=2752767*
%FSLAX44Y44*%
%MOMM*%
G71*
G04*
G04 #@! TF.SameCoordinates,EBC4A9E2-5A13-41BD-A65D-5718B63373A7*
G04*
G04*
G04 #@! TF.FilePolarity,Positive*
G04*
G01*
G75*
%ADD44C,0.1270*%
%ADD45C,0.1693*%
D44*
X1047040Y519430D02*
X1049580D01*
X1052120Y521970D01*
X1054660Y519430D01*
X1057200D01*
Y521970D01*
X1054660Y524510D01*
X1057200Y527050D01*
Y529590D01*
X1054660D01*
X1052120Y527050D01*
X1049580Y529590D01*
X1047040D01*
Y527050D01*
X1049580Y524510D01*
X1047040Y521970D01*
Y519430D01*
X1012040D02*
X1014580D01*
X1017120Y521970D01*
X1019660Y519430D01*
X1022200D01*
Y521970D01*
X1019660Y524510D01*
X1022200Y527050D01*
Y529590D01*
X1019660D01*
X1017120Y527050D01*
X1014580Y529590D01*
X1012040D01*
Y527050D01*
X1014580Y524510D01*
X1012040Y521970D01*
Y519430D01*
X1082040D02*
X1084580D01*
X1087120Y521970D01*
X1089660Y519430D01*
X1092200D01*
Y521970D01*
X1089660Y524510D01*
X1092200Y527050D01*
Y529590D01*
X1089660D01*
X1087120Y527050D01*
X1084580Y529590D01*
X1082040D01*
Y527050D01*
X1084580Y524510D01*
X1082040Y521970D01*
Y519430D01*
X1183930Y958930D02*
X1178850Y969090D01*
X1189010D01*
X1183930Y958930D01*
Y1000730D02*
X1186470Y1003270D01*
X1189010D01*
X1186470Y1005810D01*
X1189010Y1008350D01*
X1186470D01*
X1183930Y1010890D01*
X1181390Y1008350D01*
X1178850D01*
X1181390Y1005810D01*
X1178850Y1003270D01*
X1181390D01*
X1183930Y1000730D01*
X1270330D02*
X1272870Y1003270D01*
X1275410D01*
X1272870Y1005810D01*
X1275410Y1008350D01*
X1272870D01*
X1270330Y1010890D01*
X1267790Y1008350D01*
X1265250D01*
X1267790Y1005810D01*
X1265250Y1003270D01*
X1267790D01*
X1270330Y1000730D01*
Y958930D02*
X1265250Y969090D01*
X1275410D01*
X1270330Y958930D01*
X903880Y567690D02*
Y577850D01*
X914040D01*
Y567690D01*
X903880D01*
Y502690D02*
Y512850D01*
X914040D01*
Y502690D01*
X903880D01*
X858880D02*
Y512850D01*
X869040D01*
Y502690D01*
X858880D01*
Y567690D02*
Y577850D01*
X869040D01*
Y567690D01*
X858880D01*
X903880Y697480D02*
Y707640D01*
X914040D01*
Y697480D01*
X903880D01*
Y632480D02*
Y642640D01*
X914040D01*
Y632480D01*
X903880D01*
X858880D02*
Y642640D01*
X869040D01*
Y632480D01*
X858880D01*
Y697480D02*
Y707640D01*
X869040D01*
Y697480D01*
X858880D01*
X903880Y827270D02*
Y837430D01*
X914040D01*
Y827270D01*
X903880D01*
Y762270D02*
Y772430D01*
X914040D01*
Y762270D01*
X903880D01*
X858880D02*
Y772430D01*
X869040D01*
Y762270D01*
X858880D01*
Y827270D02*
Y837430D01*
X869040D01*
Y827270D01*
X858880D01*
X903880Y957060D02*
Y967220D01*
X914040D01*
Y957060D01*
X903880D01*
Y892060D02*
Y902220D01*
X914040D01*
Y892060D01*
X903880D01*
X858880D02*
Y902220D01*
X869040D01*
Y892060D01*
X858880D01*
Y957060D02*
Y967220D01*
X869040D01*
Y957060D01*
X858880D01*
X1224280Y589280D02*
X1226820Y594360D01*
X1224280Y599440D01*
X1229360Y596900D01*
X1234440Y599440D01*
X1231900Y594360D01*
X1234440Y589280D01*
X1229360Y591820D01*
X1224280Y589280D01*
Y563880D02*
X1226820Y568960D01*
X1224280Y574040D01*
X1229360Y571500D01*
X1234440Y574040D01*
X1231900Y568960D01*
X1234440Y563880D01*
X1229360Y566420D01*
X1224280Y563880D01*
Y538480D02*
X1226820Y543560D01*
X1224280Y548640D01*
X1229360Y546100D01*
X1234440Y548640D01*
X1231900Y543560D01*
X1234440Y538480D01*
X1229360Y541020D01*
X1224280Y538480D01*
Y513080D02*
X1226820Y518160D01*
X1224280Y523240D01*
X1229360Y520700D01*
X1234440Y523240D01*
X1231900Y518160D01*
X1234440Y513080D01*
X1229360Y515620D01*
X1224280Y513080D01*
Y487680D02*
X1226820Y492760D01*
X1224280Y497840D01*
X1229360Y495300D01*
X1234440Y497840D01*
X1231900Y492760D01*
X1234440Y487680D01*
X1229360Y490220D01*
X1224280Y487680D01*
X1000760Y1007110D02*
Y1004570D01*
X1005840D01*
Y1007110D01*
X1008380D01*
Y1012190D01*
X1005840D01*
Y1014730D01*
X1000760D01*
Y1012190D01*
X998220D01*
Y1007110D01*
X1000760D01*
X1123950Y836930D02*
Y834390D01*
X1129030D01*
Y836930D01*
X1131570D01*
Y842010D01*
X1129030D01*
Y844550D01*
X1123950D01*
Y842010D01*
X1121410D01*
Y836930D01*
X1123950D01*
X934720Y918210D02*
Y915670D01*
X939800D01*
Y918210D01*
X942340D01*
Y923290D01*
X939800D01*
Y925830D01*
X934720D01*
Y923290D01*
X932180D01*
Y918210D01*
X934720D01*
X1130300Y546100D02*
Y543560D01*
X1135380D01*
Y546100D01*
X1137920D01*
Y551180D01*
X1135380D01*
Y553720D01*
X1130300D01*
Y551180D01*
X1127760D01*
Y546100D01*
X1130300D01*
X1013460Y1027430D02*
Y1024890D01*
X1018540D01*
Y1027430D01*
X1021080D01*
Y1032510D01*
X1018540D01*
Y1035050D01*
X1013460D01*
Y1032510D01*
X1010920D01*
Y1027430D01*
X1013460D01*
X1289050Y961390D02*
Y958850D01*
X1294130D01*
Y961390D01*
X1296670D01*
Y966470D01*
X1294130D01*
Y969010D01*
X1289050D01*
Y966470D01*
X1286510D01*
Y961390D01*
X1289050D01*
X1212850Y929640D02*
Y927100D01*
X1217930D01*
Y929640D01*
X1220470D01*
Y934720D01*
X1217930D01*
Y937260D01*
X1212850D01*
Y934720D01*
X1210310D01*
Y929640D01*
X1212850D01*
X1162050Y961390D02*
Y958850D01*
X1167130D01*
Y961390D01*
X1169670D01*
Y966470D01*
X1167130D01*
Y969010D01*
X1162050D01*
Y966470D01*
X1159510D01*
Y961390D01*
X1162050D01*
X1151890Y793750D02*
Y791210D01*
X1156970D01*
Y793750D01*
X1159510D01*
Y798830D01*
X1156970D01*
Y801370D01*
X1151890D01*
Y798830D01*
X1149350D01*
Y793750D01*
X1151890D01*
X1041400Y800100D02*
Y797560D01*
X1046480D01*
Y800100D01*
X1049020D01*
Y805180D01*
X1046480D01*
Y807720D01*
X1041400D01*
Y805180D01*
X1038860D01*
Y800100D01*
X1041400D01*
X929640Y525780D02*
Y523240D01*
X934720D01*
Y525780D01*
X937260D01*
Y530860D01*
X934720D01*
Y533400D01*
X929640D01*
Y530860D01*
X927100D01*
Y525780D01*
X929640D01*
X1061720Y904110D02*
Y901570D01*
X1066800D01*
Y904110D01*
X1069340D01*
Y909190D01*
X1066800D01*
Y911730D01*
X1061720D01*
Y909190D01*
X1059180D01*
Y904110D01*
X1061720D01*
X1040130Y887620D02*
Y885080D01*
X1045210D01*
Y887620D01*
X1047750D01*
Y892700D01*
X1045210D01*
Y895240D01*
X1040130D01*
Y892700D01*
X1037590D01*
Y887620D01*
X1040130D01*
X933450Y796290D02*
Y793750D01*
X938530D01*
Y796290D01*
X941070D01*
Y801370D01*
X938530D01*
Y803910D01*
X933450D01*
Y801370D01*
X930910D01*
Y796290D01*
X933450D01*
X1087120Y872490D02*
Y869950D01*
X1092200D01*
Y872490D01*
X1094740D01*
Y877570D01*
X1092200D01*
Y880110D01*
X1087120D01*
Y877570D01*
X1084580D01*
Y872490D01*
X1087120D01*
X1203960Y894080D02*
Y891540D01*
X1209040D01*
Y894080D01*
X1211580D01*
Y899160D01*
X1209040D01*
Y901700D01*
X1203960D01*
Y899160D01*
X1201420D01*
Y894080D01*
X1203960D01*
X1236980Y929640D02*
Y927100D01*
X1242060D01*
Y929640D01*
X1244600D01*
Y934720D01*
X1242060D01*
Y937260D01*
X1236980D01*
Y934720D01*
X1234440D01*
Y929640D01*
X1236980D01*
X891540Y977900D02*
Y975360D01*
X896620D01*
Y977900D01*
X899160D01*
Y982980D01*
X896620D01*
Y985520D01*
X891540D01*
Y982980D01*
X889000D01*
Y977900D01*
X891540D01*
Y849630D02*
Y847090D01*
X896620D01*
Y849630D01*
X899160D01*
Y854710D01*
X896620D01*
Y857250D01*
X891540D01*
Y854710D01*
X889000D01*
Y849630D01*
X891540D01*
Y589280D02*
Y586740D01*
X896620D01*
Y589280D01*
X899160D01*
Y594360D01*
X896620D01*
Y596900D01*
X891540D01*
Y594360D01*
X889000D01*
Y589280D01*
X891540D01*
Y718820D02*
Y716280D01*
X896620D01*
Y718820D01*
X899160D01*
Y723900D01*
X896620D01*
Y726440D01*
X891540D01*
Y723900D01*
X889000D01*
Y718820D01*
X891540D01*
X1084580Y685800D02*
Y683260D01*
X1089660D01*
Y685800D01*
X1092200D01*
Y690880D01*
X1089660D01*
Y693420D01*
X1084580D01*
Y690880D01*
X1082040D01*
Y685800D01*
X1084580D01*
X1066800Y701040D02*
Y698500D01*
X1071880D01*
Y701040D01*
X1074420D01*
Y706120D01*
X1071880D01*
Y708660D01*
X1066800D01*
Y706120D01*
X1064260D01*
Y701040D01*
X1066800D01*
Y716280D02*
Y713740D01*
X1071880D01*
Y716280D01*
X1074420D01*
Y721360D01*
X1071880D01*
Y723900D01*
X1066800D01*
Y721360D01*
X1064260D01*
Y716280D01*
X1066800D01*
X943610Y784860D02*
Y782320D01*
X948690D01*
Y784860D01*
X951230D01*
Y789940D01*
X948690D01*
Y792480D01*
X943610D01*
Y789940D01*
X941070D01*
Y784860D01*
X943610D01*
X958850Y808990D02*
Y806450D01*
X963930D01*
Y808990D01*
X966470D01*
Y814070D01*
X963930D01*
Y816610D01*
X958850D01*
Y814070D01*
X956310D01*
Y808990D01*
X958850D01*
D45*
X1203310Y969010D02*
G03*
X1203310Y969010I-5080J0D01*
G01*
X1261110D02*
G03*
X1261110Y969010I-5080J0D01*
G01*
M02*
