M48
;Layer_Color=9474304
;FILE_FORMAT=4:4
METRIC,LZ
;TYPE=PLATED
T01F00S00C0.5000
T03F00S00C1.0000
T04F00S00C1.0200
T05F00S00C1.3000
;TYPE=NON_PLATED
T06F00S00C0.6500
%
T01
X0046435Y0031496
X0052404Y0035814
X0059262Y0031496
X0064596Y0035687
X0065739Y0036703
X0063326Y0038227
X0072343Y0031496
X0085297
X0091647Y0035306
X0111506Y0031496
X0117475Y0035814
X0124333Y0031496
X0129667Y0035687
X013081Y0036703
X0128397Y0038227
X0137414Y0031496
X0150368
X0156718Y0035306
X0154686Y0055372
X0140716Y00508
X0139192Y0049022
X0137668
X0129286Y0046482
X0120534Y0046355
X0122047Y0051054
X0125603Y0054737
X0129921Y0057531
X0119888Y0062738
X0116332Y0063627
Y006604
X0113157Y0071247
Y0058547
X0118885Y0048514
X0108585Y0042418
X0106553Y0043688
X0089615Y0055372
X0075645Y00508
X0074121Y0049022
X0072597
X0064215Y0046482
X0055463Y0046355
X0053814Y0048514
X0056976Y0051054
X0060532Y0054737
X006485Y0057531
X0054817Y0062738
X0051261Y0063627
Y006604
X0048086Y0071247
Y0058547
X0043514Y0042418
X0041482Y0043688
X0046435Y0086534
X0052404Y0090852
X0059262Y0086534
X0064596Y0090725
X0065739Y0091741
X0063326Y0093265
X0064215Y010152
X0055463Y0101393
X0053814Y0103552
X0056976Y0106092
X0060532Y0109775
X006485Y0112569
X0054817Y0117776
X0051261Y0118665
X0048086Y0113585
X0043514Y0097456
X0041482Y0098726
X0072597Y010406
X0074121
X0075645Y0105838
X0072343Y0086534
X0085297
X0091647Y0090344
X0089615Y011041
X0113157Y0113585
X0116332Y0118665
X0118885Y0103552
X0117475Y0090852
X0111506Y0086534
X0108585Y0097456
X0106553Y0098726
X0120534Y0101393
X0122047Y0106092
X0125603Y0109775
X0129921Y0112569
X0129286Y010152
X0128397Y0093265
X0129667Y0090725
X013081Y0091741
X0124333Y0086534
X0137414
X0150368
X0156718Y0090344
X0154686Y011041
X0140716Y0105838
X0139192Y010406
X0137668
X0119888Y0117776
X0116332Y0121078
X0113157Y0126285
X0048086
X0051261Y0121078
T03
X0048265Y0028484
Y0032984
X0054765
Y0028484
X0061244
Y0032984
X0067744
Y0028484
X0074223
Y0032984
X0080723
Y0028484
X0087202
Y0032984
X0093702
Y0028484
X0113336
Y0032984
X0119836
Y0028484
X0126315
Y0032984
X0132815
Y0028484
X0139294
Y0032984
X0145794
Y0028484
X0152273
Y0032984
X0158773
Y0028484
X0074223Y0083522
Y0088022
X0067744
Y0083522
X0061244
Y0088022
X0054765
Y0083522
X0048265
Y0088022
X0080723
Y0083522
X0087202
Y0088022
X0093702
Y0083522
X0113336
Y0088022
X0119836
Y0083522
X0126315
Y0088022
X0132815
Y0083522
X0139294
Y0088022
X0145794
Y0083522
X0152273
Y0088022
X0158773
Y0083522
T04
X0160274Y0065024
X0157734
X0155194
X0152654
X0150114
X0095203
X0092663
X0090123
X0087583
X0085043
X0160274Y0120062
X0157734
X0155194
X0152654
X0150114
X0095203
X0092663
X0090123
X0087583
X0085043
T05
X0157099Y00438
Y00473
Y00508
X0092028
Y00473
Y00438
Y0098838
Y0102338
Y0105838
X0157099
Y0102338
Y0098838
T06
X0112649Y0061911
Y0067691
X0047578
Y0061911
Y0116949
X0112649
Y0122729
X0047578
M30
