M48
;Layer_Color=9474304
;FILE_FORMAT=4:4
METRIC,LZ
;TYPE=PLATED
T02F00S00C0.6000
;TYPE=NON_PLATED
%
G90
G05
T02
G00X0108669Y0060481
M15
G01X0109269
M16
G00X0112599Y0060481
M15
G01X0113699
M16
G00X0112599Y0069121
M15
G01X0113699
M16
G00X0108669Y0069121
M15
G01X0109269
M16
G00X0047528Y0069121
M15
G01X0048628
M16
G00X0043598Y0069121
M15
G01X0044198
M16
G00X0043598Y0060481
M15
G01X0044198
M16
G00X0047528Y0060481
M15
G01X0048628
M16
G00X0047528Y0115519
M15
G01X0048628
M16
G00X0043598Y0115519
M15
G01X0044198
M16
G00X0108669Y0115519
M15
G01X0109269
M16
G00X0112599Y0115519
M15
G01X0113699
M16
G00X0112599Y0124159
M15
G01X0113699
M16
G00X0108669Y0124159
M15
G01X0109269
M16
G00X0047528Y0124159
M15
G01X0048628
M16
G00X0043598Y0124159
M15
G01X0044198
M16
M17
M30
