G04*
G04 #@! TF.GenerationSoftware,Altium Limited,Altium Designer,25.1.2 (22)*
G04*
G04 Layer_Physical_Order=2*
G04 Layer_Color=16711680*
%FSLAX44Y44*%
%MOMM*%
G71*
G04*
G04 #@! TF.SameCoordinates,A930DEB4-3CD8-4DA0-A88C-A09D9B1332F7*
G04*
G04*
G04 #@! TF.FilePolarity,Positive*
G04*
G01*
G75*
%ADD12C,0.3000*%
%ADD13C,0.3500*%
%ADD14C,0.6000*%
%ADD15C,1.9500*%
G04:AMPARAMS|DCode=16|XSize=1.95mm|YSize=1.95mm|CornerRadius=0.4875mm|HoleSize=0mm|Usage=FLASHONLY|Rotation=90.000|XOffset=0mm|YOffset=0mm|HoleType=Round|Shape=RoundedRectangle|*
%AMROUNDEDRECTD16*
21,1,1.9500,0.9750,0,0,90.0*
21,1,0.9750,1.9500,0,0,90.0*
1,1,0.9750,0.4875,0.4875*
1,1,0.9750,0.4875,-0.4875*
1,1,0.9750,-0.4875,-0.4875*
1,1,0.9750,-0.4875,0.4875*
%
%ADD16ROUNDEDRECTD16*%
%ADD17O,2.1000X1.0500*%
%ADD18O,1.6000X0.8000*%
%ADD19C,0.6500*%
%ADD20R,1.5000X1.5000*%
%ADD21C,1.5000*%
%ADD22C,1.5500*%
%ADD23R,1.5500X1.5500*%
%ADD24C,1.0000*%
%ADD25R,1.6000X1.8000*%
%ADD26R,1.8000X1.6000*%
%ADD27R,1.5000X1.3000*%
%ADD28R,1.3000X1.5000*%
%ADD29R,2.0000X3.3000*%
%ADD30R,2.0000X1.0000*%
%ADD31R,0.8000X0.7000*%
G04:AMPARAMS|DCode=32|XSize=1.31mm|YSize=0.62mm|CornerRadius=0.0775mm|HoleSize=0mm|Usage=FLASHONLY|Rotation=360.000|XOffset=0mm|YOffset=0mm|HoleType=Round|Shape=RoundedRectangle|*
%AMROUNDEDRECTD32*
21,1,1.3100,0.4650,0,0,360.0*
21,1,1.1550,0.6200,0,0,360.0*
1,1,0.1550,0.5775,-0.2325*
1,1,0.1550,-0.5775,-0.2325*
1,1,0.1550,-0.5775,0.2325*
1,1,0.1550,0.5775,0.2325*
%
%ADD32ROUNDEDRECTD32*%
%ADD33R,1.9800X0.5300*%
%ADD34R,0.5080X1.4732*%
%ADD35R,1.4732X0.5080*%
G04:AMPARAMS|DCode=36|XSize=0.35mm|YSize=4.5mm|CornerRadius=0.0875mm|HoleSize=0mm|Usage=FLASHONLY|Rotation=360.000|XOffset=0mm|YOffset=0mm|HoleType=Round|Shape=RoundedRectangle|*
%AMROUNDEDRECTD36*
21,1,0.3500,4.3250,0,0,360.0*
21,1,0.1750,4.5000,0,0,360.0*
1,1,0.1750,0.0875,-2.1625*
1,1,0.1750,-0.0875,-2.1625*
1,1,0.1750,-0.0875,2.1625*
1,1,0.1750,0.0875,2.1625*
%
%ADD36ROUNDEDRECTD36*%
%ADD37R,1.0500X0.5500*%
%ADD38R,0.5500X1.0500*%
%ADD39C,1.0000*%
%ADD40C,0.8000*%
%ADD41C,0.5000*%
%ADD42C,0.2540*%
%ADD43C,0.5500*%
G36*
X1640840Y782790D02*
X1040130D01*
Y1283170D01*
X1640840D01*
Y782790D01*
D02*
G37*
G36*
X990130D02*
X389420D01*
Y1283170D01*
X990130D01*
Y782790D01*
D02*
G37*
G36*
X1640840Y232410D02*
X1040130D01*
Y732790D01*
X1640840D01*
Y232410D01*
D02*
G37*
G36*
X990130D02*
X389420D01*
Y732790D01*
X990130D01*
Y232410D01*
D02*
G37*
%LPC*%
G36*
X1134570Y1270267D02*
Y1265850D01*
X1138987D01*
X1138558Y1266885D01*
X1137276Y1268556D01*
X1135604Y1269838D01*
X1134570Y1270267D01*
D02*
G37*
G36*
X1128570D02*
X1127535Y1269838D01*
X1125864Y1268556D01*
X1124582Y1266885D01*
X1124154Y1265850D01*
X1128570D01*
Y1270267D01*
D02*
G37*
G36*
X1138987Y1259850D02*
X1134570D01*
Y1255434D01*
X1135604Y1255862D01*
X1137276Y1257144D01*
X1138558Y1258816D01*
X1138987Y1259850D01*
D02*
G37*
G36*
X1128570D02*
X1124154D01*
X1124582Y1258816D01*
X1125864Y1257144D01*
X1127535Y1255862D01*
X1128570Y1255434D01*
Y1259850D01*
D02*
G37*
G36*
X1173820Y1260260D02*
X1166320D01*
Y1253760D01*
X1173820D01*
Y1260260D01*
D02*
G37*
G36*
X1160320D02*
X1152820D01*
Y1253760D01*
X1160320D01*
Y1260260D01*
D02*
G37*
G36*
X1450805Y1252866D02*
X1449055D01*
X1447543Y1252565D01*
X1446430Y1251822D01*
X1445317Y1252565D01*
X1443805Y1252866D01*
X1442055D01*
X1440543Y1252565D01*
X1439430Y1251822D01*
X1438317Y1252565D01*
X1436805Y1252866D01*
X1435055D01*
X1433543Y1252565D01*
X1432430Y1251822D01*
X1431317Y1252565D01*
X1429805Y1252866D01*
X1428055D01*
X1426543Y1252565D01*
X1425430Y1251822D01*
X1424317Y1252565D01*
X1422805Y1252866D01*
X1421055D01*
X1419543Y1252565D01*
X1418430Y1251822D01*
X1417317Y1252565D01*
X1415805Y1252866D01*
X1414055D01*
X1412543Y1252565D01*
X1411430Y1251822D01*
X1410317Y1252565D01*
X1408805Y1252866D01*
X1407055D01*
X1405543Y1252565D01*
X1404430Y1251822D01*
X1403317Y1252565D01*
X1401805Y1252866D01*
X1400055D01*
X1398543Y1252565D01*
X1397430Y1251822D01*
X1396317Y1252565D01*
X1394805Y1252866D01*
X1393055D01*
X1391543Y1252565D01*
X1390430Y1251822D01*
X1389317Y1252565D01*
X1387805Y1252866D01*
X1386055D01*
X1384543Y1252565D01*
X1383430Y1251822D01*
X1382317Y1252565D01*
X1380805Y1252866D01*
X1379055D01*
X1377543Y1252565D01*
X1376430Y1251822D01*
X1375317Y1252565D01*
X1373805Y1252866D01*
X1372055D01*
X1370543Y1252565D01*
X1369430Y1251822D01*
X1368317Y1252565D01*
X1366805Y1252866D01*
X1365055D01*
X1363543Y1252565D01*
X1362430Y1251822D01*
X1361317Y1252565D01*
X1359805Y1252866D01*
X1358055D01*
X1356543Y1252565D01*
X1355430Y1251822D01*
X1354317Y1252565D01*
X1352805Y1252866D01*
X1351055D01*
X1349543Y1252565D01*
X1348430Y1251822D01*
X1347317Y1252565D01*
X1345805Y1252866D01*
X1344055D01*
X1342543Y1252565D01*
X1341430Y1251822D01*
X1340317Y1252565D01*
X1338805Y1252866D01*
X1337055D01*
X1335543Y1252565D01*
X1334430Y1251822D01*
X1333317Y1252565D01*
X1331805Y1252866D01*
X1330055D01*
X1328543Y1252565D01*
X1327430Y1251822D01*
X1326317Y1252565D01*
X1324805Y1252866D01*
X1323055D01*
X1321543Y1252565D01*
X1320430Y1251822D01*
X1319317Y1252565D01*
X1317805Y1252866D01*
X1316055D01*
X1314543Y1252565D01*
X1313430Y1251822D01*
X1312317Y1252565D01*
X1310805Y1252866D01*
X1309055D01*
X1307543Y1252565D01*
X1306430Y1251822D01*
X1305317Y1252565D01*
X1303805Y1252866D01*
X1302055D01*
X1300543Y1252565D01*
X1299430Y1251822D01*
X1298317Y1252565D01*
X1296805Y1252866D01*
X1295055D01*
X1293543Y1252565D01*
X1292430Y1251822D01*
X1291317Y1252565D01*
X1289805Y1252866D01*
X1288055D01*
X1286543Y1252565D01*
X1285430Y1251822D01*
X1284317Y1252565D01*
X1282805Y1252866D01*
X1281055D01*
X1279543Y1252565D01*
X1278430Y1251822D01*
X1277317Y1252565D01*
X1275805Y1252866D01*
X1274055D01*
X1272543Y1252565D01*
X1271430Y1251822D01*
X1270317Y1252565D01*
X1268805Y1252866D01*
X1267055D01*
X1265543Y1252565D01*
X1264430Y1251822D01*
X1263317Y1252565D01*
X1261805Y1252866D01*
X1260055D01*
X1258543Y1252565D01*
X1257430Y1251822D01*
X1256317Y1252565D01*
X1254805Y1252866D01*
X1253055D01*
X1251543Y1252565D01*
X1250430Y1251822D01*
X1249317Y1252565D01*
X1247805Y1252866D01*
X1246055D01*
X1244543Y1252565D01*
X1243261Y1251709D01*
X1242405Y1250427D01*
X1242104Y1248915D01*
Y1205665D01*
X1242405Y1204153D01*
X1243261Y1202871D01*
X1242981Y1199500D01*
X1242445Y1198965D01*
X1241396Y1197393D01*
X1241027Y1195540D01*
Y1132040D01*
X1241396Y1130187D01*
X1242445Y1128615D01*
X1260835Y1110226D01*
X1262407Y1109176D01*
X1264260Y1108807D01*
X1264580Y1108487D01*
X1264580Y1104677D01*
X1263000Y1103692D01*
X1262246Y1103518D01*
X1261736Y1103456D01*
X1260064Y1104738D01*
X1259030Y1105167D01*
Y1097750D01*
X1256030D01*
Y1094750D01*
X1248614D01*
X1248857Y1094163D01*
X1248235Y1092586D01*
X1247219Y1091163D01*
X1233346D01*
X1230970Y1092670D01*
X1230970Y1095670D01*
Y1099170D01*
X1209970D01*
Y1095670D01*
X1209970Y1092670D01*
X1207836Y1090579D01*
X1204760D01*
Y1102010D01*
X1178760D01*
Y1090579D01*
X1118870D01*
X1118346Y1090510D01*
X1114260D01*
Y1089056D01*
X1113164Y1088216D01*
X1080981Y1056032D01*
X1079699Y1054361D01*
X1078893Y1052415D01*
X1078618Y1050327D01*
Y1044980D01*
X1074820D01*
Y1039098D01*
X1071880D01*
X1069539Y1038632D01*
X1067554Y1037306D01*
X1048504Y1018256D01*
X1047178Y1016271D01*
X1046712Y1013930D01*
Y975830D01*
X1047178Y973489D01*
X1048504Y971504D01*
X1063134Y956874D01*
X1065119Y955548D01*
X1067460Y955083D01*
X1089090D01*
Y945810D01*
X1113090D01*
Y946705D01*
X1116036Y946835D01*
X1116329Y945362D01*
X1117163Y944113D01*
Y941507D01*
X1116329Y940258D01*
X1116036Y938785D01*
X1113090Y938915D01*
Y939810D01*
X1104090D01*
Y928810D01*
Y917810D01*
X1113090D01*
Y921305D01*
X1116036Y921435D01*
X1116329Y919962D01*
X1117163Y918714D01*
X1118412Y917879D01*
X1119885Y917586D01*
X1122660D01*
Y923760D01*
X1128660D01*
Y917586D01*
X1131435D01*
X1132908Y917879D01*
X1134157Y918714D01*
X1170615D01*
X1171211Y915714D01*
X1170715Y915508D01*
X1169044Y914226D01*
X1167762Y912555D01*
X1166956Y910609D01*
X1166681Y908520D01*
X1166956Y906432D01*
X1167762Y904486D01*
X1169044Y902814D01*
X1170715Y901532D01*
X1172662Y900726D01*
X1174750Y900451D01*
X1176838Y900726D01*
X1178784Y901532D01*
X1180456Y902814D01*
X1180727Y903168D01*
X1186555D01*
X1188896Y903634D01*
X1190881Y904960D01*
X1193571Y907650D01*
X1213420D01*
Y929650D01*
X1201954D01*
X1200810Y929878D01*
X1191739D01*
X1190051Y932567D01*
X1190041Y932751D01*
X1190172Y933573D01*
X1190284Y934135D01*
Y934273D01*
X1190504Y935650D01*
X1198420D01*
Y946650D01*
Y957650D01*
X1192968D01*
X1190284Y959535D01*
Y964185D01*
X1189991Y965658D01*
X1189157Y966907D01*
Y969513D01*
X1189991Y970762D01*
X1190284Y972235D01*
Y976885D01*
X1189991Y978358D01*
X1189157Y979607D01*
Y982214D01*
X1189991Y983462D01*
X1190284Y984935D01*
Y989585D01*
X1189991Y991058D01*
X1189157Y992307D01*
Y994913D01*
X1189991Y996162D01*
X1190284Y997635D01*
Y1002285D01*
X1189991Y1003758D01*
X1189157Y1005007D01*
Y1007614D01*
X1189991Y1008862D01*
X1190284Y1010335D01*
Y1014985D01*
X1189991Y1016458D01*
X1189283Y1017517D01*
X1189503Y1018523D01*
X1190350Y1020517D01*
X1196529D01*
X1197545Y1019094D01*
X1198167Y1017517D01*
X1197546Y1016019D01*
X1197271Y1013930D01*
X1197546Y1011842D01*
X1198352Y1009896D01*
X1199634Y1008224D01*
X1201305Y1006942D01*
X1203252Y1006136D01*
X1205340Y1005861D01*
X1207428Y1006136D01*
X1209374Y1006942D01*
X1211046Y1008224D01*
X1211861Y1009287D01*
X1215590D01*
X1217443Y1009656D01*
X1219015Y1010706D01*
X1230096Y1021787D01*
X1242460D01*
Y1015660D01*
X1264460D01*
Y1021787D01*
X1270460D01*
Y1000660D01*
X1284041D01*
X1297940Y986761D01*
Y977943D01*
X1293786D01*
X1288636Y983093D01*
X1288352Y984521D01*
X1287026Y986506D01*
X1285041Y987832D01*
X1282700Y988298D01*
X1277220D01*
Y992910D01*
X1255220D01*
Y968910D01*
X1254697Y968543D01*
X1252220Y967280D01*
X1252220D01*
X1249743Y968543D01*
X1249220Y968910D01*
X1249220Y970280D01*
Y977910D01*
X1227220D01*
Y968910D01*
X1230895D01*
X1233220Y967280D01*
X1233220Y965910D01*
Y956669D01*
X1225935Y949385D01*
X1224886Y947813D01*
X1224517Y945960D01*
Y914870D01*
X1224886Y913017D01*
X1225935Y911445D01*
X1233555Y903826D01*
X1233799Y903663D01*
X1232888Y900663D01*
X1206340D01*
X1206340Y900663D01*
X1204487Y900294D01*
X1202915Y899245D01*
X1194936Y891265D01*
X1193921Y889746D01*
X1193065Y889392D01*
X1190871Y887709D01*
X1189188Y885515D01*
X1189001Y885063D01*
X1143860D01*
Y890720D01*
X1122860D01*
Y885063D01*
X1106510D01*
Y889420D01*
X1085510D01*
Y873420D01*
X1085510Y870420D01*
X1085510Y867420D01*
Y851420D01*
X1106510D01*
Y858413D01*
X1108803Y859398D01*
X1109510Y859515D01*
X1111025Y858352D01*
X1112972Y857546D01*
X1115060Y857271D01*
X1117148Y857546D01*
X1119094Y858352D01*
X1120766Y859634D01*
X1122048Y861306D01*
X1122854Y863252D01*
X1123129Y865340D01*
X1122947Y866720D01*
X1124118Y868689D01*
X1125152Y869720D01*
X1143860D01*
Y875377D01*
X1189001D01*
X1189188Y874925D01*
X1190871Y872731D01*
X1193065Y871048D01*
X1195619Y869990D01*
X1198360Y869630D01*
X1201101Y869990D01*
X1203655Y871048D01*
X1205849Y872731D01*
X1207532Y874925D01*
X1208240Y876635D01*
X1211240Y876038D01*
X1211240Y870420D01*
X1211240Y867420D01*
Y851420D01*
X1232240D01*
Y860497D01*
X1236962D01*
X1237624Y859634D01*
X1239296Y858352D01*
X1241242Y857546D01*
X1243330Y857271D01*
X1245418Y857546D01*
X1247365Y858352D01*
X1249036Y859634D01*
X1250318Y861306D01*
X1251124Y863252D01*
X1251399Y865340D01*
X1251135Y867348D01*
X1251385Y867666D01*
X1251468Y867772D01*
X1253422Y869720D01*
X1255011Y869720D01*
X1273650D01*
Y875377D01*
X1318791D01*
X1318978Y874925D01*
X1320661Y872731D01*
X1322855Y871048D01*
X1325409Y869990D01*
X1328150Y869630D01*
X1330891Y869990D01*
X1333445Y871048D01*
X1335639Y872731D01*
X1337322Y874925D01*
X1338380Y877479D01*
X1338741Y880220D01*
X1338380Y882961D01*
X1337322Y885515D01*
X1335639Y887709D01*
X1335591Y888432D01*
X1354395Y907236D01*
X1357167Y906088D01*
Y902206D01*
X1350395Y895435D01*
X1349346Y893864D01*
X1348977Y892010D01*
Y889420D01*
X1342050D01*
Y873420D01*
X1342050Y870420D01*
X1342050Y867420D01*
Y851420D01*
X1363050D01*
Y860497D01*
X1367772D01*
X1368434Y859634D01*
X1370105Y858352D01*
X1372052Y857546D01*
X1374140Y857271D01*
X1376228Y857546D01*
X1378174Y858352D01*
X1379846Y859634D01*
X1381128Y861306D01*
X1381934Y863252D01*
X1382209Y865340D01*
X1382003Y866901D01*
X1383065Y868557D01*
X1384232Y869720D01*
X1403440D01*
Y875377D01*
X1448581D01*
X1448768Y874925D01*
X1450451Y872731D01*
X1452645Y871048D01*
X1455199Y869990D01*
X1457940Y869630D01*
X1460681Y869990D01*
X1463235Y871048D01*
X1465429Y872731D01*
X1467112Y874925D01*
X1468170Y877479D01*
X1468531Y880220D01*
X1468170Y882961D01*
X1467112Y885515D01*
X1465429Y887709D01*
X1463235Y889392D01*
X1460681Y890450D01*
X1457940Y890811D01*
X1455199Y890450D01*
X1452645Y889392D01*
X1450451Y887709D01*
X1448768Y885515D01*
X1448581Y885063D01*
X1403440D01*
Y890720D01*
X1382440D01*
Y884763D01*
X1363050D01*
Y889420D01*
X1362322D01*
X1361079Y892420D01*
X1365435Y896776D01*
X1365435Y896776D01*
X1366484Y898347D01*
X1366853Y900200D01*
Y916468D01*
X1369625Y917616D01*
X1379837Y907404D01*
X1381408Y906354D01*
X1383262Y905985D01*
X1468495D01*
X1477735Y896746D01*
Y889420D01*
X1471590D01*
Y873420D01*
X1471590Y870420D01*
X1471590Y867420D01*
Y851420D01*
X1492590D01*
Y860497D01*
X1497312D01*
X1497974Y859634D01*
X1499646Y858352D01*
X1501592Y857546D01*
X1503680Y857271D01*
X1505768Y857546D01*
X1507715Y858352D01*
X1509386Y859634D01*
X1510668Y861306D01*
X1511474Y863252D01*
X1511749Y865340D01*
X1511529Y867010D01*
X1512495Y868447D01*
X1513772Y869720D01*
X1533230D01*
Y875377D01*
X1578371D01*
X1578558Y874925D01*
X1580241Y872731D01*
X1582435Y871048D01*
X1584989Y869990D01*
X1587730Y869630D01*
X1590471Y869990D01*
X1593025Y871048D01*
X1595219Y872731D01*
X1596902Y874925D01*
X1597960Y877479D01*
X1598321Y880220D01*
X1597960Y882961D01*
X1596902Y885515D01*
X1595219Y887709D01*
X1593025Y889392D01*
X1590471Y890450D01*
X1587730Y890811D01*
X1584989Y890450D01*
X1582435Y889392D01*
X1580241Y887709D01*
X1578558Y885515D01*
X1578371Y885063D01*
X1533230D01*
Y890720D01*
X1512230D01*
Y885063D01*
X1492590D01*
Y889420D01*
X1487421D01*
Y898752D01*
X1487053Y900605D01*
X1486003Y902176D01*
X1473926Y914253D01*
X1472355Y915303D01*
X1470502Y915672D01*
X1385268D01*
X1378681Y922259D01*
X1379829Y925030D01*
X1402080D01*
Y931109D01*
X1443482D01*
X1445335Y931478D01*
X1446907Y932527D01*
X1476625Y962245D01*
X1477674Y963817D01*
X1478043Y965670D01*
Y994310D01*
X1484252D01*
Y987830D01*
X1483760D01*
Y963830D01*
X1484863D01*
Y961860D01*
X1485328Y959519D01*
X1486654Y957534D01*
X1545074Y899114D01*
X1547059Y897788D01*
X1549400Y897323D01*
X1562011D01*
X1563145Y896452D01*
X1565092Y895646D01*
X1567180Y895371D01*
X1569268Y895646D01*
X1571214Y896452D01*
X1572886Y897735D01*
X1574168Y899406D01*
X1574974Y901352D01*
X1575249Y903440D01*
X1574974Y905528D01*
X1574168Y907475D01*
X1572886Y909146D01*
X1571214Y910428D01*
X1569268Y911234D01*
X1567180Y911509D01*
X1565092Y911234D01*
X1563145Y910428D01*
X1562011Y909558D01*
X1551934D01*
X1500433Y961059D01*
X1501581Y963830D01*
X1505760D01*
Y987830D01*
X1496487D01*
Y994310D01*
X1503130D01*
Y1005610D01*
X1505045Y1007817D01*
X1510960D01*
Y1002550D01*
X1531960D01*
Y1003981D01*
X1563732D01*
X1565820Y1004256D01*
X1567767Y1005062D01*
X1569438Y1006344D01*
X1574011Y1010918D01*
X1574318Y1010958D01*
X1577420Y1012243D01*
X1580083Y1014287D01*
X1582127Y1016950D01*
X1583412Y1020052D01*
X1583850Y1023380D01*
X1583412Y1026709D01*
X1582127Y1029810D01*
X1580083Y1032474D01*
X1577420Y1034517D01*
X1574318Y1035802D01*
X1570990Y1036240D01*
X1567662Y1035802D01*
X1564560Y1034517D01*
X1561897Y1032474D01*
X1559853Y1029810D01*
X1558568Y1026709D01*
X1558130Y1023380D01*
X1558262Y1022375D01*
X1556284Y1020119D01*
X1534367D01*
X1531960Y1021550D01*
Y1029139D01*
X1552572Y1049751D01*
X1561540D01*
X1561897Y1049287D01*
X1564560Y1047243D01*
X1567662Y1045958D01*
X1570990Y1045520D01*
X1574318Y1045958D01*
X1577420Y1047243D01*
X1580083Y1049287D01*
X1582127Y1051950D01*
X1583412Y1055052D01*
X1583850Y1058380D01*
X1583412Y1061709D01*
X1582127Y1064810D01*
X1580083Y1067474D01*
X1577420Y1069517D01*
X1574318Y1070802D01*
X1570990Y1071240D01*
X1567662Y1070802D01*
X1564560Y1069517D01*
X1561897Y1067474D01*
X1560681Y1065889D01*
X1549230D01*
X1547142Y1065614D01*
X1545195Y1064808D01*
X1543524Y1063526D01*
X1520549Y1040550D01*
X1510960D01*
Y1035893D01*
X1509370D01*
X1507517Y1035525D01*
X1506130Y1034598D01*
X1505381Y1034761D01*
X1504790Y1035060D01*
X1490230D01*
Y1038060D01*
X1487230D01*
Y1043710D01*
X1478043D01*
Y1058914D01*
X1580764Y1161636D01*
X1580765Y1161636D01*
X1581814Y1163207D01*
X1582183Y1165060D01*
X1582183Y1165060D01*
Y1190991D01*
X1582761Y1191230D01*
X1585007Y1192953D01*
X1586730Y1195199D01*
X1587813Y1197814D01*
X1588183Y1200620D01*
X1587813Y1203426D01*
X1586730Y1206041D01*
X1585007Y1208287D01*
X1582761Y1210010D01*
X1580146Y1211093D01*
X1577340Y1211463D01*
X1574534Y1211093D01*
X1571919Y1210010D01*
X1569673Y1208287D01*
X1567950Y1206041D01*
X1566867Y1203426D01*
X1566497Y1200620D01*
X1566867Y1197814D01*
X1567950Y1195199D01*
X1569673Y1192953D01*
X1571919Y1191230D01*
X1572497Y1190991D01*
Y1167066D01*
X1534155Y1128724D01*
X1531383Y1129872D01*
Y1190991D01*
X1531961Y1191230D01*
X1534207Y1192953D01*
X1535930Y1195199D01*
X1537013Y1197814D01*
X1537383Y1200620D01*
X1537013Y1203426D01*
X1535930Y1206041D01*
X1534207Y1208287D01*
X1531961Y1210010D01*
X1529346Y1211093D01*
X1526540Y1211463D01*
X1523734Y1211093D01*
X1521119Y1210010D01*
X1518873Y1208287D01*
X1517150Y1206041D01*
X1516067Y1203426D01*
X1515697Y1200620D01*
X1516067Y1197814D01*
X1517150Y1195199D01*
X1518873Y1192953D01*
X1521119Y1191230D01*
X1521697Y1190991D01*
Y1127696D01*
X1462155Y1068155D01*
X1461106Y1066583D01*
X1460737Y1064730D01*
Y1010872D01*
X1457965Y1009724D01*
X1453830Y1013859D01*
Y1018310D01*
X1453830D01*
Y1019710D01*
X1453830D01*
Y1031010D01*
X1453830Y1031010D01*
Y1032410D01*
X1453830D01*
X1453830Y1034010D01*
Y1043710D01*
X1428030D01*
Y1039259D01*
X1416435Y1027665D01*
X1415386Y1026094D01*
X1415017Y1024240D01*
Y1014013D01*
X1404852Y1003848D01*
X1402080Y1004996D01*
Y1026630D01*
X1334853D01*
Y1028850D01*
X1334484Y1030704D01*
X1333434Y1032275D01*
X1326765Y1038945D01*
X1325193Y1039995D01*
X1323340Y1040363D01*
X1323340Y1040363D01*
X1216660D01*
X1214807Y1039995D01*
X1213235Y1038945D01*
X1213235Y1038945D01*
X1204494Y1030203D01*
X1198475D01*
X1196549Y1033203D01*
X1196644Y1033432D01*
X1196919Y1035520D01*
X1196644Y1037608D01*
X1195838Y1039555D01*
X1194556Y1041226D01*
X1192885Y1042508D01*
X1190938Y1043314D01*
X1188850Y1043589D01*
X1186762Y1043314D01*
X1184816Y1042508D01*
X1183144Y1041226D01*
X1183019Y1041063D01*
X1171640D01*
X1169787Y1040694D01*
X1168215Y1039645D01*
X1146311Y1017740D01*
X1134190D01*
X1134157Y1017707D01*
X1132908Y1018541D01*
X1131435Y1018834D01*
X1126881D01*
X1124820Y1020980D01*
X1124820Y1021834D01*
Y1029980D01*
X1116820D01*
Y1020461D01*
X1117572Y1017980D01*
X1117163Y1017707D01*
X1117128Y1017654D01*
X1114590Y1016540D01*
X1114590Y1016540D01*
X1110590D01*
Y1010040D01*
X1104590D01*
Y1016540D01*
X1099016D01*
X1096696Y1018969D01*
X1096820Y1020980D01*
X1096820D01*
Y1044980D01*
X1096820D01*
X1095751Y1047980D01*
X1111488Y1063717D01*
X1114260Y1062569D01*
Y1062510D01*
X1124260D01*
Y1067510D01*
X1119201D01*
X1118053Y1070282D01*
X1122212Y1074441D01*
X1178760D01*
Y1063010D01*
X1204760D01*
Y1074441D01*
X1209970D01*
Y1073670D01*
X1214352D01*
Y1066089D01*
X1213482Y1064955D01*
X1212676Y1063008D01*
X1212401Y1060920D01*
X1212676Y1058832D01*
X1213482Y1056886D01*
X1214764Y1055214D01*
X1216435Y1053932D01*
X1218382Y1053126D01*
X1220470Y1052851D01*
X1222558Y1053126D01*
X1224504Y1053932D01*
X1226176Y1055214D01*
X1227458Y1056886D01*
X1228264Y1058832D01*
X1228539Y1060920D01*
X1228264Y1063008D01*
X1227458Y1064955D01*
X1226588Y1066089D01*
Y1073670D01*
X1230970D01*
Y1081477D01*
X1301037D01*
X1302033Y1080179D01*
X1302869Y1078477D01*
X1302597Y1077110D01*
Y1076081D01*
X1300476Y1073960D01*
X1297940Y1073960D01*
X1294940Y1073960D01*
X1291440D01*
Y1052960D01*
X1294940D01*
X1297940Y1052960D01*
X1300940Y1052960D01*
X1316940D01*
Y1052960D01*
X1319580D01*
Y1052960D01*
X1335580D01*
X1338580Y1052960D01*
X1341580Y1052960D01*
X1345080D01*
Y1063460D01*
X1348080D01*
Y1066460D01*
X1357580D01*
Y1073960D01*
X1348380D01*
X1346150Y1075820D01*
X1346150Y1076960D01*
Y1096820D01*
X1341493D01*
Y1102490D01*
X1346150D01*
Y1116641D01*
X1358087Y1128578D01*
X1361087Y1127335D01*
Y1051350D01*
X1361456Y1049497D01*
X1362505Y1047926D01*
X1368753Y1041678D01*
X1368611Y1040600D01*
X1368886Y1038512D01*
X1369692Y1036566D01*
X1370974Y1034894D01*
X1372646Y1033612D01*
X1374592Y1032806D01*
X1376680Y1032531D01*
X1378768Y1032806D01*
X1380715Y1033612D01*
X1382386Y1034894D01*
X1382478Y1035015D01*
X1386122D01*
X1386214Y1034894D01*
X1387885Y1033612D01*
X1389832Y1032806D01*
X1391920Y1032531D01*
X1394008Y1032806D01*
X1395954Y1033612D01*
X1397626Y1034894D01*
X1398908Y1036566D01*
X1399714Y1038512D01*
X1399989Y1040600D01*
X1399714Y1042689D01*
X1398908Y1044635D01*
X1397626Y1046306D01*
X1395954Y1047588D01*
X1394008Y1048394D01*
X1391920Y1048669D01*
X1390842Y1048527D01*
X1384773Y1054596D01*
Y1200662D01*
X1386055Y1201714D01*
X1387805D01*
X1389317Y1202015D01*
X1390430Y1202759D01*
X1391543Y1202015D01*
X1393055Y1201714D01*
X1394805D01*
X1396317Y1202015D01*
X1397430Y1202759D01*
X1398543Y1202015D01*
X1400055Y1201714D01*
X1401805D01*
X1403317Y1202015D01*
X1404430Y1202759D01*
X1405543Y1202015D01*
X1407055Y1201714D01*
X1408805D01*
X1410317Y1202015D01*
X1411430Y1202759D01*
X1412543Y1202015D01*
X1414055Y1201714D01*
X1415805D01*
X1417087Y1200662D01*
Y1194536D01*
X1398655Y1176105D01*
X1397606Y1174533D01*
X1397237Y1172680D01*
Y1170090D01*
X1391580D01*
Y1154090D01*
X1391580Y1151090D01*
X1391580Y1148090D01*
Y1144590D01*
X1412580D01*
Y1148090D01*
X1412580Y1151090D01*
X1412580Y1154090D01*
Y1170090D01*
X1410582D01*
X1409339Y1173090D01*
X1421315Y1185066D01*
X1424087Y1183918D01*
Y1170090D01*
X1418250D01*
Y1154090D01*
X1418250Y1151090D01*
X1418250Y1148090D01*
Y1144590D01*
X1439250D01*
Y1148090D01*
X1439250Y1151090D01*
X1439250Y1154090D01*
Y1170090D01*
X1433773D01*
Y1183558D01*
X1436545Y1184706D01*
X1448161Y1173090D01*
X1446918Y1170090D01*
X1443650D01*
Y1154090D01*
X1443650Y1151090D01*
X1443650Y1148090D01*
Y1144590D01*
X1464650D01*
Y1148090D01*
X1464650Y1151090D01*
X1464650Y1154090D01*
Y1170090D01*
X1458993D01*
Y1173950D01*
X1458624Y1175804D01*
X1457575Y1177375D01*
X1440773Y1194176D01*
Y1200662D01*
X1442055Y1201714D01*
X1443805D01*
X1445317Y1202015D01*
X1446430Y1202759D01*
X1447543Y1202015D01*
X1449055Y1201714D01*
X1450805D01*
X1452317Y1202015D01*
X1453599Y1202871D01*
X1454455Y1204153D01*
X1454756Y1205665D01*
Y1248915D01*
X1454455Y1250427D01*
X1453599Y1251709D01*
X1452317Y1252565D01*
X1450805Y1252866D01*
D02*
G37*
G36*
X1093690Y1248650D02*
X1092690D01*
Y1244590D01*
X1100024D01*
X1099805Y1245120D01*
X1098682Y1246582D01*
X1097220Y1247704D01*
X1095517Y1248410D01*
X1093690Y1248650D01*
D02*
G37*
G36*
X1086690D02*
X1085690D01*
X1083863Y1248410D01*
X1082160Y1247704D01*
X1080698Y1246582D01*
X1079576Y1245120D01*
X1079356Y1244590D01*
X1086690D01*
Y1248650D01*
D02*
G37*
G36*
X1136740Y1249911D02*
X1134490D01*
Y1244590D01*
X1144427D01*
X1143946Y1245751D01*
X1142624Y1247474D01*
X1140901Y1248796D01*
X1138894Y1249628D01*
X1136740Y1249911D01*
D02*
G37*
G36*
X1128490D02*
X1126240D01*
X1124086Y1249628D01*
X1122079Y1248796D01*
X1120356Y1247474D01*
X1119034Y1245751D01*
X1118553Y1244590D01*
X1128490D01*
Y1249911D01*
D02*
G37*
G36*
X1100024Y1238590D02*
X1092690D01*
Y1234530D01*
X1093690D01*
X1095517Y1234770D01*
X1097220Y1235476D01*
X1098682Y1236598D01*
X1099805Y1238060D01*
X1100024Y1238590D01*
D02*
G37*
G36*
X1086690D02*
X1079356D01*
X1079576Y1238060D01*
X1080698Y1236598D01*
X1082160Y1235476D01*
X1083863Y1234770D01*
X1085690Y1234530D01*
X1086690D01*
Y1238590D01*
D02*
G37*
G36*
X1144427Y1238590D02*
X1118553D01*
X1119034Y1237430D01*
X1120356Y1235706D01*
X1121324Y1234963D01*
X1121828Y1232544D01*
X1121659Y1231310D01*
X1120603Y1229729D01*
X1120117Y1227290D01*
X1120603Y1224851D01*
X1121984Y1222784D01*
X1124051Y1221403D01*
X1126490Y1220918D01*
X1128929Y1221403D01*
X1130996Y1222784D01*
X1132377Y1224851D01*
X1132862Y1227290D01*
X1132377Y1229729D01*
X1132017Y1230269D01*
X1133620Y1233269D01*
X1136740D01*
X1138894Y1233552D01*
X1140901Y1234384D01*
X1142624Y1235706D01*
X1143946Y1237430D01*
X1144427Y1238590D01*
D02*
G37*
G36*
X1554940Y1211013D02*
Y1203620D01*
X1562333D01*
X1561330Y1206041D01*
X1559607Y1208287D01*
X1557361Y1210010D01*
X1554940Y1211013D01*
D02*
G37*
G36*
X1548940D02*
X1546519Y1210010D01*
X1544273Y1208287D01*
X1542550Y1206041D01*
X1541547Y1203620D01*
X1548940D01*
Y1211013D01*
D02*
G37*
G36*
X1173820Y1247760D02*
X1152820D01*
Y1244260D01*
X1152820Y1241260D01*
X1152820Y1238260D01*
Y1222260D01*
X1158477D01*
Y1217148D01*
X1157614Y1216486D01*
X1156332Y1214815D01*
X1155526Y1212868D01*
X1155251Y1210780D01*
X1155526Y1208692D01*
X1156332Y1206746D01*
X1157614Y1205074D01*
X1159286Y1203792D01*
X1161232Y1202986D01*
X1163320Y1202711D01*
X1165408Y1202986D01*
X1167355Y1203792D01*
X1169026Y1205074D01*
X1170308Y1206746D01*
X1171114Y1208692D01*
X1171389Y1210780D01*
X1171114Y1212868D01*
X1170308Y1214815D01*
X1169026Y1216486D01*
X1168163Y1217148D01*
Y1222260D01*
X1173820D01*
Y1238260D01*
X1173820Y1241260D01*
X1173820Y1244260D01*
Y1247760D01*
D02*
G37*
G36*
X1562333Y1197620D02*
X1554940D01*
Y1190227D01*
X1557361Y1191230D01*
X1559607Y1192953D01*
X1561330Y1195199D01*
X1562333Y1197620D01*
D02*
G37*
G36*
X1548940D02*
X1541547D01*
X1542550Y1195199D01*
X1544273Y1192953D01*
X1546519Y1191230D01*
X1548940Y1190227D01*
Y1197620D01*
D02*
G37*
G36*
X1613490Y1211370D02*
X1591990D01*
Y1189870D01*
X1596877D01*
Y1176520D01*
X1596990Y1175954D01*
Y1168270D01*
X1608490D01*
Y1175954D01*
X1608603Y1176520D01*
Y1189870D01*
X1613490D01*
Y1211370D01*
D02*
G37*
G36*
X1093690Y1162251D02*
X1092690D01*
Y1158190D01*
X1100024D01*
X1099805Y1158720D01*
X1098682Y1160182D01*
X1097220Y1161304D01*
X1095517Y1162010D01*
X1093690Y1162251D01*
D02*
G37*
G36*
X1086690D02*
X1085690D01*
X1083863Y1162010D01*
X1082160Y1161304D01*
X1080698Y1160182D01*
X1079576Y1158720D01*
X1079356Y1158190D01*
X1086690D01*
Y1162251D01*
D02*
G37*
G36*
X1126490Y1175863D02*
X1124051Y1175378D01*
X1121984Y1173996D01*
X1120603Y1171929D01*
X1120117Y1169490D01*
X1120603Y1167051D01*
X1121659Y1165470D01*
X1121828Y1164236D01*
X1121324Y1161817D01*
X1120356Y1161074D01*
X1119034Y1159351D01*
X1118553Y1158190D01*
X1144427D01*
X1143946Y1159351D01*
X1142624Y1161074D01*
X1140901Y1162396D01*
X1138894Y1163228D01*
X1136740Y1163511D01*
X1133620D01*
X1132017Y1166511D01*
X1132377Y1167051D01*
X1132862Y1169490D01*
X1132377Y1171929D01*
X1130996Y1173996D01*
X1128929Y1175378D01*
X1126490Y1175863D01*
D02*
G37*
G36*
X1163320Y1194719D02*
X1161232Y1194444D01*
X1159286Y1193638D01*
X1157614Y1192356D01*
X1156332Y1190685D01*
X1155526Y1188738D01*
X1155251Y1186650D01*
X1155526Y1184562D01*
X1156332Y1182616D01*
X1157614Y1180945D01*
X1158477Y1180283D01*
Y1173900D01*
X1152820D01*
Y1157900D01*
X1152820Y1154900D01*
X1152820Y1151900D01*
Y1148400D01*
X1173820D01*
Y1151900D01*
X1173820Y1154900D01*
X1173820Y1157900D01*
Y1173900D01*
X1168163D01*
Y1180283D01*
X1169026Y1180945D01*
X1170308Y1182616D01*
X1171114Y1184562D01*
X1171389Y1186650D01*
X1171114Y1188738D01*
X1170308Y1190685D01*
X1169026Y1192356D01*
X1167355Y1193638D01*
X1165408Y1194444D01*
X1163320Y1194719D01*
D02*
G37*
G36*
X1100024Y1152190D02*
X1092690D01*
Y1148130D01*
X1093690D01*
X1095517Y1148370D01*
X1097220Y1149076D01*
X1098682Y1150198D01*
X1099805Y1151660D01*
X1100024Y1152190D01*
D02*
G37*
G36*
X1086690D02*
X1079356D01*
X1079576Y1151660D01*
X1080698Y1150198D01*
X1082160Y1149076D01*
X1083863Y1148370D01*
X1085690Y1148130D01*
X1086690D01*
Y1152190D01*
D02*
G37*
G36*
X1144427Y1152190D02*
X1118553D01*
X1119034Y1151030D01*
X1120356Y1149306D01*
X1122079Y1147984D01*
X1124086Y1147152D01*
X1126240Y1146869D01*
X1129140D01*
X1129898Y1143869D01*
X1129482Y1143644D01*
X1129387Y1143605D01*
X1129148Y1143506D01*
X1127535Y1142838D01*
X1125864Y1141556D01*
X1124582Y1139885D01*
X1124154Y1138850D01*
X1138987D01*
X1138558Y1139885D01*
X1137276Y1141556D01*
X1135604Y1142838D01*
X1133992Y1143506D01*
X1133753Y1143605D01*
X1133658Y1143644D01*
X1133242Y1143869D01*
X1134000Y1146869D01*
X1136740D01*
X1138894Y1147152D01*
X1140901Y1147984D01*
X1142624Y1149306D01*
X1143946Y1151030D01*
X1144427Y1152190D01*
D02*
G37*
G36*
X1173820Y1142400D02*
X1166320D01*
Y1135900D01*
X1173820D01*
Y1142400D01*
D02*
G37*
G36*
X1160320D02*
X1152820D01*
Y1135900D01*
X1160320D01*
Y1142400D01*
D02*
G37*
G36*
X1439250Y1138590D02*
X1431750D01*
Y1132090D01*
X1439250D01*
Y1138590D01*
D02*
G37*
G36*
X1425750D02*
X1418250D01*
Y1132090D01*
X1425750D01*
Y1138590D01*
D02*
G37*
G36*
X1464650D02*
X1457150D01*
Y1132090D01*
X1464650D01*
Y1138590D01*
D02*
G37*
G36*
X1451150D02*
X1443650D01*
Y1132090D01*
X1451150D01*
Y1138590D01*
D02*
G37*
G36*
X1412580D02*
X1405080D01*
Y1132090D01*
X1412580D01*
Y1138590D01*
D02*
G37*
G36*
X1399080D02*
X1391580D01*
Y1132090D01*
X1399080D01*
Y1138590D01*
D02*
G37*
G36*
X1084120Y1138960D02*
X1076120D01*
Y1129960D01*
X1084120D01*
Y1138960D01*
D02*
G37*
G36*
X1070120D02*
X1062120D01*
Y1129960D01*
X1070120D01*
Y1138960D01*
D02*
G37*
G36*
X1138987Y1132850D02*
X1134570D01*
Y1128434D01*
X1135604Y1128862D01*
X1137276Y1130145D01*
X1138558Y1131816D01*
X1138987Y1132850D01*
D02*
G37*
G36*
X1128570D02*
X1124154D01*
X1124582Y1131816D01*
X1125864Y1130145D01*
X1127535Y1128862D01*
X1128570Y1128434D01*
Y1132850D01*
D02*
G37*
G36*
X1198880Y1185829D02*
X1196792Y1185554D01*
X1194846Y1184748D01*
X1193174Y1183466D01*
X1191892Y1181795D01*
X1191086Y1179848D01*
X1190811Y1177760D01*
X1191086Y1175672D01*
X1191892Y1173726D01*
X1192763Y1172591D01*
Y1142194D01*
X1162196Y1111628D01*
X1140260D01*
Y1113510D01*
X1127784D01*
X1127260Y1113579D01*
X1114548D01*
X1112120Y1114960D01*
Y1138960D01*
X1090120D01*
Y1117625D01*
X1090120Y1115870D01*
X1088307Y1115870D01*
X1084120D01*
Y1123960D01*
X1062120D01*
Y1114960D01*
X1071930D01*
Y1108370D01*
X1081430D01*
Y1105370D01*
X1084430D01*
Y1094870D01*
X1087930D01*
X1090930Y1094870D01*
Y1094870D01*
X1090930D01*
Y1094870D01*
X1109930D01*
Y1097441D01*
X1127260D01*
X1127784Y1097510D01*
X1140260D01*
Y1099393D01*
X1164730D01*
X1167071Y1099858D01*
X1169056Y1101184D01*
X1203206Y1135334D01*
X1204532Y1137319D01*
X1204997Y1139660D01*
Y1172591D01*
X1205868Y1173726D01*
X1206674Y1175672D01*
X1206949Y1177760D01*
X1206674Y1179848D01*
X1205868Y1181795D01*
X1204586Y1183466D01*
X1202915Y1184748D01*
X1200968Y1185554D01*
X1198880Y1185829D01*
D02*
G37*
G36*
X1608490Y1156770D02*
X1596990D01*
Y1140270D01*
X1597132D01*
Y1136354D01*
X1570996Y1110218D01*
X1552029D01*
X1550894Y1111088D01*
X1548948Y1111894D01*
X1546860Y1112169D01*
X1544772Y1111894D01*
X1542825Y1111088D01*
X1541154Y1109806D01*
X1539872Y1108135D01*
X1539066Y1106189D01*
X1538791Y1104100D01*
X1539066Y1102012D01*
X1539872Y1100066D01*
X1541154Y1098394D01*
X1542825Y1097112D01*
X1544772Y1096306D01*
X1546860Y1096031D01*
X1548948Y1096306D01*
X1550894Y1097112D01*
X1552029Y1097983D01*
X1573530D01*
X1575871Y1098448D01*
X1577856Y1099774D01*
X1607066Y1128984D01*
X1608392Y1130969D01*
X1608858Y1133310D01*
X1608392Y1135651D01*
X1608348Y1135717D01*
Y1140270D01*
X1608490D01*
Y1156770D01*
D02*
G37*
G36*
X1230970Y1111670D02*
X1223470D01*
Y1105170D01*
X1230970D01*
Y1111670D01*
D02*
G37*
G36*
X1217470D02*
X1209970D01*
Y1105170D01*
X1217470D01*
Y1111670D01*
D02*
G37*
G36*
X1253030Y1105167D02*
X1251995Y1104738D01*
X1250324Y1103456D01*
X1249042Y1101785D01*
X1248614Y1100750D01*
X1253030D01*
Y1105167D01*
D02*
G37*
G36*
X1078430Y1102370D02*
X1071930D01*
Y1094870D01*
X1078430D01*
Y1102370D01*
D02*
G37*
G36*
X1285440Y1073960D02*
X1278940D01*
Y1066460D01*
X1285440D01*
Y1073960D01*
D02*
G37*
G36*
X1501140Y1211463D02*
X1498334Y1211093D01*
X1495719Y1210010D01*
X1493473Y1208287D01*
X1491750Y1206041D01*
X1490667Y1203426D01*
X1490297Y1200620D01*
X1490667Y1197814D01*
X1491750Y1195199D01*
X1493473Y1192953D01*
X1495719Y1191230D01*
X1496297Y1190991D01*
Y1154366D01*
X1408238Y1066307D01*
X1407160Y1066449D01*
X1405072Y1066174D01*
X1403125Y1065368D01*
X1401454Y1064086D01*
X1400172Y1062415D01*
X1399366Y1060469D01*
X1399091Y1058380D01*
X1399366Y1056292D01*
X1400172Y1054346D01*
X1401454Y1052674D01*
X1403125Y1051392D01*
X1405072Y1050586D01*
X1407160Y1050311D01*
X1409248Y1050586D01*
X1411194Y1051392D01*
X1412866Y1052674D01*
X1414148Y1054346D01*
X1414954Y1056292D01*
X1415229Y1058380D01*
X1415087Y1059458D01*
X1504565Y1148935D01*
X1505614Y1150507D01*
X1505983Y1152360D01*
Y1190991D01*
X1506561Y1191230D01*
X1508807Y1192953D01*
X1510530Y1195199D01*
X1511613Y1197814D01*
X1511983Y1200620D01*
X1511613Y1203426D01*
X1510530Y1206041D01*
X1508807Y1208287D01*
X1506561Y1210010D01*
X1503946Y1211093D01*
X1501140Y1211463D01*
D02*
G37*
G36*
X1140260Y1067510D02*
X1130260D01*
Y1062510D01*
X1140260D01*
Y1067510D01*
D02*
G37*
G36*
X1357580Y1060460D02*
X1351080D01*
Y1052960D01*
X1357580D01*
Y1060460D01*
D02*
G37*
G36*
X1285440D02*
X1278940D01*
Y1052960D01*
X1285440D01*
Y1060460D01*
D02*
G37*
G36*
X1140260Y1056510D02*
X1130260D01*
Y1051510D01*
X1140260D01*
Y1056510D01*
D02*
G37*
G36*
X1124260D02*
X1114260D01*
Y1051510D01*
X1124260D01*
Y1056510D01*
D02*
G37*
G36*
X1503130Y1043710D02*
X1493230D01*
Y1041060D01*
X1503130D01*
Y1043710D01*
D02*
G37*
G36*
X1124820Y1044980D02*
X1116820D01*
Y1035980D01*
X1124820D01*
Y1044980D01*
D02*
G37*
G36*
X1110820D02*
X1102820D01*
Y1035980D01*
X1110820D01*
Y1044980D01*
D02*
G37*
G36*
Y1029980D02*
X1102820D01*
Y1020980D01*
X1110820D01*
Y1029980D01*
D02*
G37*
G36*
X1264460Y1009660D02*
X1256460D01*
Y1000660D01*
X1264460D01*
Y1009660D01*
D02*
G37*
G36*
X1250460D02*
X1242460D01*
Y1000660D01*
X1250460D01*
Y1009660D01*
D02*
G37*
G36*
X1575865Y1001198D02*
X1573990D01*
Y991380D01*
X1583808D01*
Y993255D01*
X1583537Y995311D01*
X1582744Y997227D01*
X1581481Y998872D01*
X1579836Y1000134D01*
X1577921Y1000927D01*
X1575865Y1001198D01*
D02*
G37*
G36*
X1567990D02*
X1566115D01*
X1564059Y1000927D01*
X1562144Y1000134D01*
X1560499Y998872D01*
X1559236Y997227D01*
X1558443Y995311D01*
X1558172Y993255D01*
Y991380D01*
X1567990D01*
Y1001198D01*
D02*
G37*
G36*
X1249220Y992910D02*
X1241220D01*
Y983910D01*
X1249220D01*
Y992910D01*
D02*
G37*
G36*
X1235220D02*
X1227220D01*
Y983910D01*
X1235220D01*
Y992910D01*
D02*
G37*
G36*
X1533760Y987830D02*
X1525760D01*
Y978830D01*
X1533760D01*
Y987830D01*
D02*
G37*
G36*
X1519760D02*
X1511760D01*
Y978830D01*
X1519760D01*
Y987830D01*
D02*
G37*
G36*
X1583808Y985380D02*
X1573990D01*
Y975562D01*
X1575865D01*
X1577921Y975833D01*
X1579836Y976626D01*
X1581481Y977889D01*
X1582744Y979534D01*
X1583537Y981449D01*
X1583808Y983505D01*
Y985380D01*
D02*
G37*
G36*
X1567990D02*
X1558172D01*
Y983505D01*
X1558443Y981449D01*
X1559236Y979534D01*
X1560499Y977889D01*
X1562144Y976626D01*
X1564059Y975833D01*
X1566115Y975562D01*
X1567990D01*
Y985380D01*
D02*
G37*
G36*
X1533760Y972830D02*
X1525760D01*
Y963830D01*
X1533760D01*
Y972830D01*
D02*
G37*
G36*
X1519760D02*
X1511760D01*
Y963830D01*
X1519760D01*
Y972830D01*
D02*
G37*
G36*
X1213420Y957650D02*
X1204420D01*
Y949650D01*
X1213420D01*
Y957650D01*
D02*
G37*
G36*
Y943650D02*
X1204420D01*
Y935650D01*
X1213420D01*
Y943650D01*
D02*
G37*
G36*
X1098090Y939810D02*
X1089090D01*
Y931810D01*
X1098090D01*
Y939810D01*
D02*
G37*
G36*
Y925810D02*
X1089090D01*
Y917810D01*
X1098090D01*
Y925810D01*
D02*
G37*
G36*
X1590730Y845342D02*
Y838220D01*
X1597852D01*
X1596902Y840515D01*
X1595219Y842709D01*
X1593025Y844392D01*
X1590730Y845342D01*
D02*
G37*
G36*
X1584730Y845343D02*
X1582435Y844392D01*
X1580241Y842709D01*
X1578558Y840515D01*
X1577608Y838220D01*
X1584730D01*
Y845343D01*
D02*
G37*
G36*
X1331150Y845342D02*
Y838220D01*
X1338273D01*
X1337322Y840515D01*
X1335639Y842709D01*
X1333445Y844392D01*
X1331150Y845342D01*
D02*
G37*
G36*
X1325150Y845343D02*
X1322855Y844392D01*
X1320661Y842709D01*
X1318978Y840515D01*
X1318028Y838220D01*
X1325150D01*
Y845343D01*
D02*
G37*
G36*
X1525730Y845343D02*
Y838220D01*
X1532852D01*
X1531902Y840515D01*
X1530219Y842709D01*
X1528025Y844392D01*
X1525730Y845343D01*
D02*
G37*
G36*
X1519730D02*
X1517435Y844392D01*
X1515241Y842709D01*
X1513558Y840515D01*
X1512608Y838220D01*
X1519730D01*
Y845343D01*
D02*
G37*
G36*
X1395940D02*
Y838220D01*
X1403062D01*
X1402112Y840515D01*
X1400429Y842709D01*
X1398235Y844392D01*
X1395940Y845343D01*
D02*
G37*
G36*
X1389940D02*
X1387645Y844392D01*
X1385451Y842709D01*
X1383768Y840515D01*
X1382818Y838220D01*
X1389940D01*
Y845343D01*
D02*
G37*
G36*
X1266150D02*
Y838220D01*
X1273272D01*
X1272322Y840515D01*
X1270639Y842709D01*
X1268445Y844392D01*
X1266150Y845343D01*
D02*
G37*
G36*
X1260150D02*
X1257855Y844392D01*
X1255661Y842709D01*
X1253978Y840515D01*
X1253028Y838220D01*
X1260150D01*
Y845343D01*
D02*
G37*
G36*
X1460940D02*
Y838220D01*
X1468062D01*
X1467112Y840515D01*
X1465429Y842709D01*
X1463235Y844392D01*
X1460940Y845343D01*
D02*
G37*
G36*
X1454940D02*
X1452645Y844392D01*
X1450451Y842709D01*
X1448768Y840515D01*
X1447818Y838220D01*
X1454940D01*
Y845343D01*
D02*
G37*
G36*
X1201360D02*
Y838220D01*
X1208483D01*
X1207532Y840515D01*
X1205849Y842709D01*
X1203655Y844392D01*
X1201360Y845343D01*
D02*
G37*
G36*
X1195360D02*
X1193065Y844392D01*
X1190871Y842709D01*
X1189188Y840515D01*
X1188238Y838220D01*
X1195360D01*
Y845343D01*
D02*
G37*
G36*
X1136360D02*
Y838220D01*
X1143483D01*
X1142532Y840515D01*
X1140849Y842709D01*
X1138655Y844392D01*
X1136360Y845343D01*
D02*
G37*
G36*
X1130360D02*
X1128065Y844392D01*
X1125871Y842709D01*
X1124188Y840515D01*
X1123238Y838220D01*
X1130360D01*
Y845343D01*
D02*
G37*
G36*
X1597852Y832220D02*
X1590730D01*
Y825098D01*
X1593025Y826048D01*
X1595219Y827731D01*
X1596902Y829925D01*
X1597852Y832220D01*
D02*
G37*
G36*
X1338273D02*
X1331150D01*
Y825098D01*
X1333445Y826048D01*
X1335639Y827731D01*
X1337322Y829925D01*
X1338273Y832220D01*
D02*
G37*
G36*
X1532852Y832220D02*
X1525730D01*
Y825098D01*
X1528025Y826048D01*
X1530219Y827731D01*
X1531902Y829925D01*
X1532852Y832220D01*
D02*
G37*
G36*
X1519730D02*
X1512608D01*
X1513558Y829925D01*
X1515241Y827731D01*
X1517435Y826048D01*
X1519730Y825098D01*
Y832220D01*
D02*
G37*
G36*
X1468062Y832220D02*
X1460940D01*
Y825098D01*
X1463235Y826048D01*
X1465429Y827731D01*
X1467112Y829925D01*
X1468062Y832220D01*
D02*
G37*
G36*
X1454940D02*
X1447818D01*
X1448768Y829925D01*
X1450451Y827731D01*
X1452645Y826048D01*
X1454940Y825098D01*
Y832220D01*
D02*
G37*
G36*
X1403062Y832220D02*
X1395940D01*
Y825098D01*
X1398235Y826048D01*
X1400429Y827731D01*
X1402112Y829925D01*
X1403062Y832220D01*
D02*
G37*
G36*
X1389940D02*
X1382818D01*
X1383768Y829925D01*
X1385451Y827731D01*
X1387645Y826048D01*
X1389940Y825098D01*
Y832220D01*
D02*
G37*
G36*
X1273272D02*
X1266150D01*
Y825098D01*
X1268445Y826048D01*
X1270639Y827731D01*
X1272322Y829925D01*
X1273272Y832220D01*
D02*
G37*
G36*
X1260150D02*
X1253028D01*
X1253978Y829925D01*
X1255661Y827731D01*
X1257855Y826048D01*
X1260150Y825098D01*
Y832220D01*
D02*
G37*
G36*
X1208483Y832220D02*
X1201360D01*
Y825098D01*
X1203655Y826048D01*
X1205849Y827731D01*
X1207532Y829925D01*
X1208483Y832220D01*
D02*
G37*
G36*
X1195360D02*
X1188238D01*
X1189188Y829925D01*
X1190871Y827731D01*
X1193065Y826048D01*
X1195360Y825098D01*
Y832220D01*
D02*
G37*
G36*
X1143483Y832220D02*
X1136360D01*
Y825098D01*
X1138655Y826048D01*
X1140849Y827731D01*
X1142532Y829925D01*
X1143483Y832220D01*
D02*
G37*
G36*
X1130360D02*
X1123238D01*
X1124188Y829925D01*
X1125871Y827731D01*
X1128065Y826048D01*
X1130360Y825098D01*
Y832220D01*
D02*
G37*
G36*
X1584730Y832220D02*
X1577608D01*
X1578558Y829925D01*
X1580241Y827731D01*
X1582435Y826048D01*
X1584730Y825098D01*
Y832220D01*
D02*
G37*
G36*
X1325150D02*
X1318028D01*
X1318978Y829925D01*
X1320661Y827731D01*
X1322855Y826048D01*
X1325150Y825098D01*
Y832220D01*
D02*
G37*
%LPD*%
G36*
X1453117Y975296D02*
X1439764Y961943D01*
X1402080D01*
Y969761D01*
X1403135Y970465D01*
X1425601Y992932D01*
X1428030Y994310D01*
X1453117D01*
Y975296D01*
D02*
G37*
%LPC*%
G36*
X483860Y1270267D02*
Y1265850D01*
X488276D01*
X487848Y1266885D01*
X486566Y1268556D01*
X484894Y1269838D01*
X483860Y1270267D01*
D02*
G37*
G36*
X477860D02*
X476825Y1269838D01*
X475154Y1268556D01*
X473872Y1266885D01*
X473443Y1265850D01*
X477860D01*
Y1270267D01*
D02*
G37*
G36*
X488276Y1259850D02*
X483860D01*
Y1255434D01*
X484894Y1255862D01*
X486566Y1257144D01*
X487848Y1258816D01*
X488276Y1259850D01*
D02*
G37*
G36*
X477860D02*
X473443D01*
X473872Y1258816D01*
X475154Y1257144D01*
X476825Y1255862D01*
X477860Y1255434D01*
Y1259850D01*
D02*
G37*
G36*
X523110Y1260260D02*
X515610D01*
Y1253760D01*
X523110D01*
Y1260260D01*
D02*
G37*
G36*
X509610D02*
X502110D01*
Y1253760D01*
X509610D01*
Y1260260D01*
D02*
G37*
G36*
X800095Y1252866D02*
X798345D01*
X796833Y1252565D01*
X795720Y1251822D01*
X794607Y1252565D01*
X793095Y1252866D01*
X791345D01*
X789833Y1252565D01*
X788720Y1251822D01*
X787607Y1252565D01*
X786095Y1252866D01*
X784345D01*
X782833Y1252565D01*
X781720Y1251822D01*
X780607Y1252565D01*
X779095Y1252866D01*
X777345D01*
X775833Y1252565D01*
X774720Y1251822D01*
X773607Y1252565D01*
X772095Y1252866D01*
X770345D01*
X768833Y1252565D01*
X767720Y1251822D01*
X766607Y1252565D01*
X765095Y1252866D01*
X763345D01*
X761833Y1252565D01*
X760720Y1251822D01*
X759607Y1252565D01*
X758095Y1252866D01*
X756345D01*
X754833Y1252565D01*
X753720Y1251822D01*
X752607Y1252565D01*
X751095Y1252866D01*
X749345D01*
X747833Y1252565D01*
X746720Y1251822D01*
X745607Y1252565D01*
X744095Y1252866D01*
X742345D01*
X740833Y1252565D01*
X739720Y1251822D01*
X738607Y1252565D01*
X737095Y1252866D01*
X735345D01*
X733833Y1252565D01*
X732720Y1251822D01*
X731607Y1252565D01*
X730095Y1252866D01*
X728345D01*
X726833Y1252565D01*
X725720Y1251822D01*
X724607Y1252565D01*
X723095Y1252866D01*
X721345D01*
X719833Y1252565D01*
X718720Y1251822D01*
X717607Y1252565D01*
X716095Y1252866D01*
X714345D01*
X712833Y1252565D01*
X711720Y1251822D01*
X710607Y1252565D01*
X709095Y1252866D01*
X707345D01*
X705833Y1252565D01*
X704720Y1251822D01*
X703607Y1252565D01*
X702095Y1252866D01*
X700345D01*
X698833Y1252565D01*
X697720Y1251822D01*
X696607Y1252565D01*
X695095Y1252866D01*
X693345D01*
X691833Y1252565D01*
X690720Y1251822D01*
X689607Y1252565D01*
X688095Y1252866D01*
X686345D01*
X684833Y1252565D01*
X683720Y1251822D01*
X682607Y1252565D01*
X681095Y1252866D01*
X679345D01*
X677833Y1252565D01*
X676720Y1251822D01*
X675607Y1252565D01*
X674095Y1252866D01*
X672345D01*
X670833Y1252565D01*
X669720Y1251822D01*
X668607Y1252565D01*
X667095Y1252866D01*
X665345D01*
X663833Y1252565D01*
X662720Y1251822D01*
X661607Y1252565D01*
X660095Y1252866D01*
X658345D01*
X656833Y1252565D01*
X655720Y1251822D01*
X654607Y1252565D01*
X653095Y1252866D01*
X651345D01*
X649833Y1252565D01*
X648720Y1251822D01*
X647607Y1252565D01*
X646095Y1252866D01*
X644345D01*
X642833Y1252565D01*
X641720Y1251822D01*
X640607Y1252565D01*
X639095Y1252866D01*
X637345D01*
X635833Y1252565D01*
X634720Y1251822D01*
X633607Y1252565D01*
X632095Y1252866D01*
X630345D01*
X628833Y1252565D01*
X627720Y1251822D01*
X626607Y1252565D01*
X625095Y1252866D01*
X623345D01*
X621833Y1252565D01*
X620720Y1251822D01*
X619607Y1252565D01*
X618095Y1252866D01*
X616345D01*
X614833Y1252565D01*
X613720Y1251822D01*
X612607Y1252565D01*
X611095Y1252866D01*
X609345D01*
X607833Y1252565D01*
X606720Y1251822D01*
X605607Y1252565D01*
X604095Y1252866D01*
X602345D01*
X600833Y1252565D01*
X599720Y1251822D01*
X598607Y1252565D01*
X597095Y1252866D01*
X595345D01*
X593833Y1252565D01*
X592551Y1251709D01*
X591695Y1250427D01*
X591394Y1248915D01*
Y1205665D01*
X591695Y1204153D01*
X592551Y1202871D01*
X592271Y1199500D01*
X591735Y1198965D01*
X590686Y1197393D01*
X590317Y1195540D01*
Y1132040D01*
X590686Y1130187D01*
X591735Y1128615D01*
X610125Y1110226D01*
X611697Y1109176D01*
X613550Y1108807D01*
X613870Y1108487D01*
X613870Y1104677D01*
X612290Y1103692D01*
X611536Y1103518D01*
X611026Y1103456D01*
X609355Y1104738D01*
X608320Y1105167D01*
Y1097750D01*
X605320D01*
Y1094750D01*
X597904D01*
X598147Y1094163D01*
X597525Y1092586D01*
X596509Y1091163D01*
X582636D01*
X580260Y1092670D01*
X580260Y1095670D01*
Y1099170D01*
X559260D01*
Y1095670D01*
X559260Y1092670D01*
X557126Y1090579D01*
X554050D01*
Y1102010D01*
X528050D01*
Y1090579D01*
X468160D01*
X467636Y1090510D01*
X463550D01*
Y1089056D01*
X462454Y1088216D01*
X430271Y1056032D01*
X428989Y1054361D01*
X428182Y1052415D01*
X427908Y1050327D01*
Y1044980D01*
X424110D01*
Y1039098D01*
X421170D01*
X418829Y1038632D01*
X416844Y1037306D01*
X397794Y1018256D01*
X396468Y1016271D01*
X396003Y1013930D01*
Y975830D01*
X396468Y973489D01*
X397794Y971504D01*
X412424Y956874D01*
X414409Y955548D01*
X416750Y955083D01*
X438380D01*
Y945810D01*
X462380D01*
Y946705D01*
X465326Y946835D01*
X465619Y945362D01*
X466453Y944113D01*
Y941507D01*
X465619Y940258D01*
X465326Y938785D01*
X462380Y938915D01*
Y939810D01*
X453380D01*
Y928810D01*
Y917810D01*
X462380D01*
Y921305D01*
X465326Y921435D01*
X465619Y919962D01*
X466453Y918714D01*
X467702Y917879D01*
X469175Y917586D01*
X471950D01*
Y923760D01*
X477950D01*
Y917586D01*
X480725D01*
X482198Y917879D01*
X483447Y918714D01*
X519905D01*
X520501Y915714D01*
X520005Y915508D01*
X518334Y914226D01*
X517052Y912555D01*
X516246Y910609D01*
X515971Y908520D01*
X516246Y906432D01*
X517052Y904486D01*
X518334Y902814D01*
X520005Y901532D01*
X521952Y900726D01*
X524040Y900451D01*
X526128Y900726D01*
X528074Y901532D01*
X529746Y902814D01*
X530017Y903168D01*
X535845D01*
X538186Y903634D01*
X540171Y904960D01*
X542862Y907650D01*
X562710D01*
Y929650D01*
X551244D01*
X550100Y929878D01*
X541029D01*
X539341Y932567D01*
X539331Y932751D01*
X539462Y933573D01*
X539574Y934135D01*
Y934273D01*
X539794Y935650D01*
X547710D01*
Y946650D01*
Y957650D01*
X542258D01*
X539574Y959535D01*
Y964185D01*
X539281Y965658D01*
X538447Y966907D01*
Y969513D01*
X539281Y970762D01*
X539574Y972235D01*
Y976885D01*
X539281Y978358D01*
X538447Y979607D01*
Y982214D01*
X539281Y983462D01*
X539574Y984935D01*
Y989585D01*
X539281Y991058D01*
X538447Y992307D01*
Y994913D01*
X539281Y996162D01*
X539574Y997635D01*
Y1002285D01*
X539281Y1003758D01*
X538447Y1005007D01*
Y1007614D01*
X539281Y1008862D01*
X539574Y1010335D01*
Y1014985D01*
X539281Y1016458D01*
X538573Y1017517D01*
X538793Y1018523D01*
X539641Y1020517D01*
X545819D01*
X546835Y1019094D01*
X547457Y1017517D01*
X546836Y1016019D01*
X546561Y1013930D01*
X546836Y1011842D01*
X547642Y1009896D01*
X548924Y1008224D01*
X550596Y1006942D01*
X552542Y1006136D01*
X554630Y1005861D01*
X556718Y1006136D01*
X558665Y1006942D01*
X560336Y1008224D01*
X561151Y1009287D01*
X564880D01*
X566733Y1009656D01*
X568305Y1010706D01*
X579386Y1021787D01*
X591750D01*
Y1015660D01*
X613750D01*
Y1021787D01*
X619750D01*
Y1000660D01*
X633331D01*
X647230Y986761D01*
Y977943D01*
X643076D01*
X637926Y983093D01*
X637642Y984521D01*
X636316Y986506D01*
X634331Y987832D01*
X631990Y988298D01*
X626510D01*
Y992910D01*
X604510D01*
Y968910D01*
X603987Y968543D01*
X601510Y967280D01*
X601510D01*
X599033Y968543D01*
X598510Y968910D01*
X598510Y970280D01*
Y977910D01*
X576510D01*
Y968910D01*
X580185D01*
X582510Y967280D01*
X582510Y965910D01*
Y956669D01*
X575225Y949385D01*
X574176Y947813D01*
X573807Y945960D01*
Y914870D01*
X574176Y913017D01*
X575225Y911445D01*
X582845Y903826D01*
X583088Y903663D01*
X582178Y900663D01*
X555630D01*
X555630Y900663D01*
X553777Y900294D01*
X552206Y899245D01*
X544226Y891265D01*
X543211Y889746D01*
X542355Y889392D01*
X540161Y887709D01*
X538478Y885515D01*
X538291Y885063D01*
X493150D01*
Y890720D01*
X472150D01*
Y885063D01*
X455800D01*
Y889420D01*
X434800D01*
Y873420D01*
X434800Y870420D01*
X434800Y867420D01*
Y851420D01*
X455800D01*
Y858413D01*
X458093Y859398D01*
X458800Y859515D01*
X460316Y858352D01*
X462262Y857546D01*
X464350Y857271D01*
X466438Y857546D01*
X468385Y858352D01*
X470056Y859634D01*
X471338Y861306D01*
X472144Y863252D01*
X472419Y865340D01*
X472237Y866720D01*
X473408Y868689D01*
X474442Y869720D01*
X493150D01*
Y875377D01*
X538291D01*
X538478Y874925D01*
X540161Y872731D01*
X542355Y871048D01*
X544909Y869990D01*
X547650Y869630D01*
X550391Y869990D01*
X552945Y871048D01*
X555139Y872731D01*
X556822Y874925D01*
X557530Y876635D01*
X560530Y876038D01*
X560530Y870420D01*
X560530Y867420D01*
Y851420D01*
X581530D01*
Y860497D01*
X586252D01*
X586914Y859634D01*
X588586Y858352D01*
X590532Y857546D01*
X592620Y857271D01*
X594708Y857546D01*
X596655Y858352D01*
X598326Y859634D01*
X599608Y861306D01*
X600414Y863252D01*
X600689Y865340D01*
X600425Y867348D01*
X600675Y867666D01*
X600758Y867772D01*
X602712Y869720D01*
X604301Y869720D01*
X622940D01*
Y875377D01*
X668081D01*
X668268Y874925D01*
X669951Y872731D01*
X672145Y871048D01*
X674699Y869990D01*
X677440Y869630D01*
X680181Y869990D01*
X682735Y871048D01*
X684929Y872731D01*
X686612Y874925D01*
X687670Y877479D01*
X688031Y880220D01*
X687670Y882961D01*
X686612Y885515D01*
X684929Y887709D01*
X684881Y888432D01*
X703685Y907236D01*
X706457Y906088D01*
Y902206D01*
X699685Y895435D01*
X698636Y893864D01*
X698267Y892010D01*
Y889420D01*
X691340D01*
Y873420D01*
X691340Y870420D01*
X691340Y867420D01*
Y851420D01*
X712340D01*
Y860497D01*
X717062D01*
X717724Y859634D01*
X719396Y858352D01*
X721342Y857546D01*
X723430Y857271D01*
X725518Y857546D01*
X727465Y858352D01*
X729136Y859634D01*
X730418Y861306D01*
X731224Y863252D01*
X731499Y865340D01*
X731293Y866901D01*
X732355Y868557D01*
X733522Y869720D01*
X752730D01*
Y875377D01*
X797871D01*
X798058Y874925D01*
X799741Y872731D01*
X801935Y871048D01*
X804489Y869990D01*
X807230Y869630D01*
X809971Y869990D01*
X812525Y871048D01*
X814719Y872731D01*
X816402Y874925D01*
X817460Y877479D01*
X817821Y880220D01*
X817460Y882961D01*
X816402Y885515D01*
X814719Y887709D01*
X812525Y889392D01*
X809971Y890450D01*
X807230Y890811D01*
X804489Y890450D01*
X801935Y889392D01*
X799741Y887709D01*
X798058Y885515D01*
X797871Y885063D01*
X752730D01*
Y890720D01*
X731730D01*
Y884763D01*
X712340D01*
Y889420D01*
X711612D01*
X710369Y892420D01*
X714725Y896776D01*
X714725Y896776D01*
X715774Y898347D01*
X716143Y900200D01*
Y916468D01*
X718915Y917616D01*
X729127Y907404D01*
X730698Y906354D01*
X732551Y905985D01*
X817785D01*
X827025Y896746D01*
Y889420D01*
X820880D01*
Y873420D01*
X820880Y870420D01*
X820880Y867420D01*
Y851420D01*
X841880D01*
Y860497D01*
X846602D01*
X847264Y859634D01*
X848935Y858352D01*
X850882Y857546D01*
X852970Y857271D01*
X855058Y857546D01*
X857004Y858352D01*
X858676Y859634D01*
X859958Y861306D01*
X860764Y863252D01*
X861039Y865340D01*
X860819Y867010D01*
X861785Y868447D01*
X863062Y869720D01*
X882520D01*
Y875377D01*
X927661D01*
X927848Y874925D01*
X929531Y872731D01*
X931725Y871048D01*
X934279Y869990D01*
X937020Y869630D01*
X939761Y869990D01*
X942315Y871048D01*
X944509Y872731D01*
X946192Y874925D01*
X947250Y877479D01*
X947611Y880220D01*
X947250Y882961D01*
X946192Y885515D01*
X944509Y887709D01*
X942315Y889392D01*
X939761Y890450D01*
X937020Y890811D01*
X934279Y890450D01*
X931725Y889392D01*
X929531Y887709D01*
X927848Y885515D01*
X927661Y885063D01*
X882520D01*
Y890720D01*
X861520D01*
Y885063D01*
X841880D01*
Y889420D01*
X836711D01*
Y898752D01*
X836343Y900605D01*
X835293Y902176D01*
X823216Y914253D01*
X821645Y915303D01*
X819791Y915672D01*
X734558D01*
X727971Y922259D01*
X729119Y925030D01*
X751370D01*
Y931109D01*
X792772D01*
X794625Y931478D01*
X796197Y932527D01*
X825915Y962245D01*
X826964Y963817D01*
X827333Y965670D01*
Y994310D01*
X833542D01*
Y987830D01*
X833050D01*
Y963830D01*
X834153D01*
Y961860D01*
X834618Y959519D01*
X835944Y957534D01*
X894364Y899114D01*
X896349Y897788D01*
X898690Y897323D01*
X911301D01*
X912436Y896452D01*
X914382Y895646D01*
X916470Y895371D01*
X918558Y895646D01*
X920505Y896452D01*
X922176Y897735D01*
X923458Y899406D01*
X924264Y901352D01*
X924539Y903440D01*
X924264Y905528D01*
X923458Y907475D01*
X922176Y909146D01*
X920505Y910428D01*
X918558Y911234D01*
X916470Y911509D01*
X914382Y911234D01*
X912436Y910428D01*
X911301Y909558D01*
X901224D01*
X849723Y961059D01*
X850871Y963830D01*
X855050D01*
Y987830D01*
X845778D01*
Y994310D01*
X852420D01*
Y1005610D01*
X854334Y1007817D01*
X860250D01*
Y1002550D01*
X881250D01*
Y1003981D01*
X913022D01*
X915110Y1004256D01*
X917057Y1005062D01*
X918728Y1006344D01*
X923301Y1010918D01*
X923608Y1010958D01*
X926710Y1012243D01*
X929373Y1014287D01*
X931417Y1016950D01*
X932702Y1020052D01*
X933140Y1023380D01*
X932702Y1026709D01*
X931417Y1029810D01*
X929373Y1032474D01*
X926710Y1034517D01*
X923608Y1035802D01*
X920280Y1036240D01*
X916952Y1035802D01*
X913850Y1034517D01*
X911187Y1032474D01*
X909143Y1029810D01*
X907858Y1026709D01*
X907420Y1023380D01*
X907552Y1022375D01*
X905574Y1020119D01*
X883657D01*
X881250Y1021550D01*
Y1029139D01*
X901862Y1049751D01*
X910830D01*
X911187Y1049287D01*
X913850Y1047243D01*
X916952Y1045958D01*
X920280Y1045520D01*
X923608Y1045958D01*
X926710Y1047243D01*
X929373Y1049287D01*
X931417Y1051950D01*
X932702Y1055052D01*
X933140Y1058380D01*
X932702Y1061709D01*
X931417Y1064810D01*
X929373Y1067474D01*
X926710Y1069517D01*
X923608Y1070802D01*
X920280Y1071240D01*
X916952Y1070802D01*
X913850Y1069517D01*
X911187Y1067474D01*
X909971Y1065889D01*
X898520D01*
X896432Y1065614D01*
X894485Y1064808D01*
X892814Y1063526D01*
X869839Y1040550D01*
X860250D01*
Y1035893D01*
X858660D01*
X856807Y1035525D01*
X855420Y1034598D01*
X854671Y1034761D01*
X854081Y1035060D01*
X839520D01*
Y1038060D01*
X836520D01*
Y1043710D01*
X827333D01*
Y1058914D01*
X930054Y1161636D01*
X930055Y1161636D01*
X931104Y1163207D01*
X931473Y1165060D01*
X931473Y1165060D01*
Y1190991D01*
X932051Y1191230D01*
X934297Y1192953D01*
X936020Y1195199D01*
X937103Y1197814D01*
X937473Y1200620D01*
X937103Y1203426D01*
X936020Y1206041D01*
X934297Y1208287D01*
X932051Y1210010D01*
X929436Y1211093D01*
X926630Y1211463D01*
X923824Y1211093D01*
X921209Y1210010D01*
X918963Y1208287D01*
X917240Y1206041D01*
X916157Y1203426D01*
X915787Y1200620D01*
X916157Y1197814D01*
X917240Y1195199D01*
X918963Y1192953D01*
X921209Y1191230D01*
X921787Y1190991D01*
Y1167066D01*
X883445Y1128724D01*
X880673Y1129872D01*
Y1190991D01*
X881251Y1191230D01*
X883497Y1192953D01*
X885220Y1195199D01*
X886303Y1197814D01*
X886673Y1200620D01*
X886303Y1203426D01*
X885220Y1206041D01*
X883497Y1208287D01*
X881251Y1210010D01*
X878636Y1211093D01*
X875830Y1211463D01*
X873024Y1211093D01*
X870409Y1210010D01*
X868163Y1208287D01*
X866440Y1206041D01*
X865357Y1203426D01*
X864987Y1200620D01*
X865357Y1197814D01*
X866440Y1195199D01*
X868163Y1192953D01*
X870409Y1191230D01*
X870987Y1190991D01*
Y1127696D01*
X811445Y1068155D01*
X810396Y1066583D01*
X810027Y1064730D01*
Y1010872D01*
X807255Y1009724D01*
X803120Y1013859D01*
Y1018310D01*
X803120D01*
Y1019710D01*
X803120D01*
Y1031010D01*
X803120Y1031010D01*
Y1032410D01*
X803120D01*
X803120Y1034010D01*
Y1043710D01*
X777320D01*
Y1039259D01*
X765725Y1027665D01*
X764676Y1026094D01*
X764307Y1024240D01*
Y1014013D01*
X754142Y1003848D01*
X751370Y1004996D01*
Y1026630D01*
X684143D01*
Y1028850D01*
X683774Y1030704D01*
X682725Y1032275D01*
X676055Y1038945D01*
X674483Y1039995D01*
X672630Y1040363D01*
X672630Y1040363D01*
X565950D01*
X564097Y1039995D01*
X562525Y1038945D01*
X562525Y1038945D01*
X553784Y1030203D01*
X547765D01*
X545839Y1033203D01*
X545934Y1033432D01*
X546209Y1035520D01*
X545934Y1037608D01*
X545128Y1039555D01*
X543846Y1041226D01*
X542174Y1042508D01*
X540228Y1043314D01*
X538140Y1043589D01*
X536052Y1043314D01*
X534105Y1042508D01*
X532434Y1041226D01*
X532309Y1041063D01*
X520930D01*
X519077Y1040694D01*
X517505Y1039645D01*
X495601Y1017740D01*
X483480D01*
X483447Y1017707D01*
X482198Y1018541D01*
X480725Y1018834D01*
X476171D01*
X474110Y1020980D01*
X474110Y1021834D01*
Y1029980D01*
X466110D01*
Y1020461D01*
X466862Y1017980D01*
X466453Y1017707D01*
X466418Y1017654D01*
X463880Y1016540D01*
X463880Y1016540D01*
X459880D01*
Y1010040D01*
X453880D01*
Y1016540D01*
X448306D01*
X445986Y1018969D01*
X446110Y1020980D01*
X446110D01*
Y1044980D01*
X446110D01*
X445041Y1047980D01*
X460778Y1063717D01*
X463550Y1062569D01*
Y1062510D01*
X473550D01*
Y1067510D01*
X468491D01*
X467343Y1070282D01*
X471502Y1074441D01*
X528050D01*
Y1063010D01*
X554050D01*
Y1074441D01*
X559260D01*
Y1073670D01*
X563643D01*
Y1066089D01*
X562772Y1064955D01*
X561966Y1063008D01*
X561691Y1060920D01*
X561966Y1058832D01*
X562772Y1056886D01*
X564054Y1055214D01*
X565726Y1053932D01*
X567672Y1053126D01*
X569760Y1052851D01*
X571848Y1053126D01*
X573795Y1053932D01*
X575466Y1055214D01*
X576748Y1056886D01*
X577554Y1058832D01*
X577829Y1060920D01*
X577554Y1063008D01*
X576748Y1064955D01*
X575877Y1066089D01*
Y1073670D01*
X580260D01*
Y1081477D01*
X650327D01*
X651323Y1080179D01*
X652159Y1078477D01*
X651887Y1077110D01*
Y1076081D01*
X649766Y1073960D01*
X647230Y1073960D01*
X644230Y1073960D01*
X640730D01*
Y1052960D01*
X644230D01*
X647230Y1052960D01*
X650230Y1052960D01*
X666230D01*
Y1052960D01*
X668870D01*
Y1052960D01*
X684870D01*
X687870Y1052960D01*
X690870Y1052960D01*
X694370D01*
Y1063460D01*
X697370D01*
Y1066460D01*
X706870D01*
Y1073960D01*
X697670D01*
X695440Y1075820D01*
X695440Y1076960D01*
Y1096820D01*
X690783D01*
Y1102490D01*
X695440D01*
Y1116641D01*
X707377Y1128578D01*
X710377Y1127335D01*
Y1051350D01*
X710746Y1049497D01*
X711795Y1047926D01*
X718043Y1041678D01*
X717901Y1040600D01*
X718176Y1038512D01*
X718982Y1036566D01*
X720264Y1034894D01*
X721936Y1033612D01*
X723882Y1032806D01*
X725970Y1032531D01*
X728058Y1032806D01*
X730005Y1033612D01*
X731676Y1034894D01*
X731768Y1035015D01*
X735412D01*
X735504Y1034894D01*
X737176Y1033612D01*
X739122Y1032806D01*
X741210Y1032531D01*
X743298Y1032806D01*
X745245Y1033612D01*
X746916Y1034894D01*
X748198Y1036566D01*
X749004Y1038512D01*
X749279Y1040600D01*
X749004Y1042689D01*
X748198Y1044635D01*
X746916Y1046306D01*
X745245Y1047588D01*
X743298Y1048394D01*
X741210Y1048669D01*
X740132Y1048527D01*
X734063Y1054596D01*
Y1200662D01*
X735345Y1201714D01*
X737095D01*
X738607Y1202015D01*
X739720Y1202759D01*
X740833Y1202015D01*
X742345Y1201714D01*
X744095D01*
X745607Y1202015D01*
X746720Y1202759D01*
X747833Y1202015D01*
X749345Y1201714D01*
X751095D01*
X752607Y1202015D01*
X753720Y1202759D01*
X754833Y1202015D01*
X756345Y1201714D01*
X758095D01*
X759607Y1202015D01*
X760720Y1202759D01*
X761833Y1202015D01*
X763345Y1201714D01*
X765095D01*
X766377Y1200662D01*
Y1194536D01*
X747945Y1176105D01*
X746896Y1174533D01*
X746527Y1172680D01*
Y1170090D01*
X740870D01*
Y1154090D01*
X740870Y1151090D01*
X740870Y1148090D01*
Y1144590D01*
X761870D01*
Y1148090D01*
X761870Y1151090D01*
X761870Y1154090D01*
Y1170090D01*
X759872D01*
X758629Y1173090D01*
X770605Y1185066D01*
X773377Y1183918D01*
Y1170090D01*
X767540D01*
Y1154090D01*
X767540Y1151090D01*
X767540Y1148090D01*
Y1144590D01*
X788540D01*
Y1148090D01*
X788540Y1151090D01*
X788540Y1154090D01*
Y1170090D01*
X783063D01*
Y1183558D01*
X785835Y1184706D01*
X797451Y1173090D01*
X796208Y1170090D01*
X792940D01*
Y1154090D01*
X792940Y1151090D01*
X792940Y1148090D01*
Y1144590D01*
X813940D01*
Y1148090D01*
X813940Y1151090D01*
X813940Y1154090D01*
Y1170090D01*
X808283D01*
Y1173950D01*
X807914Y1175804D01*
X806865Y1177375D01*
X790063Y1194176D01*
Y1200662D01*
X791345Y1201714D01*
X793095D01*
X794607Y1202015D01*
X795720Y1202759D01*
X796833Y1202015D01*
X798345Y1201714D01*
X800095D01*
X801607Y1202015D01*
X802889Y1202871D01*
X803745Y1204153D01*
X804046Y1205665D01*
Y1248915D01*
X803745Y1250427D01*
X802889Y1251709D01*
X801607Y1252565D01*
X800095Y1252866D01*
D02*
G37*
G36*
X442980Y1248650D02*
X441980D01*
Y1244590D01*
X449314D01*
X449095Y1245120D01*
X447972Y1246582D01*
X446510Y1247704D01*
X444807Y1248410D01*
X442980Y1248650D01*
D02*
G37*
G36*
X435980D02*
X434980D01*
X433153Y1248410D01*
X431450Y1247704D01*
X429988Y1246582D01*
X428866Y1245120D01*
X428646Y1244590D01*
X435980D01*
Y1248650D01*
D02*
G37*
G36*
X486030Y1249911D02*
X483780D01*
Y1244590D01*
X493717D01*
X493236Y1245751D01*
X491914Y1247474D01*
X490191Y1248796D01*
X488184Y1249628D01*
X486030Y1249911D01*
D02*
G37*
G36*
X477780D02*
X475530D01*
X473376Y1249628D01*
X471369Y1248796D01*
X469646Y1247474D01*
X468324Y1245751D01*
X467843Y1244590D01*
X477780D01*
Y1249911D01*
D02*
G37*
G36*
X449314Y1238590D02*
X441980D01*
Y1234530D01*
X442980D01*
X444807Y1234770D01*
X446510Y1235476D01*
X447972Y1236598D01*
X449095Y1238060D01*
X449314Y1238590D01*
D02*
G37*
G36*
X435980D02*
X428646D01*
X428866Y1238060D01*
X429988Y1236598D01*
X431450Y1235476D01*
X433153Y1234770D01*
X434980Y1234530D01*
X435980D01*
Y1238590D01*
D02*
G37*
G36*
X493717Y1238590D02*
X467843D01*
X468324Y1237430D01*
X469646Y1235706D01*
X470614Y1234963D01*
X471118Y1232544D01*
X470950Y1231310D01*
X469893Y1229729D01*
X469408Y1227290D01*
X469893Y1224851D01*
X471274Y1222784D01*
X473341Y1221403D01*
X475780Y1220918D01*
X478219Y1221403D01*
X480286Y1222784D01*
X481667Y1224851D01*
X482152Y1227290D01*
X481667Y1229729D01*
X481306Y1230269D01*
X482910Y1233269D01*
X486030D01*
X488184Y1233552D01*
X490191Y1234384D01*
X491914Y1235706D01*
X493236Y1237430D01*
X493717Y1238590D01*
D02*
G37*
G36*
X904230Y1211013D02*
Y1203620D01*
X911623D01*
X910620Y1206041D01*
X908897Y1208287D01*
X906651Y1210010D01*
X904230Y1211013D01*
D02*
G37*
G36*
X898230D02*
X895809Y1210010D01*
X893563Y1208287D01*
X891840Y1206041D01*
X890837Y1203620D01*
X898230D01*
Y1211013D01*
D02*
G37*
G36*
X523110Y1247760D02*
X502110D01*
Y1244260D01*
X502110Y1241260D01*
X502110Y1238260D01*
Y1222260D01*
X507767D01*
Y1217148D01*
X506904Y1216486D01*
X505622Y1214815D01*
X504816Y1212868D01*
X504541Y1210780D01*
X504816Y1208692D01*
X505622Y1206746D01*
X506904Y1205074D01*
X508576Y1203792D01*
X510522Y1202986D01*
X512610Y1202711D01*
X514698Y1202986D01*
X516645Y1203792D01*
X518316Y1205074D01*
X519598Y1206746D01*
X520404Y1208692D01*
X520679Y1210780D01*
X520404Y1212868D01*
X519598Y1214815D01*
X518316Y1216486D01*
X517453Y1217148D01*
Y1222260D01*
X523110D01*
Y1238260D01*
X523110Y1241260D01*
X523110Y1244260D01*
Y1247760D01*
D02*
G37*
G36*
X911623Y1197620D02*
X904230D01*
Y1190227D01*
X906651Y1191230D01*
X908897Y1192953D01*
X910620Y1195199D01*
X911623Y1197620D01*
D02*
G37*
G36*
X898230D02*
X890837D01*
X891840Y1195199D01*
X893563Y1192953D01*
X895809Y1191230D01*
X898230Y1190227D01*
Y1197620D01*
D02*
G37*
G36*
X962780Y1211370D02*
X941280D01*
Y1189870D01*
X946167D01*
Y1176520D01*
X946280Y1175954D01*
Y1168270D01*
X957780D01*
Y1175954D01*
X957893Y1176520D01*
Y1189870D01*
X962780D01*
Y1211370D01*
D02*
G37*
G36*
X442980Y1162251D02*
X441980D01*
Y1158190D01*
X449314D01*
X449095Y1158720D01*
X447972Y1160182D01*
X446510Y1161304D01*
X444807Y1162010D01*
X442980Y1162251D01*
D02*
G37*
G36*
X435980D02*
X434980D01*
X433153Y1162010D01*
X431450Y1161304D01*
X429988Y1160182D01*
X428866Y1158720D01*
X428646Y1158190D01*
X435980D01*
Y1162251D01*
D02*
G37*
G36*
X475780Y1175863D02*
X473341Y1175378D01*
X471274Y1173996D01*
X469893Y1171929D01*
X469408Y1169490D01*
X469893Y1167051D01*
X470950Y1165470D01*
X471118Y1164236D01*
X470614Y1161817D01*
X469646Y1161074D01*
X468324Y1159351D01*
X467843Y1158190D01*
X493717D01*
X493236Y1159351D01*
X491914Y1161074D01*
X490191Y1162396D01*
X488184Y1163228D01*
X486030Y1163511D01*
X482910D01*
X481306Y1166511D01*
X481667Y1167051D01*
X482152Y1169490D01*
X481667Y1171929D01*
X480286Y1173996D01*
X478219Y1175378D01*
X475780Y1175863D01*
D02*
G37*
G36*
X512610Y1194719D02*
X510522Y1194444D01*
X508576Y1193638D01*
X506904Y1192356D01*
X505622Y1190685D01*
X504816Y1188738D01*
X504541Y1186650D01*
X504816Y1184562D01*
X505622Y1182616D01*
X506904Y1180945D01*
X507767Y1180283D01*
Y1173900D01*
X502110D01*
Y1157900D01*
X502110Y1154900D01*
X502110Y1151900D01*
Y1148400D01*
X523110D01*
Y1151900D01*
X523110Y1154900D01*
X523110Y1157900D01*
Y1173900D01*
X517453D01*
Y1180283D01*
X518316Y1180945D01*
X519598Y1182616D01*
X520404Y1184562D01*
X520679Y1186650D01*
X520404Y1188738D01*
X519598Y1190685D01*
X518316Y1192356D01*
X516645Y1193638D01*
X514698Y1194444D01*
X512610Y1194719D01*
D02*
G37*
G36*
X449314Y1152190D02*
X441980D01*
Y1148130D01*
X442980D01*
X444807Y1148370D01*
X446510Y1149076D01*
X447972Y1150198D01*
X449095Y1151660D01*
X449314Y1152190D01*
D02*
G37*
G36*
X435980D02*
X428646D01*
X428866Y1151660D01*
X429988Y1150198D01*
X431450Y1149076D01*
X433153Y1148370D01*
X434980Y1148130D01*
X435980D01*
Y1152190D01*
D02*
G37*
G36*
X493717Y1152190D02*
X467843D01*
X468324Y1151030D01*
X469646Y1149306D01*
X471369Y1147984D01*
X473376Y1147152D01*
X475530Y1146869D01*
X478430D01*
X479188Y1143869D01*
X478772Y1143644D01*
X478677Y1143605D01*
X478438Y1143506D01*
X476825Y1142838D01*
X475154Y1141556D01*
X473872Y1139885D01*
X473443Y1138850D01*
X488276D01*
X487848Y1139885D01*
X486566Y1141556D01*
X484894Y1142838D01*
X483282Y1143506D01*
X483043Y1143605D01*
X482948Y1143644D01*
X482532Y1143869D01*
X483290Y1146869D01*
X486030D01*
X488184Y1147152D01*
X490191Y1147984D01*
X491914Y1149306D01*
X493236Y1151030D01*
X493717Y1152190D01*
D02*
G37*
G36*
X523110Y1142400D02*
X515610D01*
Y1135900D01*
X523110D01*
Y1142400D01*
D02*
G37*
G36*
X509610D02*
X502110D01*
Y1135900D01*
X509610D01*
Y1142400D01*
D02*
G37*
G36*
X788540Y1138590D02*
X781040D01*
Y1132090D01*
X788540D01*
Y1138590D01*
D02*
G37*
G36*
X775040D02*
X767540D01*
Y1132090D01*
X775040D01*
Y1138590D01*
D02*
G37*
G36*
X813940D02*
X806440D01*
Y1132090D01*
X813940D01*
Y1138590D01*
D02*
G37*
G36*
X800440D02*
X792940D01*
Y1132090D01*
X800440D01*
Y1138590D01*
D02*
G37*
G36*
X761870D02*
X754370D01*
Y1132090D01*
X761870D01*
Y1138590D01*
D02*
G37*
G36*
X748370D02*
X740870D01*
Y1132090D01*
X748370D01*
Y1138590D01*
D02*
G37*
G36*
X433410Y1138960D02*
X425410D01*
Y1129960D01*
X433410D01*
Y1138960D01*
D02*
G37*
G36*
X419410D02*
X411410D01*
Y1129960D01*
X419410D01*
Y1138960D01*
D02*
G37*
G36*
X488276Y1132850D02*
X483860D01*
Y1128434D01*
X484894Y1128862D01*
X486566Y1130145D01*
X487848Y1131816D01*
X488276Y1132850D01*
D02*
G37*
G36*
X477860D02*
X473443D01*
X473872Y1131816D01*
X475154Y1130145D01*
X476825Y1128862D01*
X477860Y1128434D01*
Y1132850D01*
D02*
G37*
G36*
X548170Y1185829D02*
X546082Y1185554D01*
X544136Y1184748D01*
X542464Y1183466D01*
X541182Y1181795D01*
X540376Y1179848D01*
X540101Y1177760D01*
X540376Y1175672D01*
X541182Y1173726D01*
X542052Y1172591D01*
Y1142194D01*
X511486Y1111628D01*
X489550D01*
Y1113510D01*
X477074D01*
X476550Y1113579D01*
X463838D01*
X461410Y1114960D01*
Y1138960D01*
X439410D01*
Y1117625D01*
X439410Y1115870D01*
X437597Y1115870D01*
X433410D01*
Y1123960D01*
X411410D01*
Y1114960D01*
X421220D01*
Y1108370D01*
X430720D01*
Y1105370D01*
X433720D01*
Y1094870D01*
X437220D01*
X440220Y1094870D01*
Y1094870D01*
X440220D01*
Y1094870D01*
X459220D01*
Y1097441D01*
X476550D01*
X477074Y1097510D01*
X489550D01*
Y1099393D01*
X514020D01*
X516361Y1099858D01*
X518346Y1101184D01*
X552496Y1135334D01*
X553822Y1137319D01*
X554287Y1139660D01*
Y1172591D01*
X555158Y1173726D01*
X555964Y1175672D01*
X556239Y1177760D01*
X555964Y1179848D01*
X555158Y1181795D01*
X553876Y1183466D01*
X552205Y1184748D01*
X550258Y1185554D01*
X548170Y1185829D01*
D02*
G37*
G36*
X957780Y1156770D02*
X946280D01*
Y1140270D01*
X946422D01*
Y1136354D01*
X920286Y1110218D01*
X901319D01*
X900184Y1111088D01*
X898238Y1111894D01*
X896150Y1112169D01*
X894062Y1111894D01*
X892115Y1111088D01*
X890444Y1109806D01*
X889162Y1108135D01*
X888356Y1106189D01*
X888081Y1104100D01*
X888356Y1102012D01*
X889162Y1100066D01*
X890444Y1098394D01*
X892115Y1097112D01*
X894062Y1096306D01*
X896150Y1096031D01*
X898238Y1096306D01*
X900184Y1097112D01*
X901319Y1097983D01*
X922820D01*
X925161Y1098448D01*
X927146Y1099774D01*
X956356Y1128984D01*
X957682Y1130969D01*
X958148Y1133310D01*
X957682Y1135651D01*
X957638Y1135717D01*
Y1140270D01*
X957780D01*
Y1156770D01*
D02*
G37*
G36*
X580260Y1111670D02*
X572760D01*
Y1105170D01*
X580260D01*
Y1111670D01*
D02*
G37*
G36*
X566760D02*
X559260D01*
Y1105170D01*
X566760D01*
Y1111670D01*
D02*
G37*
G36*
X602320Y1105167D02*
X601286Y1104738D01*
X599614Y1103456D01*
X598332Y1101785D01*
X597904Y1100750D01*
X602320D01*
Y1105167D01*
D02*
G37*
G36*
X427720Y1102370D02*
X421220D01*
Y1094870D01*
X427720D01*
Y1102370D01*
D02*
G37*
G36*
X634730Y1073960D02*
X628230D01*
Y1066460D01*
X634730D01*
Y1073960D01*
D02*
G37*
G36*
X850430Y1211463D02*
X847624Y1211093D01*
X845009Y1210010D01*
X842763Y1208287D01*
X841040Y1206041D01*
X839957Y1203426D01*
X839587Y1200620D01*
X839957Y1197814D01*
X841040Y1195199D01*
X842763Y1192953D01*
X845009Y1191230D01*
X845587Y1190991D01*
Y1154366D01*
X757528Y1066307D01*
X756450Y1066449D01*
X754362Y1066174D01*
X752415Y1065368D01*
X750744Y1064086D01*
X749462Y1062415D01*
X748656Y1060469D01*
X748381Y1058380D01*
X748656Y1056292D01*
X749462Y1054346D01*
X750744Y1052674D01*
X752415Y1051392D01*
X754362Y1050586D01*
X756450Y1050311D01*
X758538Y1050586D01*
X760484Y1051392D01*
X762156Y1052674D01*
X763438Y1054346D01*
X764244Y1056292D01*
X764519Y1058380D01*
X764377Y1059458D01*
X853855Y1148935D01*
X854904Y1150507D01*
X855273Y1152360D01*
Y1190991D01*
X855851Y1191230D01*
X858097Y1192953D01*
X859820Y1195199D01*
X860903Y1197814D01*
X861273Y1200620D01*
X860903Y1203426D01*
X859820Y1206041D01*
X858097Y1208287D01*
X855851Y1210010D01*
X853236Y1211093D01*
X850430Y1211463D01*
D02*
G37*
G36*
X489550Y1067510D02*
X479550D01*
Y1062510D01*
X489550D01*
Y1067510D01*
D02*
G37*
G36*
X706870Y1060460D02*
X700370D01*
Y1052960D01*
X706870D01*
Y1060460D01*
D02*
G37*
G36*
X634730D02*
X628230D01*
Y1052960D01*
X634730D01*
Y1060460D01*
D02*
G37*
G36*
X489550Y1056510D02*
X479550D01*
Y1051510D01*
X489550D01*
Y1056510D01*
D02*
G37*
G36*
X473550D02*
X463550D01*
Y1051510D01*
X473550D01*
Y1056510D01*
D02*
G37*
G36*
X852420Y1043710D02*
X842520D01*
Y1041060D01*
X852420D01*
Y1043710D01*
D02*
G37*
G36*
X474110Y1044980D02*
X466110D01*
Y1035980D01*
X474110D01*
Y1044980D01*
D02*
G37*
G36*
X460110D02*
X452110D01*
Y1035980D01*
X460110D01*
Y1044980D01*
D02*
G37*
G36*
Y1029980D02*
X452110D01*
Y1020980D01*
X460110D01*
Y1029980D01*
D02*
G37*
G36*
X613750Y1009660D02*
X605750D01*
Y1000660D01*
X613750D01*
Y1009660D01*
D02*
G37*
G36*
X599750D02*
X591750D01*
Y1000660D01*
X599750D01*
Y1009660D01*
D02*
G37*
G36*
X925155Y1001198D02*
X923280D01*
Y991380D01*
X933098D01*
Y993255D01*
X932827Y995311D01*
X932034Y997227D01*
X930771Y998872D01*
X929127Y1000134D01*
X927211Y1000927D01*
X925155Y1001198D01*
D02*
G37*
G36*
X917280D02*
X915405D01*
X913349Y1000927D01*
X911433Y1000134D01*
X909789Y998872D01*
X908526Y997227D01*
X907733Y995311D01*
X907462Y993255D01*
Y991380D01*
X917280D01*
Y1001198D01*
D02*
G37*
G36*
X598510Y992910D02*
X590510D01*
Y983910D01*
X598510D01*
Y992910D01*
D02*
G37*
G36*
X584510D02*
X576510D01*
Y983910D01*
X584510D01*
Y992910D01*
D02*
G37*
G36*
X883050Y987830D02*
X875050D01*
Y978830D01*
X883050D01*
Y987830D01*
D02*
G37*
G36*
X869050D02*
X861050D01*
Y978830D01*
X869050D01*
Y987830D01*
D02*
G37*
G36*
X933098Y985380D02*
X923280D01*
Y975562D01*
X925155D01*
X927211Y975833D01*
X929127Y976626D01*
X930771Y977889D01*
X932034Y979534D01*
X932827Y981449D01*
X933098Y983505D01*
Y985380D01*
D02*
G37*
G36*
X917280D02*
X907462D01*
Y983505D01*
X907733Y981449D01*
X908526Y979534D01*
X909789Y977889D01*
X911433Y976626D01*
X913349Y975833D01*
X915405Y975562D01*
X917280D01*
Y985380D01*
D02*
G37*
G36*
X883050Y972830D02*
X875050D01*
Y963830D01*
X883050D01*
Y972830D01*
D02*
G37*
G36*
X869050D02*
X861050D01*
Y963830D01*
X869050D01*
Y972830D01*
D02*
G37*
G36*
X562710Y957650D02*
X553710D01*
Y949650D01*
X562710D01*
Y957650D01*
D02*
G37*
G36*
Y943650D02*
X553710D01*
Y935650D01*
X562710D01*
Y943650D01*
D02*
G37*
G36*
X447380Y939810D02*
X438380D01*
Y931810D01*
X447380D01*
Y939810D01*
D02*
G37*
G36*
Y925810D02*
X438380D01*
Y917810D01*
X447380D01*
Y925810D01*
D02*
G37*
G36*
X940020Y845342D02*
Y838220D01*
X947142D01*
X946192Y840515D01*
X944509Y842709D01*
X942315Y844392D01*
X940020Y845342D01*
D02*
G37*
G36*
X934020Y845343D02*
X931725Y844392D01*
X929531Y842709D01*
X927848Y840515D01*
X926898Y838220D01*
X934020D01*
Y845343D01*
D02*
G37*
G36*
X680440Y845342D02*
Y838220D01*
X687562D01*
X686612Y840515D01*
X684929Y842709D01*
X682735Y844392D01*
X680440Y845342D01*
D02*
G37*
G36*
X674440Y845343D02*
X672145Y844392D01*
X669951Y842709D01*
X668268Y840515D01*
X667318Y838220D01*
X674440D01*
Y845343D01*
D02*
G37*
G36*
X875020Y845343D02*
Y838220D01*
X882142D01*
X881192Y840515D01*
X879509Y842709D01*
X877315Y844392D01*
X875020Y845343D01*
D02*
G37*
G36*
X869020D02*
X866725Y844392D01*
X864531Y842709D01*
X862848Y840515D01*
X861898Y838220D01*
X869020D01*
Y845343D01*
D02*
G37*
G36*
X745230D02*
Y838220D01*
X752353D01*
X751402Y840515D01*
X749719Y842709D01*
X747525Y844392D01*
X745230Y845343D01*
D02*
G37*
G36*
X739230D02*
X736935Y844392D01*
X734741Y842709D01*
X733058Y840515D01*
X732108Y838220D01*
X739230D01*
Y845343D01*
D02*
G37*
G36*
X615440D02*
Y838220D01*
X622562D01*
X621612Y840515D01*
X619929Y842709D01*
X617735Y844392D01*
X615440Y845343D01*
D02*
G37*
G36*
X609440D02*
X607145Y844392D01*
X604951Y842709D01*
X603268Y840515D01*
X602318Y838220D01*
X609440D01*
Y845343D01*
D02*
G37*
G36*
X810230D02*
Y838220D01*
X817353D01*
X816402Y840515D01*
X814719Y842709D01*
X812525Y844392D01*
X810230Y845343D01*
D02*
G37*
G36*
X804230D02*
X801935Y844392D01*
X799741Y842709D01*
X798058Y840515D01*
X797107Y838220D01*
X804230D01*
Y845343D01*
D02*
G37*
G36*
X550650D02*
Y838220D01*
X557772D01*
X556822Y840515D01*
X555139Y842709D01*
X552945Y844392D01*
X550650Y845343D01*
D02*
G37*
G36*
X544650D02*
X542355Y844392D01*
X540161Y842709D01*
X538478Y840515D01*
X537528Y838220D01*
X544650D01*
Y845343D01*
D02*
G37*
G36*
X485650D02*
Y838220D01*
X492772D01*
X491822Y840515D01*
X490139Y842709D01*
X487945Y844392D01*
X485650Y845343D01*
D02*
G37*
G36*
X479650D02*
X477355Y844392D01*
X475161Y842709D01*
X473478Y840515D01*
X472528Y838220D01*
X479650D01*
Y845343D01*
D02*
G37*
G36*
X947142Y832220D02*
X940020D01*
Y825098D01*
X942315Y826048D01*
X944509Y827731D01*
X946192Y829925D01*
X947142Y832220D01*
D02*
G37*
G36*
X687562D02*
X680440D01*
Y825098D01*
X682735Y826048D01*
X684929Y827731D01*
X686612Y829925D01*
X687562Y832220D01*
D02*
G37*
G36*
X882142Y832220D02*
X875020D01*
Y825098D01*
X877315Y826048D01*
X879509Y827731D01*
X881192Y829925D01*
X882142Y832220D01*
D02*
G37*
G36*
X869020D02*
X861898D01*
X862848Y829925D01*
X864531Y827731D01*
X866725Y826048D01*
X869020Y825098D01*
Y832220D01*
D02*
G37*
G36*
X817352Y832220D02*
X810230D01*
Y825098D01*
X812525Y826048D01*
X814719Y827731D01*
X816402Y829925D01*
X817352Y832220D01*
D02*
G37*
G36*
X804230D02*
X797108D01*
X798058Y829925D01*
X799741Y827731D01*
X801935Y826048D01*
X804230Y825098D01*
Y832220D01*
D02*
G37*
G36*
X752353Y832220D02*
X745230D01*
Y825098D01*
X747525Y826048D01*
X749719Y827731D01*
X751402Y829925D01*
X752353Y832220D01*
D02*
G37*
G36*
X739230D02*
X732108D01*
X733058Y829925D01*
X734741Y827731D01*
X736935Y826048D01*
X739230Y825098D01*
Y832220D01*
D02*
G37*
G36*
X622562D02*
X615440D01*
Y825098D01*
X617735Y826048D01*
X619929Y827731D01*
X621612Y829925D01*
X622562Y832220D01*
D02*
G37*
G36*
X609440D02*
X602318D01*
X603268Y829925D01*
X604951Y827731D01*
X607145Y826048D01*
X609440Y825098D01*
Y832220D01*
D02*
G37*
G36*
X557772Y832220D02*
X550650D01*
Y825098D01*
X552945Y826048D01*
X555139Y827731D01*
X556822Y829925D01*
X557772Y832220D01*
D02*
G37*
G36*
X544650D02*
X537528D01*
X538478Y829925D01*
X540161Y827731D01*
X542355Y826048D01*
X544650Y825098D01*
Y832220D01*
D02*
G37*
G36*
X492772Y832220D02*
X485650D01*
Y825098D01*
X487945Y826048D01*
X490139Y827731D01*
X491822Y829925D01*
X492772Y832220D01*
D02*
G37*
G36*
X479650D02*
X472528D01*
X473478Y829925D01*
X475161Y827731D01*
X477355Y826048D01*
X479650Y825098D01*
Y832220D01*
D02*
G37*
G36*
X934020Y832220D02*
X926898D01*
X927848Y829925D01*
X929531Y827731D01*
X931725Y826048D01*
X934020Y825098D01*
Y832220D01*
D02*
G37*
G36*
X674440D02*
X667318D01*
X668268Y829925D01*
X669951Y827731D01*
X672145Y826048D01*
X674440Y825098D01*
Y832220D01*
D02*
G37*
%LPD*%
G36*
X802407Y975296D02*
X789054Y961943D01*
X751370D01*
Y969761D01*
X752425Y970465D01*
X774891Y992932D01*
X777320Y994310D01*
X802407D01*
Y975296D01*
D02*
G37*
%LPC*%
G36*
X1134570Y719886D02*
Y715470D01*
X1138987D01*
X1138558Y716505D01*
X1137276Y718176D01*
X1135604Y719458D01*
X1134570Y719886D01*
D02*
G37*
G36*
X1128570D02*
X1127535Y719458D01*
X1125864Y718176D01*
X1124582Y716505D01*
X1124154Y715470D01*
X1128570D01*
Y719886D01*
D02*
G37*
G36*
X1138987Y709470D02*
X1134570D01*
Y705054D01*
X1135604Y705482D01*
X1137276Y706764D01*
X1138558Y708436D01*
X1138987Y709470D01*
D02*
G37*
G36*
X1128570D02*
X1124154D01*
X1124582Y708436D01*
X1125864Y706764D01*
X1127535Y705482D01*
X1128570Y705054D01*
Y709470D01*
D02*
G37*
G36*
X1173820Y709880D02*
X1166320D01*
Y703380D01*
X1173820D01*
Y709880D01*
D02*
G37*
G36*
X1160320D02*
X1152820D01*
Y703380D01*
X1160320D01*
Y709880D01*
D02*
G37*
G36*
X1450805Y702486D02*
X1449055D01*
X1447543Y702185D01*
X1446430Y701441D01*
X1445317Y702185D01*
X1443805Y702486D01*
X1442055D01*
X1440543Y702185D01*
X1439430Y701441D01*
X1438317Y702185D01*
X1436805Y702486D01*
X1435055D01*
X1433543Y702185D01*
X1432430Y701441D01*
X1431317Y702185D01*
X1429805Y702486D01*
X1428055D01*
X1426543Y702185D01*
X1425430Y701441D01*
X1424317Y702185D01*
X1422805Y702486D01*
X1421055D01*
X1419543Y702185D01*
X1418430Y701441D01*
X1417317Y702185D01*
X1415805Y702486D01*
X1414055D01*
X1412543Y702185D01*
X1411430Y701441D01*
X1410317Y702185D01*
X1408805Y702486D01*
X1407055D01*
X1405543Y702185D01*
X1404430Y701441D01*
X1403317Y702185D01*
X1401805Y702486D01*
X1400055D01*
X1398543Y702185D01*
X1397430Y701441D01*
X1396317Y702185D01*
X1394805Y702486D01*
X1393055D01*
X1391543Y702185D01*
X1390430Y701441D01*
X1389317Y702185D01*
X1387805Y702486D01*
X1386055D01*
X1384543Y702185D01*
X1383430Y701441D01*
X1382317Y702185D01*
X1380805Y702486D01*
X1379055D01*
X1377543Y702185D01*
X1376430Y701441D01*
X1375317Y702185D01*
X1373805Y702486D01*
X1372055D01*
X1370543Y702185D01*
X1369430Y701441D01*
X1368317Y702185D01*
X1366805Y702486D01*
X1365055D01*
X1363543Y702185D01*
X1362430Y701441D01*
X1361317Y702185D01*
X1359805Y702486D01*
X1358055D01*
X1356543Y702185D01*
X1355430Y701441D01*
X1354317Y702185D01*
X1352805Y702486D01*
X1351055D01*
X1349543Y702185D01*
X1348430Y701441D01*
X1347317Y702185D01*
X1345805Y702486D01*
X1344055D01*
X1342543Y702185D01*
X1341430Y701441D01*
X1340317Y702185D01*
X1338805Y702486D01*
X1337055D01*
X1335543Y702185D01*
X1334430Y701441D01*
X1333317Y702185D01*
X1331805Y702486D01*
X1330055D01*
X1328543Y702185D01*
X1327430Y701441D01*
X1326317Y702185D01*
X1324805Y702486D01*
X1323055D01*
X1321543Y702185D01*
X1320430Y701441D01*
X1319317Y702185D01*
X1317805Y702486D01*
X1316055D01*
X1314543Y702185D01*
X1313430Y701441D01*
X1312317Y702185D01*
X1310805Y702486D01*
X1309055D01*
X1307543Y702185D01*
X1306430Y701441D01*
X1305317Y702185D01*
X1303805Y702486D01*
X1302055D01*
X1300543Y702185D01*
X1299430Y701441D01*
X1298317Y702185D01*
X1296805Y702486D01*
X1295055D01*
X1293543Y702185D01*
X1292430Y701441D01*
X1291317Y702185D01*
X1289805Y702486D01*
X1288055D01*
X1286543Y702185D01*
X1285430Y701441D01*
X1284317Y702185D01*
X1282805Y702486D01*
X1281055D01*
X1279543Y702185D01*
X1278430Y701441D01*
X1277317Y702185D01*
X1275805Y702486D01*
X1274055D01*
X1272543Y702185D01*
X1271430Y701441D01*
X1270317Y702185D01*
X1268805Y702486D01*
X1267055D01*
X1265543Y702185D01*
X1264430Y701441D01*
X1263317Y702185D01*
X1261805Y702486D01*
X1260055D01*
X1258543Y702185D01*
X1257430Y701441D01*
X1256317Y702185D01*
X1254805Y702486D01*
X1253055D01*
X1251543Y702185D01*
X1250430Y701441D01*
X1249317Y702185D01*
X1247805Y702486D01*
X1246055D01*
X1244543Y702185D01*
X1243261Y701329D01*
X1242405Y700047D01*
X1242104Y698535D01*
Y655285D01*
X1242405Y653773D01*
X1243261Y652491D01*
X1242981Y649120D01*
X1242445Y648585D01*
X1241396Y647013D01*
X1241027Y645160D01*
Y581660D01*
X1241396Y579807D01*
X1242445Y578236D01*
X1260835Y559846D01*
X1262407Y558796D01*
X1264260Y558427D01*
X1264580Y558107D01*
X1264580Y554297D01*
X1263000Y553312D01*
X1262246Y553138D01*
X1261736Y553076D01*
X1260064Y554358D01*
X1259030Y554786D01*
Y547370D01*
X1256030D01*
Y544370D01*
X1248614D01*
X1248857Y543783D01*
X1248235Y542206D01*
X1247219Y540783D01*
X1233346D01*
X1230970Y542290D01*
X1230970Y545290D01*
Y548790D01*
X1209970D01*
Y545290D01*
X1209970Y542290D01*
X1207836Y540199D01*
X1204760D01*
Y551630D01*
X1178760D01*
Y540199D01*
X1118870D01*
X1118346Y540130D01*
X1114260D01*
Y538676D01*
X1113164Y537836D01*
X1080981Y505652D01*
X1079699Y503981D01*
X1078893Y502035D01*
X1078618Y499947D01*
Y494600D01*
X1074820D01*
Y488718D01*
X1071880D01*
X1069539Y488252D01*
X1067554Y486926D01*
X1048504Y467876D01*
X1047178Y465891D01*
X1046712Y463550D01*
Y425450D01*
X1047178Y423109D01*
X1048504Y421124D01*
X1063134Y406494D01*
X1065119Y405168D01*
X1067460Y404702D01*
X1089090D01*
Y395430D01*
X1113090D01*
Y396325D01*
X1116036Y396455D01*
X1116329Y394982D01*
X1117163Y393733D01*
Y391127D01*
X1116329Y389878D01*
X1116036Y388405D01*
X1113090Y388535D01*
Y389430D01*
X1104090D01*
Y378430D01*
Y367430D01*
X1113090D01*
Y370925D01*
X1116036Y371055D01*
X1116329Y369582D01*
X1117163Y368333D01*
X1118412Y367499D01*
X1119885Y367206D01*
X1122660D01*
Y373380D01*
X1128660D01*
Y367206D01*
X1131435D01*
X1132908Y367499D01*
X1134157Y368333D01*
X1170615D01*
X1171211Y365333D01*
X1170715Y365128D01*
X1169044Y363846D01*
X1167762Y362175D01*
X1166956Y360229D01*
X1166681Y358140D01*
X1166956Y356052D01*
X1167762Y354105D01*
X1169044Y352434D01*
X1170715Y351152D01*
X1172662Y350346D01*
X1174750Y350071D01*
X1176838Y350346D01*
X1178784Y351152D01*
X1180456Y352434D01*
X1180727Y352788D01*
X1186555D01*
X1188896Y353254D01*
X1190881Y354580D01*
X1193571Y357270D01*
X1213420D01*
Y379270D01*
X1201954D01*
X1200810Y379498D01*
X1191739D01*
X1190051Y382187D01*
X1190041Y382371D01*
X1190172Y383192D01*
X1190284Y383755D01*
Y383893D01*
X1190504Y385270D01*
X1198420D01*
Y396270D01*
Y407270D01*
X1192968D01*
X1190284Y409155D01*
Y413805D01*
X1189991Y415278D01*
X1189157Y416527D01*
Y419133D01*
X1189991Y420382D01*
X1190284Y421855D01*
Y426505D01*
X1189991Y427978D01*
X1189157Y429227D01*
Y431833D01*
X1189991Y433082D01*
X1190284Y434555D01*
Y439205D01*
X1189991Y440678D01*
X1189157Y441927D01*
Y444534D01*
X1189991Y445782D01*
X1190284Y447255D01*
Y451905D01*
X1189991Y453378D01*
X1189157Y454627D01*
Y457234D01*
X1189991Y458482D01*
X1190284Y459955D01*
Y464605D01*
X1189991Y466078D01*
X1189283Y467137D01*
X1189503Y468143D01*
X1190350Y470137D01*
X1196529D01*
X1197545Y468714D01*
X1198167Y467137D01*
X1197546Y465639D01*
X1197271Y463550D01*
X1197546Y461462D01*
X1198352Y459515D01*
X1199634Y457844D01*
X1201305Y456562D01*
X1203252Y455756D01*
X1205340Y455481D01*
X1207428Y455756D01*
X1209374Y456562D01*
X1211046Y457844D01*
X1211861Y458907D01*
X1215590D01*
X1217443Y459276D01*
X1219015Y460326D01*
X1230096Y471407D01*
X1242460D01*
Y465280D01*
X1264460D01*
Y471407D01*
X1270460D01*
Y450280D01*
X1284041D01*
X1297940Y436381D01*
Y427563D01*
X1293786D01*
X1288636Y432713D01*
X1288352Y434141D01*
X1287026Y436126D01*
X1285041Y437452D01*
X1282700Y437918D01*
X1277220D01*
Y442530D01*
X1255220D01*
Y418530D01*
X1254697Y418163D01*
X1252220Y416900D01*
X1252220D01*
X1249743Y418163D01*
X1249220Y418530D01*
X1249220Y419900D01*
Y427530D01*
X1227220D01*
Y418530D01*
X1230895D01*
X1233220Y416900D01*
X1233220Y415530D01*
Y406289D01*
X1225935Y399005D01*
X1224886Y397433D01*
X1224517Y395580D01*
Y364490D01*
X1224886Y362637D01*
X1225935Y361065D01*
X1233555Y353446D01*
X1233799Y353283D01*
X1232888Y350283D01*
X1206340D01*
X1206340Y350283D01*
X1204487Y349914D01*
X1202915Y348865D01*
X1194936Y340885D01*
X1193921Y339366D01*
X1193065Y339012D01*
X1190871Y337329D01*
X1189188Y335135D01*
X1189001Y334683D01*
X1143860D01*
Y340340D01*
X1122860D01*
Y334683D01*
X1106510D01*
Y339040D01*
X1085510D01*
Y323040D01*
X1085510Y320040D01*
X1085510Y317040D01*
Y301040D01*
X1106510D01*
Y308033D01*
X1108803Y309018D01*
X1109510Y309135D01*
X1111025Y307972D01*
X1112972Y307166D01*
X1115060Y306891D01*
X1117148Y307166D01*
X1119094Y307972D01*
X1120766Y309254D01*
X1122048Y310926D01*
X1122854Y312872D01*
X1123129Y314960D01*
X1122947Y316340D01*
X1124118Y318309D01*
X1125152Y319340D01*
X1143860D01*
Y324997D01*
X1189001D01*
X1189188Y324545D01*
X1190871Y322351D01*
X1193065Y320668D01*
X1195619Y319610D01*
X1198360Y319249D01*
X1201101Y319610D01*
X1203655Y320668D01*
X1205849Y322351D01*
X1207532Y324545D01*
X1208240Y326255D01*
X1211240Y325658D01*
X1211240Y320040D01*
X1211240Y317040D01*
Y301040D01*
X1232240D01*
Y310117D01*
X1236962D01*
X1237624Y309254D01*
X1239296Y307972D01*
X1241242Y307166D01*
X1243330Y306891D01*
X1245418Y307166D01*
X1247365Y307972D01*
X1249036Y309254D01*
X1250318Y310926D01*
X1251124Y312872D01*
X1251399Y314960D01*
X1251135Y316968D01*
X1251385Y317286D01*
X1251468Y317392D01*
X1253422Y319340D01*
X1255011Y319340D01*
X1273650D01*
Y324997D01*
X1318791D01*
X1318978Y324545D01*
X1320661Y322351D01*
X1322855Y320668D01*
X1325409Y319610D01*
X1328150Y319249D01*
X1330891Y319610D01*
X1333445Y320668D01*
X1335639Y322351D01*
X1337322Y324545D01*
X1338380Y327099D01*
X1338741Y329840D01*
X1338380Y332581D01*
X1337322Y335135D01*
X1335639Y337329D01*
X1335591Y338052D01*
X1354395Y356856D01*
X1357167Y355708D01*
Y351826D01*
X1350395Y345055D01*
X1349346Y343483D01*
X1348977Y341630D01*
Y339040D01*
X1342050D01*
Y323040D01*
X1342050Y320040D01*
X1342050Y317040D01*
Y301040D01*
X1363050D01*
Y310117D01*
X1367772D01*
X1368434Y309254D01*
X1370105Y307972D01*
X1372052Y307166D01*
X1374140Y306891D01*
X1376228Y307166D01*
X1378174Y307972D01*
X1379846Y309254D01*
X1381128Y310926D01*
X1381934Y312872D01*
X1382209Y314960D01*
X1382003Y316521D01*
X1383065Y318176D01*
X1384232Y319340D01*
X1403440D01*
Y324997D01*
X1448581D01*
X1448768Y324545D01*
X1450451Y322351D01*
X1452645Y320668D01*
X1455199Y319610D01*
X1457940Y319249D01*
X1460681Y319610D01*
X1463235Y320668D01*
X1465429Y322351D01*
X1467112Y324545D01*
X1468170Y327099D01*
X1468531Y329840D01*
X1468170Y332581D01*
X1467112Y335135D01*
X1465429Y337329D01*
X1463235Y339012D01*
X1460681Y340070D01*
X1457940Y340431D01*
X1455199Y340070D01*
X1452645Y339012D01*
X1450451Y337329D01*
X1448768Y335135D01*
X1448581Y334683D01*
X1403440D01*
Y340340D01*
X1382440D01*
Y334383D01*
X1363050D01*
Y339040D01*
X1362322D01*
X1361079Y342040D01*
X1365435Y346395D01*
X1365435Y346395D01*
X1366484Y347967D01*
X1366853Y349820D01*
Y366088D01*
X1369625Y367236D01*
X1379837Y357024D01*
X1381408Y355974D01*
X1383262Y355606D01*
X1468495D01*
X1477735Y346366D01*
Y339040D01*
X1471590D01*
Y323040D01*
X1471590Y320040D01*
X1471590Y317040D01*
Y301040D01*
X1492590D01*
Y310117D01*
X1497312D01*
X1497974Y309254D01*
X1499646Y307972D01*
X1501592Y307166D01*
X1503680Y306891D01*
X1505768Y307166D01*
X1507715Y307972D01*
X1509386Y309254D01*
X1510668Y310926D01*
X1511474Y312872D01*
X1511749Y314960D01*
X1511529Y316630D01*
X1512495Y318066D01*
X1513772Y319340D01*
X1533230D01*
Y324997D01*
X1578371D01*
X1578558Y324545D01*
X1580241Y322351D01*
X1582435Y320668D01*
X1584989Y319610D01*
X1587730Y319249D01*
X1590471Y319610D01*
X1593025Y320668D01*
X1595219Y322351D01*
X1596902Y324545D01*
X1597960Y327099D01*
X1598321Y329840D01*
X1597960Y332581D01*
X1596902Y335135D01*
X1595219Y337329D01*
X1593025Y339012D01*
X1590471Y340070D01*
X1587730Y340431D01*
X1584989Y340070D01*
X1582435Y339012D01*
X1580241Y337329D01*
X1578558Y335135D01*
X1578371Y334683D01*
X1533230D01*
Y340340D01*
X1512230D01*
Y334683D01*
X1492590D01*
Y339040D01*
X1487421D01*
Y348372D01*
X1487053Y350225D01*
X1486003Y351796D01*
X1473926Y363873D01*
X1472355Y364923D01*
X1470502Y365291D01*
X1385268D01*
X1378681Y371878D01*
X1379829Y374650D01*
X1402080D01*
Y380729D01*
X1443482D01*
X1445335Y381098D01*
X1446907Y382147D01*
X1476625Y411866D01*
X1477674Y413437D01*
X1478043Y415290D01*
Y443930D01*
X1484252D01*
Y437450D01*
X1483760D01*
Y413450D01*
X1484863D01*
Y411480D01*
X1485328Y409139D01*
X1486654Y407154D01*
X1545074Y348734D01*
X1547059Y347408D01*
X1549400Y346942D01*
X1562011D01*
X1563145Y346072D01*
X1565092Y345266D01*
X1567180Y344991D01*
X1569268Y345266D01*
X1571214Y346072D01*
X1572886Y347354D01*
X1574168Y349025D01*
X1574974Y350972D01*
X1575249Y353060D01*
X1574974Y355149D01*
X1574168Y357095D01*
X1572886Y358766D01*
X1571214Y360048D01*
X1569268Y360854D01*
X1567180Y361129D01*
X1565092Y360854D01*
X1563145Y360048D01*
X1562011Y359178D01*
X1551934D01*
X1500433Y410678D01*
X1501581Y413450D01*
X1505760D01*
Y437450D01*
X1496487D01*
Y443930D01*
X1503130D01*
Y455230D01*
X1505045Y457437D01*
X1510960D01*
Y452170D01*
X1531960D01*
Y453601D01*
X1563732D01*
X1565820Y453876D01*
X1567767Y454682D01*
X1569438Y455964D01*
X1574011Y460538D01*
X1574318Y460578D01*
X1577420Y461863D01*
X1580083Y463907D01*
X1582127Y466570D01*
X1583412Y469672D01*
X1583850Y473000D01*
X1583412Y476329D01*
X1582127Y479430D01*
X1580083Y482093D01*
X1577420Y484137D01*
X1574318Y485422D01*
X1570990Y485860D01*
X1567662Y485422D01*
X1564560Y484137D01*
X1561897Y482093D01*
X1559853Y479430D01*
X1558568Y476329D01*
X1558130Y473000D01*
X1558262Y471995D01*
X1556284Y469739D01*
X1534367D01*
X1531960Y471170D01*
Y478759D01*
X1552572Y499371D01*
X1561540D01*
X1561897Y498907D01*
X1564560Y496863D01*
X1567662Y495578D01*
X1570990Y495140D01*
X1574318Y495578D01*
X1577420Y496863D01*
X1580083Y498907D01*
X1582127Y501570D01*
X1583412Y504672D01*
X1583850Y508000D01*
X1583412Y511329D01*
X1582127Y514430D01*
X1580083Y517093D01*
X1577420Y519137D01*
X1574318Y520422D01*
X1570990Y520860D01*
X1567662Y520422D01*
X1564560Y519137D01*
X1561897Y517093D01*
X1560681Y515509D01*
X1549230D01*
X1547142Y515234D01*
X1545195Y514428D01*
X1543524Y513146D01*
X1520549Y490170D01*
X1510960D01*
Y485513D01*
X1509370D01*
X1507517Y485144D01*
X1506130Y484218D01*
X1505381Y484381D01*
X1504790Y484680D01*
X1490230D01*
Y487680D01*
X1487230D01*
Y493330D01*
X1478043D01*
Y508534D01*
X1580764Y611255D01*
X1580765Y611255D01*
X1581814Y612827D01*
X1582183Y614680D01*
X1582183Y614680D01*
Y640610D01*
X1582761Y640850D01*
X1585007Y642573D01*
X1586730Y644819D01*
X1587813Y647434D01*
X1588183Y650240D01*
X1587813Y653046D01*
X1586730Y655661D01*
X1585007Y657907D01*
X1582761Y659630D01*
X1580146Y660713D01*
X1577340Y661083D01*
X1574534Y660713D01*
X1571919Y659630D01*
X1569673Y657907D01*
X1567950Y655661D01*
X1566867Y653046D01*
X1566497Y650240D01*
X1566867Y647434D01*
X1567950Y644819D01*
X1569673Y642573D01*
X1571919Y640850D01*
X1572497Y640610D01*
Y616686D01*
X1534155Y578344D01*
X1531383Y579492D01*
Y640610D01*
X1531961Y640850D01*
X1534207Y642573D01*
X1535930Y644819D01*
X1537013Y647434D01*
X1537383Y650240D01*
X1537013Y653046D01*
X1535930Y655661D01*
X1534207Y657907D01*
X1531961Y659630D01*
X1529346Y660713D01*
X1526540Y661083D01*
X1523734Y660713D01*
X1521119Y659630D01*
X1518873Y657907D01*
X1517150Y655661D01*
X1516067Y653046D01*
X1515697Y650240D01*
X1516067Y647434D01*
X1517150Y644819D01*
X1518873Y642573D01*
X1521119Y640850D01*
X1521697Y640610D01*
Y577316D01*
X1462155Y517775D01*
X1461106Y516203D01*
X1460737Y514350D01*
Y460492D01*
X1457965Y459344D01*
X1453830Y463479D01*
Y467930D01*
X1453830D01*
Y469330D01*
X1453830D01*
Y480630D01*
X1453830Y480630D01*
Y482030D01*
X1453830D01*
X1453830Y483630D01*
Y493330D01*
X1428030D01*
Y488879D01*
X1416435Y477285D01*
X1415386Y475713D01*
X1415017Y473860D01*
Y463633D01*
X1404852Y453468D01*
X1402080Y454616D01*
Y476250D01*
X1334853D01*
Y478470D01*
X1334484Y480323D01*
X1333434Y481895D01*
X1326765Y488565D01*
X1325193Y489614D01*
X1323340Y489983D01*
X1323340Y489983D01*
X1216660D01*
X1214807Y489614D01*
X1213235Y488565D01*
X1213235Y488564D01*
X1204494Y479823D01*
X1198475D01*
X1196549Y482823D01*
X1196644Y483052D01*
X1196919Y485140D01*
X1196644Y487229D01*
X1195838Y489175D01*
X1194556Y490846D01*
X1192885Y492128D01*
X1190938Y492934D01*
X1188850Y493209D01*
X1186762Y492934D01*
X1184816Y492128D01*
X1183144Y490846D01*
X1183019Y490683D01*
X1171640D01*
X1169787Y490314D01*
X1168215Y489265D01*
X1146311Y467360D01*
X1134190D01*
X1134157Y467327D01*
X1132908Y468161D01*
X1131435Y468454D01*
X1126881D01*
X1124820Y470600D01*
X1124820Y471454D01*
Y479600D01*
X1116820D01*
Y470081D01*
X1117572Y467600D01*
X1117163Y467327D01*
X1117128Y467274D01*
X1114590Y466160D01*
X1114590Y466160D01*
X1110590D01*
Y459660D01*
X1104590D01*
Y466160D01*
X1099016D01*
X1096696Y468589D01*
X1096820Y470600D01*
X1096820D01*
Y494600D01*
X1096820D01*
X1095751Y497600D01*
X1111488Y513337D01*
X1114260Y512189D01*
Y512130D01*
X1124260D01*
Y517130D01*
X1119201D01*
X1118053Y519902D01*
X1122212Y524061D01*
X1178760D01*
Y512630D01*
X1204760D01*
Y524061D01*
X1209970D01*
Y523290D01*
X1214352D01*
Y515709D01*
X1213482Y514575D01*
X1212676Y512629D01*
X1212401Y510540D01*
X1212676Y508452D01*
X1213482Y506506D01*
X1214764Y504834D01*
X1216435Y503552D01*
X1218382Y502746D01*
X1220470Y502471D01*
X1222558Y502746D01*
X1224504Y503552D01*
X1226176Y504834D01*
X1227458Y506506D01*
X1228264Y508452D01*
X1228539Y510540D01*
X1228264Y512629D01*
X1227458Y514575D01*
X1226588Y515709D01*
Y523290D01*
X1230970D01*
Y531097D01*
X1301037D01*
X1302033Y529799D01*
X1302869Y528097D01*
X1302597Y526730D01*
Y525701D01*
X1300476Y523580D01*
X1297940Y523580D01*
X1294940Y523580D01*
X1291440D01*
Y502580D01*
X1294940D01*
X1297940Y502580D01*
X1300940Y502580D01*
X1316940D01*
Y502580D01*
X1319580D01*
Y502580D01*
X1335580D01*
X1338580Y502580D01*
X1341580Y502580D01*
X1345080D01*
Y513080D01*
X1348080D01*
Y516080D01*
X1357580D01*
Y523580D01*
X1348380D01*
X1346150Y525440D01*
X1346150Y526580D01*
Y546440D01*
X1341493D01*
Y552110D01*
X1346150D01*
Y566261D01*
X1358087Y578198D01*
X1361087Y576955D01*
Y500970D01*
X1361456Y499117D01*
X1362505Y497546D01*
X1368753Y491298D01*
X1368611Y490220D01*
X1368886Y488132D01*
X1369692Y486185D01*
X1370974Y484514D01*
X1372646Y483232D01*
X1374592Y482426D01*
X1376680Y482151D01*
X1378768Y482426D01*
X1380715Y483232D01*
X1382386Y484514D01*
X1382478Y484635D01*
X1386122D01*
X1386214Y484514D01*
X1387885Y483232D01*
X1389832Y482426D01*
X1391920Y482151D01*
X1394008Y482426D01*
X1395954Y483232D01*
X1397626Y484514D01*
X1398908Y486185D01*
X1399714Y488132D01*
X1399989Y490220D01*
X1399714Y492309D01*
X1398908Y494255D01*
X1397626Y495926D01*
X1395954Y497208D01*
X1394008Y498014D01*
X1391920Y498289D01*
X1390842Y498147D01*
X1384773Y504216D01*
Y650282D01*
X1386055Y651334D01*
X1387805D01*
X1389317Y651635D01*
X1390430Y652379D01*
X1391543Y651635D01*
X1393055Y651334D01*
X1394805D01*
X1396317Y651635D01*
X1397430Y652379D01*
X1398543Y651635D01*
X1400055Y651334D01*
X1401805D01*
X1403317Y651635D01*
X1404430Y652379D01*
X1405543Y651635D01*
X1407055Y651334D01*
X1408805D01*
X1410317Y651635D01*
X1411430Y652379D01*
X1412543Y651635D01*
X1414055Y651334D01*
X1415805D01*
X1417087Y650282D01*
Y644156D01*
X1398655Y625725D01*
X1397606Y624153D01*
X1397237Y622300D01*
Y619710D01*
X1391580D01*
Y603710D01*
X1391580Y600710D01*
X1391580Y597710D01*
Y594210D01*
X1412580D01*
Y597710D01*
X1412580Y600710D01*
X1412580Y603710D01*
Y619710D01*
X1410582D01*
X1409339Y622710D01*
X1421315Y634686D01*
X1424087Y633538D01*
Y619710D01*
X1418250D01*
Y603710D01*
X1418250Y600710D01*
X1418250Y597710D01*
Y594210D01*
X1439250D01*
Y597710D01*
X1439250Y600710D01*
X1439250Y603710D01*
Y619710D01*
X1433773D01*
Y633178D01*
X1436545Y634326D01*
X1448161Y622710D01*
X1446918Y619710D01*
X1443650D01*
Y603710D01*
X1443650Y600710D01*
X1443650Y597710D01*
Y594210D01*
X1464650D01*
Y597710D01*
X1464650Y600710D01*
X1464650Y603710D01*
Y619710D01*
X1458993D01*
Y623570D01*
X1458624Y625423D01*
X1457575Y626995D01*
X1440773Y643796D01*
Y650282D01*
X1442055Y651334D01*
X1443805D01*
X1445317Y651635D01*
X1446430Y652379D01*
X1447543Y651635D01*
X1449055Y651334D01*
X1450805D01*
X1452317Y651635D01*
X1453599Y652491D01*
X1454455Y653773D01*
X1454756Y655285D01*
Y698535D01*
X1454455Y700047D01*
X1453599Y701329D01*
X1452317Y702185D01*
X1450805Y702486D01*
D02*
G37*
G36*
X1093690Y698270D02*
X1092690D01*
Y694210D01*
X1100024D01*
X1099805Y694740D01*
X1098682Y696202D01*
X1097220Y697325D01*
X1095517Y698030D01*
X1093690Y698270D01*
D02*
G37*
G36*
X1086690D02*
X1085690D01*
X1083863Y698030D01*
X1082160Y697325D01*
X1080698Y696202D01*
X1079576Y694740D01*
X1079356Y694210D01*
X1086690D01*
Y698270D01*
D02*
G37*
G36*
X1136740Y699531D02*
X1134490D01*
Y694210D01*
X1144427D01*
X1143946Y695371D01*
X1142624Y697094D01*
X1140901Y698416D01*
X1138894Y699248D01*
X1136740Y699531D01*
D02*
G37*
G36*
X1128490D02*
X1126240D01*
X1124086Y699248D01*
X1122079Y698416D01*
X1120356Y697094D01*
X1119034Y695371D01*
X1118553Y694210D01*
X1128490D01*
Y699531D01*
D02*
G37*
G36*
X1100024Y688210D02*
X1092690D01*
Y684150D01*
X1093690D01*
X1095517Y684390D01*
X1097220Y685096D01*
X1098682Y686218D01*
X1099805Y687680D01*
X1100024Y688210D01*
D02*
G37*
G36*
X1086690D02*
X1079356D01*
X1079576Y687680D01*
X1080698Y686218D01*
X1082160Y685096D01*
X1083863Y684390D01*
X1085690Y684150D01*
X1086690D01*
Y688210D01*
D02*
G37*
G36*
X1144427Y688210D02*
X1118553D01*
X1119034Y687049D01*
X1120356Y685326D01*
X1121324Y684583D01*
X1121828Y682164D01*
X1121659Y680930D01*
X1120603Y679349D01*
X1120117Y676910D01*
X1120603Y674471D01*
X1121984Y672404D01*
X1124051Y671023D01*
X1126490Y670537D01*
X1128929Y671023D01*
X1130996Y672404D01*
X1132377Y674471D01*
X1132862Y676910D01*
X1132377Y679349D01*
X1132017Y679889D01*
X1133620Y682889D01*
X1136740D01*
X1138894Y683172D01*
X1140901Y684004D01*
X1142624Y685326D01*
X1143946Y687049D01*
X1144427Y688210D01*
D02*
G37*
G36*
X1554940Y660633D02*
Y653240D01*
X1562333D01*
X1561330Y655661D01*
X1559607Y657907D01*
X1557361Y659630D01*
X1554940Y660633D01*
D02*
G37*
G36*
X1548940D02*
X1546519Y659630D01*
X1544273Y657907D01*
X1542550Y655661D01*
X1541547Y653240D01*
X1548940D01*
Y660633D01*
D02*
G37*
G36*
X1173820Y697380D02*
X1152820D01*
Y693880D01*
X1152820Y690880D01*
X1152820Y687880D01*
Y671880D01*
X1158477D01*
Y666768D01*
X1157614Y666106D01*
X1156332Y664435D01*
X1155526Y662488D01*
X1155251Y660400D01*
X1155526Y658312D01*
X1156332Y656366D01*
X1157614Y654694D01*
X1159286Y653412D01*
X1161232Y652606D01*
X1163320Y652331D01*
X1165408Y652606D01*
X1167355Y653412D01*
X1169026Y654694D01*
X1170308Y656366D01*
X1171114Y658312D01*
X1171389Y660400D01*
X1171114Y662488D01*
X1170308Y664435D01*
X1169026Y666106D01*
X1168163Y666768D01*
Y671880D01*
X1173820D01*
Y687880D01*
X1173820Y690880D01*
X1173820Y693880D01*
Y697380D01*
D02*
G37*
G36*
X1562333Y647240D02*
X1554940D01*
Y639847D01*
X1557361Y640850D01*
X1559607Y642573D01*
X1561330Y644819D01*
X1562333Y647240D01*
D02*
G37*
G36*
X1548940D02*
X1541547D01*
X1542550Y644819D01*
X1544273Y642573D01*
X1546519Y640850D01*
X1548940Y639847D01*
Y647240D01*
D02*
G37*
G36*
X1613490Y660990D02*
X1591990D01*
Y639490D01*
X1596877D01*
Y626140D01*
X1596990Y625574D01*
Y617890D01*
X1608490D01*
Y625574D01*
X1608603Y626140D01*
Y639490D01*
X1613490D01*
Y660990D01*
D02*
G37*
G36*
X1093690Y611870D02*
X1092690D01*
Y607810D01*
X1100024D01*
X1099805Y608340D01*
X1098682Y609803D01*
X1097220Y610924D01*
X1095517Y611630D01*
X1093690Y611870D01*
D02*
G37*
G36*
X1086690D02*
X1085690D01*
X1083863Y611630D01*
X1082160Y610924D01*
X1080698Y609803D01*
X1079576Y608340D01*
X1079356Y607810D01*
X1086690D01*
Y611870D01*
D02*
G37*
G36*
X1126490Y625482D02*
X1124051Y624997D01*
X1121984Y623616D01*
X1120603Y621549D01*
X1120117Y619110D01*
X1120603Y616671D01*
X1121659Y615090D01*
X1121828Y613856D01*
X1121324Y611437D01*
X1120356Y610694D01*
X1119034Y608971D01*
X1118553Y607810D01*
X1144427D01*
X1143946Y608971D01*
X1142624Y610694D01*
X1140901Y612016D01*
X1138894Y612848D01*
X1136740Y613131D01*
X1133620D01*
X1132017Y616131D01*
X1132377Y616671D01*
X1132862Y619110D01*
X1132377Y621549D01*
X1130996Y623616D01*
X1128929Y624997D01*
X1126490Y625482D01*
D02*
G37*
G36*
X1163320Y644339D02*
X1161232Y644064D01*
X1159286Y643258D01*
X1157614Y641976D01*
X1156332Y640305D01*
X1155526Y638358D01*
X1155251Y636270D01*
X1155526Y634182D01*
X1156332Y632235D01*
X1157614Y630564D01*
X1158477Y629902D01*
Y623520D01*
X1152820D01*
Y607520D01*
X1152820Y604520D01*
X1152820Y601520D01*
Y598020D01*
X1173820D01*
Y601520D01*
X1173820Y604520D01*
X1173820Y607520D01*
Y623520D01*
X1168163D01*
Y629902D01*
X1169026Y630564D01*
X1170308Y632235D01*
X1171114Y634182D01*
X1171389Y636270D01*
X1171114Y638358D01*
X1170308Y640305D01*
X1169026Y641976D01*
X1167355Y643258D01*
X1165408Y644064D01*
X1163320Y644339D01*
D02*
G37*
G36*
X1100024Y601810D02*
X1092690D01*
Y597750D01*
X1093690D01*
X1095517Y597990D01*
X1097220Y598696D01*
X1098682Y599818D01*
X1099805Y601280D01*
X1100024Y601810D01*
D02*
G37*
G36*
X1086690D02*
X1079356D01*
X1079576Y601280D01*
X1080698Y599818D01*
X1082160Y598696D01*
X1083863Y597990D01*
X1085690Y597750D01*
X1086690D01*
Y601810D01*
D02*
G37*
G36*
X1144427Y601810D02*
X1118553D01*
X1119034Y600649D01*
X1120356Y598926D01*
X1122079Y597604D01*
X1124086Y596772D01*
X1126240Y596489D01*
X1129140D01*
X1129898Y593489D01*
X1129482Y593264D01*
X1129387Y593225D01*
X1129148Y593126D01*
X1127535Y592458D01*
X1125864Y591176D01*
X1124582Y589505D01*
X1124154Y588470D01*
X1138987D01*
X1138558Y589505D01*
X1137276Y591176D01*
X1135604Y592458D01*
X1133992Y593126D01*
X1133753Y593225D01*
X1133658Y593264D01*
X1133242Y593489D01*
X1134000Y596489D01*
X1136740D01*
X1138894Y596772D01*
X1140901Y597604D01*
X1142624Y598926D01*
X1143946Y600649D01*
X1144427Y601810D01*
D02*
G37*
G36*
X1173820Y592020D02*
X1166320D01*
Y585520D01*
X1173820D01*
Y592020D01*
D02*
G37*
G36*
X1160320D02*
X1152820D01*
Y585520D01*
X1160320D01*
Y592020D01*
D02*
G37*
G36*
X1439250Y588210D02*
X1431750D01*
Y581710D01*
X1439250D01*
Y588210D01*
D02*
G37*
G36*
X1425750D02*
X1418250D01*
Y581710D01*
X1425750D01*
Y588210D01*
D02*
G37*
G36*
X1464650D02*
X1457150D01*
Y581710D01*
X1464650D01*
Y588210D01*
D02*
G37*
G36*
X1451150D02*
X1443650D01*
Y581710D01*
X1451150D01*
Y588210D01*
D02*
G37*
G36*
X1412580D02*
X1405080D01*
Y581710D01*
X1412580D01*
Y588210D01*
D02*
G37*
G36*
X1399080D02*
X1391580D01*
Y581710D01*
X1399080D01*
Y588210D01*
D02*
G37*
G36*
X1084120Y588580D02*
X1076120D01*
Y579580D01*
X1084120D01*
Y588580D01*
D02*
G37*
G36*
X1070120D02*
X1062120D01*
Y579580D01*
X1070120D01*
Y588580D01*
D02*
G37*
G36*
X1138987Y582470D02*
X1134570D01*
Y578054D01*
X1135604Y578482D01*
X1137276Y579764D01*
X1138558Y581436D01*
X1138987Y582470D01*
D02*
G37*
G36*
X1128570D02*
X1124154D01*
X1124582Y581436D01*
X1125864Y579764D01*
X1127535Y578482D01*
X1128570Y578054D01*
Y582470D01*
D02*
G37*
G36*
X1198880Y635449D02*
X1196792Y635174D01*
X1194846Y634368D01*
X1193174Y633086D01*
X1191892Y631415D01*
X1191086Y629468D01*
X1190811Y627380D01*
X1191086Y625292D01*
X1191892Y623345D01*
X1192763Y622211D01*
Y591814D01*
X1162196Y561248D01*
X1140260D01*
Y563130D01*
X1127784D01*
X1127260Y563199D01*
X1114548D01*
X1112120Y564580D01*
Y588580D01*
X1090120D01*
Y567245D01*
X1090120Y565490D01*
X1088307Y565490D01*
X1084120D01*
Y573580D01*
X1062120D01*
Y564580D01*
X1071930D01*
Y557990D01*
X1081430D01*
Y554990D01*
X1084430D01*
Y544490D01*
X1087930D01*
X1090930Y544490D01*
Y544490D01*
X1090930D01*
Y544490D01*
X1109930D01*
Y547061D01*
X1127260D01*
X1127784Y547130D01*
X1140260D01*
Y549012D01*
X1164730D01*
X1167071Y549478D01*
X1169056Y550804D01*
X1203206Y584954D01*
X1204532Y586939D01*
X1204997Y589280D01*
Y622211D01*
X1205868Y623345D01*
X1206674Y625292D01*
X1206949Y627380D01*
X1206674Y629468D01*
X1205868Y631415D01*
X1204586Y633086D01*
X1202915Y634368D01*
X1200968Y635174D01*
X1198880Y635449D01*
D02*
G37*
G36*
X1608490Y606390D02*
X1596990D01*
Y589890D01*
X1597132D01*
Y585974D01*
X1570996Y559838D01*
X1552029D01*
X1550894Y560708D01*
X1548948Y561514D01*
X1546860Y561789D01*
X1544772Y561514D01*
X1542825Y560708D01*
X1541154Y559426D01*
X1539872Y557755D01*
X1539066Y555808D01*
X1538791Y553720D01*
X1539066Y551632D01*
X1539872Y549686D01*
X1541154Y548014D01*
X1542825Y546732D01*
X1544772Y545926D01*
X1546860Y545651D01*
X1548948Y545926D01*
X1550894Y546732D01*
X1552029Y547603D01*
X1573530D01*
X1575871Y548068D01*
X1577856Y549394D01*
X1607066Y578604D01*
X1608392Y580589D01*
X1608858Y582930D01*
X1608392Y585271D01*
X1608348Y585337D01*
Y589890D01*
X1608490D01*
Y606390D01*
D02*
G37*
G36*
X1230970Y561290D02*
X1223470D01*
Y554790D01*
X1230970D01*
Y561290D01*
D02*
G37*
G36*
X1217470D02*
X1209970D01*
Y554790D01*
X1217470D01*
Y561290D01*
D02*
G37*
G36*
X1253030Y554786D02*
X1251995Y554358D01*
X1250324Y553076D01*
X1249042Y551405D01*
X1248614Y550370D01*
X1253030D01*
Y554786D01*
D02*
G37*
G36*
X1078430Y551990D02*
X1071930D01*
Y544490D01*
X1078430D01*
Y551990D01*
D02*
G37*
G36*
X1285440Y523580D02*
X1278940D01*
Y516080D01*
X1285440D01*
Y523580D01*
D02*
G37*
G36*
X1501140Y661083D02*
X1498334Y660713D01*
X1495719Y659630D01*
X1493473Y657907D01*
X1491750Y655661D01*
X1490667Y653046D01*
X1490297Y650240D01*
X1490667Y647434D01*
X1491750Y644819D01*
X1493473Y642573D01*
X1495719Y640850D01*
X1496297Y640610D01*
Y603986D01*
X1408238Y515927D01*
X1407160Y516069D01*
X1405072Y515794D01*
X1403125Y514988D01*
X1401454Y513706D01*
X1400172Y512035D01*
X1399366Y510089D01*
X1399091Y508000D01*
X1399366Y505912D01*
X1400172Y503965D01*
X1401454Y502294D01*
X1403125Y501012D01*
X1405072Y500206D01*
X1407160Y499931D01*
X1409248Y500206D01*
X1411194Y501012D01*
X1412866Y502294D01*
X1414148Y503965D01*
X1414954Y505912D01*
X1415229Y508000D01*
X1415087Y509078D01*
X1504565Y598555D01*
X1505614Y600127D01*
X1505983Y601980D01*
Y640610D01*
X1506561Y640850D01*
X1508807Y642573D01*
X1510530Y644819D01*
X1511613Y647434D01*
X1511983Y650240D01*
X1511613Y653046D01*
X1510530Y655661D01*
X1508807Y657907D01*
X1506561Y659630D01*
X1503946Y660713D01*
X1501140Y661083D01*
D02*
G37*
G36*
X1140260Y517130D02*
X1130260D01*
Y512130D01*
X1140260D01*
Y517130D01*
D02*
G37*
G36*
X1357580Y510080D02*
X1351080D01*
Y502580D01*
X1357580D01*
Y510080D01*
D02*
G37*
G36*
X1285440D02*
X1278940D01*
Y502580D01*
X1285440D01*
Y510080D01*
D02*
G37*
G36*
X1140260Y506130D02*
X1130260D01*
Y501130D01*
X1140260D01*
Y506130D01*
D02*
G37*
G36*
X1124260D02*
X1114260D01*
Y501130D01*
X1124260D01*
Y506130D01*
D02*
G37*
G36*
X1503130Y493330D02*
X1493230D01*
Y490680D01*
X1503130D01*
Y493330D01*
D02*
G37*
G36*
X1124820Y494600D02*
X1116820D01*
Y485600D01*
X1124820D01*
Y494600D01*
D02*
G37*
G36*
X1110820D02*
X1102820D01*
Y485600D01*
X1110820D01*
Y494600D01*
D02*
G37*
G36*
Y479600D02*
X1102820D01*
Y470600D01*
X1110820D01*
Y479600D01*
D02*
G37*
G36*
X1264460Y459280D02*
X1256460D01*
Y450280D01*
X1264460D01*
Y459280D01*
D02*
G37*
G36*
X1250460D02*
X1242460D01*
Y450280D01*
X1250460D01*
Y459280D01*
D02*
G37*
G36*
X1575865Y450818D02*
X1573990D01*
Y441000D01*
X1583808D01*
Y442875D01*
X1583537Y444931D01*
X1582744Y446847D01*
X1581481Y448492D01*
X1579836Y449754D01*
X1577921Y450547D01*
X1575865Y450818D01*
D02*
G37*
G36*
X1567990D02*
X1566115D01*
X1564059Y450547D01*
X1562144Y449754D01*
X1560499Y448492D01*
X1559236Y446847D01*
X1558443Y444931D01*
X1558172Y442875D01*
Y441000D01*
X1567990D01*
Y450818D01*
D02*
G37*
G36*
X1249220Y442530D02*
X1241220D01*
Y433530D01*
X1249220D01*
Y442530D01*
D02*
G37*
G36*
X1235220D02*
X1227220D01*
Y433530D01*
X1235220D01*
Y442530D01*
D02*
G37*
G36*
X1533760Y437450D02*
X1525760D01*
Y428450D01*
X1533760D01*
Y437450D01*
D02*
G37*
G36*
X1519760D02*
X1511760D01*
Y428450D01*
X1519760D01*
Y437450D01*
D02*
G37*
G36*
X1583808Y435000D02*
X1573990D01*
Y425182D01*
X1575865D01*
X1577921Y425453D01*
X1579836Y426246D01*
X1581481Y427509D01*
X1582744Y429154D01*
X1583537Y431069D01*
X1583808Y433125D01*
Y435000D01*
D02*
G37*
G36*
X1567990D02*
X1558172D01*
Y433125D01*
X1558443Y431069D01*
X1559236Y429154D01*
X1560499Y427509D01*
X1562144Y426246D01*
X1564059Y425453D01*
X1566115Y425182D01*
X1567990D01*
Y435000D01*
D02*
G37*
G36*
X1533760Y422450D02*
X1525760D01*
Y413450D01*
X1533760D01*
Y422450D01*
D02*
G37*
G36*
X1519760D02*
X1511760D01*
Y413450D01*
X1519760D01*
Y422450D01*
D02*
G37*
G36*
X1213420Y407270D02*
X1204420D01*
Y399270D01*
X1213420D01*
Y407270D01*
D02*
G37*
G36*
Y393270D02*
X1204420D01*
Y385270D01*
X1213420D01*
Y393270D01*
D02*
G37*
G36*
X1098090Y389430D02*
X1089090D01*
Y381430D01*
X1098090D01*
Y389430D01*
D02*
G37*
G36*
Y375430D02*
X1089090D01*
Y367430D01*
X1098090D01*
Y375430D01*
D02*
G37*
G36*
X1590730Y294963D02*
Y287840D01*
X1597852D01*
X1596902Y290135D01*
X1595219Y292329D01*
X1593025Y294012D01*
X1590730Y294963D01*
D02*
G37*
G36*
X1584730Y294963D02*
X1582435Y294012D01*
X1580241Y292329D01*
X1578558Y290135D01*
X1577608Y287840D01*
X1584730D01*
Y294963D01*
D02*
G37*
G36*
X1331150Y294963D02*
Y287840D01*
X1338273D01*
X1337322Y290135D01*
X1335639Y292329D01*
X1333445Y294012D01*
X1331150Y294963D01*
D02*
G37*
G36*
X1325150Y294963D02*
X1322855Y294012D01*
X1320661Y292329D01*
X1318978Y290135D01*
X1318028Y287840D01*
X1325150D01*
Y294963D01*
D02*
G37*
G36*
X1525730Y294963D02*
Y287840D01*
X1532852D01*
X1531902Y290135D01*
X1530219Y292329D01*
X1528025Y294012D01*
X1525730Y294963D01*
D02*
G37*
G36*
X1519730D02*
X1517435Y294012D01*
X1515241Y292329D01*
X1513558Y290135D01*
X1512608Y287840D01*
X1519730D01*
Y294963D01*
D02*
G37*
G36*
X1395940D02*
Y287840D01*
X1403062D01*
X1402112Y290135D01*
X1400429Y292329D01*
X1398235Y294012D01*
X1395940Y294963D01*
D02*
G37*
G36*
X1389940D02*
X1387645Y294012D01*
X1385451Y292329D01*
X1383768Y290135D01*
X1382818Y287840D01*
X1389940D01*
Y294963D01*
D02*
G37*
G36*
X1266150D02*
Y287840D01*
X1273272D01*
X1272322Y290135D01*
X1270639Y292329D01*
X1268445Y294012D01*
X1266150Y294963D01*
D02*
G37*
G36*
X1260150D02*
X1257855Y294012D01*
X1255661Y292329D01*
X1253978Y290135D01*
X1253028Y287840D01*
X1260150D01*
Y294963D01*
D02*
G37*
G36*
X1460940D02*
Y287840D01*
X1468062D01*
X1467112Y290135D01*
X1465429Y292329D01*
X1463235Y294012D01*
X1460940Y294963D01*
D02*
G37*
G36*
X1454940D02*
X1452645Y294012D01*
X1450451Y292329D01*
X1448768Y290135D01*
X1447818Y287840D01*
X1454940D01*
Y294963D01*
D02*
G37*
G36*
X1201360D02*
Y287840D01*
X1208483D01*
X1207532Y290135D01*
X1205849Y292329D01*
X1203655Y294012D01*
X1201360Y294963D01*
D02*
G37*
G36*
X1195360D02*
X1193065Y294012D01*
X1190871Y292329D01*
X1189188Y290135D01*
X1188238Y287840D01*
X1195360D01*
Y294963D01*
D02*
G37*
G36*
X1136360D02*
Y287840D01*
X1143483D01*
X1142532Y290135D01*
X1140849Y292329D01*
X1138655Y294012D01*
X1136360Y294963D01*
D02*
G37*
G36*
X1130360D02*
X1128065Y294012D01*
X1125871Y292329D01*
X1124188Y290135D01*
X1123238Y287840D01*
X1130360D01*
Y294963D01*
D02*
G37*
G36*
X1597852Y281840D02*
X1590730D01*
Y274718D01*
X1593025Y275668D01*
X1595219Y277351D01*
X1596902Y279545D01*
X1597852Y281840D01*
D02*
G37*
G36*
X1338273D02*
X1331150D01*
Y274718D01*
X1333445Y275668D01*
X1335639Y277351D01*
X1337322Y279545D01*
X1338273Y281840D01*
D02*
G37*
G36*
X1532852Y281840D02*
X1525730D01*
Y274718D01*
X1528025Y275668D01*
X1530219Y277351D01*
X1531902Y279545D01*
X1532852Y281840D01*
D02*
G37*
G36*
X1519730D02*
X1512608D01*
X1513558Y279545D01*
X1515241Y277351D01*
X1517435Y275668D01*
X1519730Y274718D01*
Y281840D01*
D02*
G37*
G36*
X1468062Y281840D02*
X1460940D01*
Y274718D01*
X1463235Y275668D01*
X1465429Y277351D01*
X1467112Y279545D01*
X1468062Y281840D01*
D02*
G37*
G36*
X1454940D02*
X1447818D01*
X1448768Y279545D01*
X1450451Y277351D01*
X1452645Y275668D01*
X1454940Y274718D01*
Y281840D01*
D02*
G37*
G36*
X1403062Y281840D02*
X1395940D01*
Y274718D01*
X1398235Y275668D01*
X1400429Y277351D01*
X1402112Y279545D01*
X1403062Y281840D01*
D02*
G37*
G36*
X1389940D02*
X1382818D01*
X1383768Y279545D01*
X1385451Y277351D01*
X1387645Y275668D01*
X1389940Y274718D01*
Y281840D01*
D02*
G37*
G36*
X1273272D02*
X1266150D01*
Y274718D01*
X1268445Y275668D01*
X1270639Y277351D01*
X1272322Y279545D01*
X1273272Y281840D01*
D02*
G37*
G36*
X1260150D02*
X1253028D01*
X1253978Y279545D01*
X1255661Y277351D01*
X1257855Y275668D01*
X1260150Y274718D01*
Y281840D01*
D02*
G37*
G36*
X1208483Y281840D02*
X1201360D01*
Y274718D01*
X1203655Y275668D01*
X1205849Y277351D01*
X1207532Y279545D01*
X1208483Y281840D01*
D02*
G37*
G36*
X1195360D02*
X1188238D01*
X1189188Y279545D01*
X1190871Y277351D01*
X1193065Y275668D01*
X1195360Y274718D01*
Y281840D01*
D02*
G37*
G36*
X1143483Y281840D02*
X1136360D01*
Y274718D01*
X1138655Y275668D01*
X1140849Y277351D01*
X1142532Y279545D01*
X1143483Y281840D01*
D02*
G37*
G36*
X1130360D02*
X1123238D01*
X1124188Y279545D01*
X1125871Y277351D01*
X1128065Y275668D01*
X1130360Y274718D01*
Y281840D01*
D02*
G37*
G36*
X1584730Y281840D02*
X1577608D01*
X1578558Y279545D01*
X1580241Y277351D01*
X1582435Y275668D01*
X1584730Y274718D01*
Y281840D01*
D02*
G37*
G36*
X1325150D02*
X1318028D01*
X1318978Y279545D01*
X1320661Y277351D01*
X1322855Y275668D01*
X1325150Y274718D01*
Y281840D01*
D02*
G37*
%LPD*%
G36*
X1453117Y424916D02*
X1439764Y411563D01*
X1402080D01*
Y419381D01*
X1403135Y420085D01*
X1425601Y442552D01*
X1428030Y443930D01*
X1453117D01*
Y424916D01*
D02*
G37*
%LPC*%
G36*
X483860Y719886D02*
Y715470D01*
X488276D01*
X487848Y716505D01*
X486566Y718176D01*
X484894Y719458D01*
X483860Y719886D01*
D02*
G37*
G36*
X477860D02*
X476825Y719458D01*
X475154Y718176D01*
X473872Y716505D01*
X473443Y715470D01*
X477860D01*
Y719886D01*
D02*
G37*
G36*
X488276Y709470D02*
X483860D01*
Y705054D01*
X484894Y705482D01*
X486566Y706764D01*
X487848Y708436D01*
X488276Y709470D01*
D02*
G37*
G36*
X477860D02*
X473443D01*
X473872Y708436D01*
X475154Y706764D01*
X476825Y705482D01*
X477860Y705054D01*
Y709470D01*
D02*
G37*
G36*
X523110Y709880D02*
X515610D01*
Y703380D01*
X523110D01*
Y709880D01*
D02*
G37*
G36*
X509610D02*
X502110D01*
Y703380D01*
X509610D01*
Y709880D01*
D02*
G37*
G36*
X800095Y702486D02*
X798345D01*
X796833Y702185D01*
X795720Y701441D01*
X794607Y702185D01*
X793095Y702486D01*
X791345D01*
X789833Y702185D01*
X788720Y701441D01*
X787607Y702185D01*
X786095Y702486D01*
X784345D01*
X782833Y702185D01*
X781720Y701441D01*
X780607Y702185D01*
X779095Y702486D01*
X777345D01*
X775833Y702185D01*
X774720Y701441D01*
X773607Y702185D01*
X772095Y702486D01*
X770345D01*
X768833Y702185D01*
X767720Y701441D01*
X766607Y702185D01*
X765095Y702486D01*
X763345D01*
X761833Y702185D01*
X760720Y701441D01*
X759607Y702185D01*
X758095Y702486D01*
X756345D01*
X754833Y702185D01*
X753720Y701441D01*
X752607Y702185D01*
X751095Y702486D01*
X749345D01*
X747833Y702185D01*
X746720Y701441D01*
X745607Y702185D01*
X744095Y702486D01*
X742345D01*
X740833Y702185D01*
X739720Y701441D01*
X738607Y702185D01*
X737095Y702486D01*
X735345D01*
X733833Y702185D01*
X732720Y701441D01*
X731607Y702185D01*
X730095Y702486D01*
X728345D01*
X726833Y702185D01*
X725720Y701441D01*
X724607Y702185D01*
X723095Y702486D01*
X721345D01*
X719833Y702185D01*
X718720Y701441D01*
X717607Y702185D01*
X716095Y702486D01*
X714345D01*
X712833Y702185D01*
X711720Y701441D01*
X710607Y702185D01*
X709095Y702486D01*
X707345D01*
X705833Y702185D01*
X704720Y701441D01*
X703607Y702185D01*
X702095Y702486D01*
X700345D01*
X698833Y702185D01*
X697720Y701441D01*
X696607Y702185D01*
X695095Y702486D01*
X693345D01*
X691833Y702185D01*
X690720Y701441D01*
X689607Y702185D01*
X688095Y702486D01*
X686345D01*
X684833Y702185D01*
X683720Y701441D01*
X682607Y702185D01*
X681095Y702486D01*
X679345D01*
X677833Y702185D01*
X676720Y701441D01*
X675607Y702185D01*
X674095Y702486D01*
X672345D01*
X670833Y702185D01*
X669720Y701441D01*
X668607Y702185D01*
X667095Y702486D01*
X665345D01*
X663833Y702185D01*
X662720Y701441D01*
X661607Y702185D01*
X660095Y702486D01*
X658345D01*
X656833Y702185D01*
X655720Y701441D01*
X654607Y702185D01*
X653095Y702486D01*
X651345D01*
X649833Y702185D01*
X648720Y701441D01*
X647607Y702185D01*
X646095Y702486D01*
X644345D01*
X642833Y702185D01*
X641720Y701441D01*
X640607Y702185D01*
X639095Y702486D01*
X637345D01*
X635833Y702185D01*
X634720Y701441D01*
X633607Y702185D01*
X632095Y702486D01*
X630345D01*
X628833Y702185D01*
X627720Y701441D01*
X626607Y702185D01*
X625095Y702486D01*
X623345D01*
X621833Y702185D01*
X620720Y701441D01*
X619607Y702185D01*
X618095Y702486D01*
X616345D01*
X614833Y702185D01*
X613720Y701441D01*
X612607Y702185D01*
X611095Y702486D01*
X609345D01*
X607833Y702185D01*
X606720Y701441D01*
X605607Y702185D01*
X604095Y702486D01*
X602345D01*
X600833Y702185D01*
X599720Y701441D01*
X598607Y702185D01*
X597095Y702486D01*
X595345D01*
X593833Y702185D01*
X592551Y701329D01*
X591695Y700047D01*
X591394Y698535D01*
Y655285D01*
X591695Y653773D01*
X592551Y652491D01*
X592271Y649120D01*
X591735Y648585D01*
X590686Y647013D01*
X590317Y645160D01*
Y581660D01*
X590686Y579807D01*
X591735Y578236D01*
X610125Y559846D01*
X611697Y558796D01*
X613550Y558427D01*
X613870Y558107D01*
X613870Y554297D01*
X612290Y553312D01*
X611536Y553138D01*
X611026Y553076D01*
X609355Y554358D01*
X608320Y554786D01*
Y547370D01*
X605320D01*
Y544370D01*
X597904D01*
X598147Y543783D01*
X597525Y542206D01*
X596509Y540783D01*
X582636D01*
X580260Y542290D01*
X580260Y545290D01*
Y548790D01*
X559260D01*
Y545290D01*
X559260Y542290D01*
X557126Y540199D01*
X554050D01*
Y551630D01*
X528050D01*
Y540199D01*
X468160D01*
X467636Y540130D01*
X463550D01*
Y538676D01*
X462454Y537836D01*
X430271Y505652D01*
X428989Y503981D01*
X428182Y502035D01*
X427908Y499947D01*
Y494600D01*
X424110D01*
Y488718D01*
X421170D01*
X418829Y488252D01*
X416844Y486926D01*
X397794Y467876D01*
X396468Y465891D01*
X396003Y463550D01*
Y425450D01*
X396468Y423109D01*
X397794Y421124D01*
X412424Y406494D01*
X414409Y405168D01*
X416750Y404702D01*
X438380D01*
Y395430D01*
X462380D01*
Y396325D01*
X465326Y396455D01*
X465619Y394982D01*
X466453Y393733D01*
Y391127D01*
X465619Y389878D01*
X465326Y388405D01*
X462380Y388535D01*
Y389430D01*
X453380D01*
Y378430D01*
Y367430D01*
X462380D01*
Y370925D01*
X465326Y371055D01*
X465619Y369582D01*
X466453Y368333D01*
X467702Y367499D01*
X469175Y367206D01*
X471950D01*
Y373380D01*
X477950D01*
Y367206D01*
X480725D01*
X482198Y367499D01*
X483447Y368333D01*
X519905D01*
X520501Y365333D01*
X520005Y365128D01*
X518334Y363846D01*
X517052Y362175D01*
X516246Y360229D01*
X515971Y358140D01*
X516246Y356052D01*
X517052Y354105D01*
X518334Y352434D01*
X520005Y351152D01*
X521952Y350346D01*
X524040Y350071D01*
X526128Y350346D01*
X528074Y351152D01*
X529746Y352434D01*
X530017Y352788D01*
X535845D01*
X538186Y353254D01*
X540171Y354580D01*
X542862Y357270D01*
X562710D01*
Y379270D01*
X551244D01*
X550100Y379498D01*
X541029D01*
X539341Y382187D01*
X539331Y382371D01*
X539462Y383192D01*
X539574Y383755D01*
Y383893D01*
X539794Y385270D01*
X547710D01*
Y396270D01*
Y407270D01*
X542258D01*
X539574Y409155D01*
Y413805D01*
X539281Y415278D01*
X538447Y416527D01*
Y419133D01*
X539281Y420382D01*
X539574Y421855D01*
Y426505D01*
X539281Y427978D01*
X538447Y429227D01*
Y431833D01*
X539281Y433082D01*
X539574Y434555D01*
Y439205D01*
X539281Y440678D01*
X538447Y441927D01*
Y444534D01*
X539281Y445782D01*
X539574Y447255D01*
Y451905D01*
X539281Y453378D01*
X538447Y454627D01*
Y457234D01*
X539281Y458482D01*
X539574Y459955D01*
Y464605D01*
X539281Y466078D01*
X538573Y467137D01*
X538793Y468143D01*
X539641Y470137D01*
X545819D01*
X546835Y468714D01*
X547457Y467137D01*
X546836Y465639D01*
X546561Y463550D01*
X546836Y461462D01*
X547642Y459515D01*
X548924Y457844D01*
X550596Y456562D01*
X552542Y455756D01*
X554630Y455481D01*
X556718Y455756D01*
X558665Y456562D01*
X560336Y457844D01*
X561151Y458907D01*
X564880D01*
X566733Y459276D01*
X568305Y460326D01*
X579386Y471407D01*
X591750D01*
Y465280D01*
X613750D01*
Y471407D01*
X619750D01*
Y450280D01*
X633331D01*
X647230Y436381D01*
Y427563D01*
X643076D01*
X637926Y432713D01*
X637642Y434141D01*
X636316Y436126D01*
X634331Y437452D01*
X631990Y437918D01*
X626510D01*
Y442530D01*
X604510D01*
Y418530D01*
X603987Y418163D01*
X601510Y416900D01*
X601510D01*
X599033Y418163D01*
X598510Y418530D01*
X598510Y419900D01*
Y427530D01*
X576510D01*
Y418530D01*
X580185D01*
X582510Y416900D01*
X582510Y415530D01*
Y406289D01*
X575225Y399005D01*
X574176Y397433D01*
X573807Y395580D01*
Y364490D01*
X574176Y362637D01*
X575225Y361065D01*
X582845Y353446D01*
X583088Y353283D01*
X582178Y350283D01*
X555630D01*
X555630Y350283D01*
X553777Y349914D01*
X552206Y348865D01*
X544226Y340885D01*
X543211Y339366D01*
X542355Y339012D01*
X540161Y337329D01*
X538478Y335135D01*
X538291Y334683D01*
X493150D01*
Y340340D01*
X472150D01*
Y334683D01*
X455800D01*
Y339040D01*
X434800D01*
Y323040D01*
X434800Y320040D01*
X434800Y317040D01*
Y301040D01*
X455800D01*
Y308033D01*
X458093Y309018D01*
X458800Y309135D01*
X460316Y307972D01*
X462262Y307166D01*
X464350Y306891D01*
X466438Y307166D01*
X468385Y307972D01*
X470056Y309254D01*
X471338Y310926D01*
X472144Y312872D01*
X472419Y314960D01*
X472237Y316340D01*
X473408Y318309D01*
X474442Y319340D01*
X493150D01*
Y324997D01*
X538291D01*
X538478Y324545D01*
X540161Y322351D01*
X542355Y320668D01*
X544909Y319610D01*
X547650Y319249D01*
X550391Y319610D01*
X552945Y320668D01*
X555139Y322351D01*
X556822Y324545D01*
X557530Y326255D01*
X560530Y325658D01*
X560530Y320040D01*
X560530Y317040D01*
Y301040D01*
X581530D01*
Y310117D01*
X586252D01*
X586914Y309254D01*
X588586Y307972D01*
X590532Y307166D01*
X592620Y306891D01*
X594708Y307166D01*
X596655Y307972D01*
X598326Y309254D01*
X599608Y310926D01*
X600414Y312872D01*
X600689Y314960D01*
X600425Y316968D01*
X600675Y317286D01*
X600758Y317392D01*
X602712Y319340D01*
X604301Y319340D01*
X622940D01*
Y324997D01*
X668081D01*
X668268Y324545D01*
X669951Y322351D01*
X672145Y320668D01*
X674699Y319610D01*
X677440Y319249D01*
X680181Y319610D01*
X682735Y320668D01*
X684929Y322351D01*
X686612Y324545D01*
X687670Y327099D01*
X688031Y329840D01*
X687670Y332581D01*
X686612Y335135D01*
X684929Y337329D01*
X684881Y338052D01*
X703685Y356856D01*
X706457Y355708D01*
Y351826D01*
X699685Y345055D01*
X698636Y343483D01*
X698267Y341630D01*
Y339040D01*
X691340D01*
Y323040D01*
X691340Y320040D01*
X691340Y317040D01*
Y301040D01*
X712340D01*
Y310117D01*
X717062D01*
X717724Y309254D01*
X719396Y307972D01*
X721342Y307166D01*
X723430Y306891D01*
X725518Y307166D01*
X727465Y307972D01*
X729136Y309254D01*
X730418Y310926D01*
X731224Y312872D01*
X731499Y314960D01*
X731293Y316521D01*
X732355Y318176D01*
X733522Y319340D01*
X752730D01*
Y324997D01*
X797871D01*
X798058Y324545D01*
X799741Y322351D01*
X801935Y320668D01*
X804489Y319610D01*
X807230Y319249D01*
X809971Y319610D01*
X812525Y320668D01*
X814719Y322351D01*
X816402Y324545D01*
X817460Y327099D01*
X817821Y329840D01*
X817460Y332581D01*
X816402Y335135D01*
X814719Y337329D01*
X812525Y339012D01*
X809971Y340070D01*
X807230Y340431D01*
X804489Y340070D01*
X801935Y339012D01*
X799741Y337329D01*
X798058Y335135D01*
X797871Y334683D01*
X752730D01*
Y340340D01*
X731730D01*
Y334383D01*
X712340D01*
Y339040D01*
X711612D01*
X710369Y342040D01*
X714725Y346395D01*
X714725Y346395D01*
X715774Y347967D01*
X716143Y349820D01*
Y366088D01*
X718915Y367236D01*
X729127Y357024D01*
X730698Y355974D01*
X732551Y355606D01*
X817785D01*
X827025Y346366D01*
Y339040D01*
X820880D01*
Y323040D01*
X820880Y320040D01*
X820880Y317040D01*
Y301040D01*
X841880D01*
Y310117D01*
X846602D01*
X847264Y309254D01*
X848935Y307972D01*
X850882Y307166D01*
X852970Y306891D01*
X855058Y307166D01*
X857004Y307972D01*
X858676Y309254D01*
X859958Y310926D01*
X860764Y312872D01*
X861039Y314960D01*
X860819Y316630D01*
X861785Y318066D01*
X863062Y319340D01*
X882520D01*
Y324997D01*
X927661D01*
X927848Y324545D01*
X929531Y322351D01*
X931725Y320668D01*
X934279Y319610D01*
X937020Y319249D01*
X939761Y319610D01*
X942315Y320668D01*
X944509Y322351D01*
X946192Y324545D01*
X947250Y327099D01*
X947611Y329840D01*
X947250Y332581D01*
X946192Y335135D01*
X944509Y337329D01*
X942315Y339012D01*
X939761Y340070D01*
X937020Y340431D01*
X934279Y340070D01*
X931725Y339012D01*
X929531Y337329D01*
X927848Y335135D01*
X927661Y334683D01*
X882520D01*
Y340340D01*
X861520D01*
Y334683D01*
X841880D01*
Y339040D01*
X836711D01*
Y348372D01*
X836343Y350225D01*
X835293Y351796D01*
X823216Y363873D01*
X821645Y364923D01*
X819791Y365291D01*
X734558D01*
X727971Y371878D01*
X729119Y374650D01*
X751370D01*
Y380729D01*
X792772D01*
X794625Y381098D01*
X796197Y382147D01*
X825915Y411866D01*
X826964Y413437D01*
X827333Y415290D01*
Y443930D01*
X833542D01*
Y437450D01*
X833050D01*
Y413450D01*
X834153D01*
Y411480D01*
X834618Y409139D01*
X835944Y407154D01*
X894364Y348734D01*
X896349Y347408D01*
X898690Y346942D01*
X911301D01*
X912436Y346072D01*
X914382Y345266D01*
X916470Y344991D01*
X918558Y345266D01*
X920505Y346072D01*
X922176Y347354D01*
X923458Y349025D01*
X924264Y350972D01*
X924539Y353060D01*
X924264Y355149D01*
X923458Y357095D01*
X922176Y358766D01*
X920505Y360048D01*
X918558Y360854D01*
X916470Y361129D01*
X914382Y360854D01*
X912436Y360048D01*
X911301Y359178D01*
X901224D01*
X849723Y410678D01*
X850871Y413450D01*
X855050D01*
Y437450D01*
X845778D01*
Y443930D01*
X852420D01*
Y455230D01*
X854334Y457437D01*
X860250D01*
Y452170D01*
X881250D01*
Y453601D01*
X913022D01*
X915110Y453876D01*
X917057Y454682D01*
X918728Y455964D01*
X923301Y460538D01*
X923608Y460578D01*
X926710Y461863D01*
X929373Y463907D01*
X931417Y466570D01*
X932702Y469672D01*
X933140Y473000D01*
X932702Y476329D01*
X931417Y479430D01*
X929373Y482093D01*
X926710Y484137D01*
X923608Y485422D01*
X920280Y485860D01*
X916952Y485422D01*
X913850Y484137D01*
X911187Y482093D01*
X909143Y479430D01*
X907858Y476329D01*
X907420Y473000D01*
X907552Y471995D01*
X905574Y469739D01*
X883657D01*
X881250Y471170D01*
Y478759D01*
X901862Y499371D01*
X910830D01*
X911187Y498907D01*
X913850Y496863D01*
X916952Y495578D01*
X920280Y495140D01*
X923608Y495578D01*
X926710Y496863D01*
X929373Y498907D01*
X931417Y501570D01*
X932702Y504672D01*
X933140Y508000D01*
X932702Y511329D01*
X931417Y514430D01*
X929373Y517093D01*
X926710Y519137D01*
X923608Y520422D01*
X920280Y520860D01*
X916952Y520422D01*
X913850Y519137D01*
X911187Y517093D01*
X909971Y515509D01*
X898520D01*
X896432Y515234D01*
X894485Y514428D01*
X892814Y513146D01*
X869839Y490170D01*
X860250D01*
Y485513D01*
X858660D01*
X856807Y485144D01*
X855420Y484218D01*
X854671Y484381D01*
X854081Y484680D01*
X839520D01*
Y487680D01*
X836520D01*
Y493330D01*
X827333D01*
Y508534D01*
X930054Y611255D01*
X930055Y611255D01*
X931104Y612827D01*
X931473Y614680D01*
X931473Y614680D01*
Y640610D01*
X932051Y640850D01*
X934297Y642573D01*
X936020Y644819D01*
X937103Y647434D01*
X937473Y650240D01*
X937103Y653046D01*
X936020Y655661D01*
X934297Y657907D01*
X932051Y659630D01*
X929436Y660713D01*
X926630Y661083D01*
X923824Y660713D01*
X921209Y659630D01*
X918963Y657907D01*
X917240Y655661D01*
X916157Y653046D01*
X915787Y650240D01*
X916157Y647434D01*
X917240Y644819D01*
X918963Y642573D01*
X921209Y640850D01*
X921787Y640610D01*
Y616686D01*
X883445Y578344D01*
X880673Y579492D01*
Y640610D01*
X881251Y640850D01*
X883497Y642573D01*
X885220Y644819D01*
X886303Y647434D01*
X886673Y650240D01*
X886303Y653046D01*
X885220Y655661D01*
X883497Y657907D01*
X881251Y659630D01*
X878636Y660713D01*
X875830Y661083D01*
X873024Y660713D01*
X870409Y659630D01*
X868163Y657907D01*
X866440Y655661D01*
X865357Y653046D01*
X864987Y650240D01*
X865357Y647434D01*
X866440Y644819D01*
X868163Y642573D01*
X870409Y640850D01*
X870987Y640610D01*
Y577316D01*
X811445Y517775D01*
X810396Y516203D01*
X810027Y514350D01*
Y460492D01*
X807255Y459344D01*
X803120Y463479D01*
Y467930D01*
X803120D01*
Y469330D01*
X803120D01*
Y480630D01*
X803120Y480630D01*
Y482030D01*
X803120D01*
X803120Y483630D01*
Y493330D01*
X777320D01*
Y488879D01*
X765725Y477285D01*
X764676Y475713D01*
X764307Y473860D01*
Y463633D01*
X754142Y453468D01*
X751370Y454616D01*
Y476250D01*
X684143D01*
Y478470D01*
X683774Y480323D01*
X682725Y481895D01*
X676055Y488565D01*
X674483Y489614D01*
X672630Y489983D01*
X672630Y489983D01*
X565950D01*
X564097Y489614D01*
X562525Y488565D01*
X562525Y488564D01*
X553784Y479823D01*
X547765D01*
X545839Y482823D01*
X545934Y483052D01*
X546209Y485140D01*
X545934Y487229D01*
X545128Y489175D01*
X543846Y490846D01*
X542174Y492128D01*
X540228Y492934D01*
X538140Y493209D01*
X536052Y492934D01*
X534105Y492128D01*
X532434Y490846D01*
X532309Y490683D01*
X520930D01*
X519077Y490314D01*
X517505Y489265D01*
X495601Y467360D01*
X483480D01*
X483447Y467327D01*
X482198Y468161D01*
X480725Y468454D01*
X476171D01*
X474110Y470600D01*
X474110Y471454D01*
Y479600D01*
X466110D01*
Y470081D01*
X466862Y467600D01*
X466453Y467327D01*
X466418Y467274D01*
X463880Y466160D01*
X463880Y466160D01*
X459880D01*
Y459660D01*
X453880D01*
Y466160D01*
X448306D01*
X445986Y468589D01*
X446110Y470600D01*
X446110D01*
Y494600D01*
X446110D01*
X445041Y497600D01*
X460778Y513337D01*
X463550Y512189D01*
Y512130D01*
X473550D01*
Y517130D01*
X468491D01*
X467343Y519902D01*
X471502Y524061D01*
X528050D01*
Y512630D01*
X554050D01*
Y524061D01*
X559260D01*
Y523290D01*
X563643D01*
Y515709D01*
X562772Y514575D01*
X561966Y512629D01*
X561691Y510540D01*
X561966Y508452D01*
X562772Y506506D01*
X564054Y504834D01*
X565726Y503552D01*
X567672Y502746D01*
X569760Y502471D01*
X571848Y502746D01*
X573795Y503552D01*
X575466Y504834D01*
X576748Y506506D01*
X577554Y508452D01*
X577829Y510540D01*
X577554Y512629D01*
X576748Y514575D01*
X575877Y515709D01*
Y523290D01*
X580260D01*
Y531097D01*
X650327D01*
X651323Y529799D01*
X652159Y528097D01*
X651887Y526730D01*
Y525701D01*
X649766Y523580D01*
X647230Y523580D01*
X644230Y523580D01*
X640730D01*
Y502580D01*
X644230D01*
X647230Y502580D01*
X650230Y502580D01*
X666230D01*
Y502580D01*
X668870D01*
Y502580D01*
X684870D01*
X687870Y502580D01*
X690870Y502580D01*
X694370D01*
Y513080D01*
X697370D01*
Y516080D01*
X706870D01*
Y523580D01*
X697670D01*
X695440Y525440D01*
X695440Y526580D01*
Y546440D01*
X690783D01*
Y552110D01*
X695440D01*
Y566261D01*
X707377Y578198D01*
X710377Y576955D01*
Y500970D01*
X710746Y499117D01*
X711795Y497546D01*
X718043Y491298D01*
X717901Y490220D01*
X718176Y488132D01*
X718982Y486185D01*
X720264Y484514D01*
X721936Y483232D01*
X723882Y482426D01*
X725970Y482151D01*
X728058Y482426D01*
X730005Y483232D01*
X731676Y484514D01*
X731768Y484635D01*
X735412D01*
X735504Y484514D01*
X737176Y483232D01*
X739122Y482426D01*
X741210Y482151D01*
X743298Y482426D01*
X745245Y483232D01*
X746916Y484514D01*
X748198Y486185D01*
X749004Y488132D01*
X749279Y490220D01*
X749004Y492309D01*
X748198Y494255D01*
X746916Y495926D01*
X745245Y497208D01*
X743298Y498014D01*
X741210Y498289D01*
X740132Y498147D01*
X734063Y504216D01*
Y650282D01*
X735345Y651334D01*
X737095D01*
X738607Y651635D01*
X739720Y652379D01*
X740833Y651635D01*
X742345Y651334D01*
X744095D01*
X745607Y651635D01*
X746720Y652379D01*
X747833Y651635D01*
X749345Y651334D01*
X751095D01*
X752607Y651635D01*
X753720Y652379D01*
X754833Y651635D01*
X756345Y651334D01*
X758095D01*
X759607Y651635D01*
X760720Y652379D01*
X761833Y651635D01*
X763345Y651334D01*
X765095D01*
X766377Y650282D01*
Y644156D01*
X747945Y625725D01*
X746896Y624153D01*
X746527Y622300D01*
Y619710D01*
X740870D01*
Y603710D01*
X740870Y600710D01*
X740870Y597710D01*
Y594210D01*
X761870D01*
Y597710D01*
X761870Y600710D01*
X761870Y603710D01*
Y619710D01*
X759872D01*
X758629Y622710D01*
X770605Y634686D01*
X773377Y633538D01*
Y619710D01*
X767540D01*
Y603710D01*
X767540Y600710D01*
X767540Y597710D01*
Y594210D01*
X788540D01*
Y597710D01*
X788540Y600710D01*
X788540Y603710D01*
Y619710D01*
X783063D01*
Y633178D01*
X785835Y634326D01*
X797451Y622710D01*
X796208Y619710D01*
X792940D01*
Y603710D01*
X792940Y600710D01*
X792940Y597710D01*
Y594210D01*
X813940D01*
Y597710D01*
X813940Y600710D01*
X813940Y603710D01*
Y619710D01*
X808283D01*
Y623570D01*
X807914Y625423D01*
X806865Y626995D01*
X790063Y643796D01*
Y650282D01*
X791345Y651334D01*
X793095D01*
X794607Y651635D01*
X795720Y652379D01*
X796833Y651635D01*
X798345Y651334D01*
X800095D01*
X801607Y651635D01*
X802889Y652491D01*
X803745Y653773D01*
X804046Y655285D01*
Y698535D01*
X803745Y700047D01*
X802889Y701329D01*
X801607Y702185D01*
X800095Y702486D01*
D02*
G37*
G36*
X442980Y698270D02*
X441980D01*
Y694210D01*
X449314D01*
X449095Y694740D01*
X447972Y696202D01*
X446510Y697325D01*
X444807Y698030D01*
X442980Y698270D01*
D02*
G37*
G36*
X435980D02*
X434980D01*
X433153Y698030D01*
X431450Y697325D01*
X429988Y696202D01*
X428866Y694740D01*
X428646Y694210D01*
X435980D01*
Y698270D01*
D02*
G37*
G36*
X486030Y699531D02*
X483780D01*
Y694210D01*
X493717D01*
X493236Y695371D01*
X491914Y697094D01*
X490191Y698416D01*
X488184Y699248D01*
X486030Y699531D01*
D02*
G37*
G36*
X477780D02*
X475530D01*
X473376Y699248D01*
X471369Y698416D01*
X469646Y697094D01*
X468324Y695371D01*
X467843Y694210D01*
X477780D01*
Y699531D01*
D02*
G37*
G36*
X449314Y688210D02*
X441980D01*
Y684150D01*
X442980D01*
X444807Y684390D01*
X446510Y685096D01*
X447972Y686218D01*
X449095Y687680D01*
X449314Y688210D01*
D02*
G37*
G36*
X435980D02*
X428646D01*
X428866Y687680D01*
X429988Y686218D01*
X431450Y685096D01*
X433153Y684390D01*
X434980Y684150D01*
X435980D01*
Y688210D01*
D02*
G37*
G36*
X493717Y688210D02*
X467843D01*
X468324Y687049D01*
X469646Y685326D01*
X470614Y684583D01*
X471118Y682164D01*
X470950Y680930D01*
X469893Y679349D01*
X469408Y676910D01*
X469893Y674471D01*
X471274Y672404D01*
X473341Y671023D01*
X475780Y670537D01*
X478219Y671023D01*
X480286Y672404D01*
X481667Y674471D01*
X482152Y676910D01*
X481667Y679349D01*
X481306Y679889D01*
X482910Y682889D01*
X486030D01*
X488184Y683172D01*
X490191Y684004D01*
X491914Y685326D01*
X493236Y687049D01*
X493717Y688210D01*
D02*
G37*
G36*
X904230Y660633D02*
Y653240D01*
X911623D01*
X910620Y655661D01*
X908897Y657907D01*
X906651Y659630D01*
X904230Y660633D01*
D02*
G37*
G36*
X898230D02*
X895809Y659630D01*
X893563Y657907D01*
X891840Y655661D01*
X890837Y653240D01*
X898230D01*
Y660633D01*
D02*
G37*
G36*
X523110Y697380D02*
X502110D01*
Y693880D01*
X502110Y690880D01*
X502110Y687880D01*
Y671880D01*
X507767D01*
Y666768D01*
X506904Y666106D01*
X505622Y664435D01*
X504816Y662488D01*
X504541Y660400D01*
X504816Y658312D01*
X505622Y656366D01*
X506904Y654694D01*
X508576Y653412D01*
X510522Y652606D01*
X512610Y652331D01*
X514698Y652606D01*
X516645Y653412D01*
X518316Y654694D01*
X519598Y656366D01*
X520404Y658312D01*
X520679Y660400D01*
X520404Y662488D01*
X519598Y664435D01*
X518316Y666106D01*
X517453Y666768D01*
Y671880D01*
X523110D01*
Y687880D01*
X523110Y690880D01*
X523110Y693880D01*
Y697380D01*
D02*
G37*
G36*
X911623Y647240D02*
X904230D01*
Y639847D01*
X906651Y640850D01*
X908897Y642573D01*
X910620Y644819D01*
X911623Y647240D01*
D02*
G37*
G36*
X898230D02*
X890837D01*
X891840Y644819D01*
X893563Y642573D01*
X895809Y640850D01*
X898230Y639847D01*
Y647240D01*
D02*
G37*
G36*
X962780Y660990D02*
X941280D01*
Y639490D01*
X946167D01*
Y626140D01*
X946280Y625574D01*
Y617890D01*
X957780D01*
Y625574D01*
X957893Y626140D01*
Y639490D01*
X962780D01*
Y660990D01*
D02*
G37*
G36*
X442980Y611870D02*
X441980D01*
Y607810D01*
X449314D01*
X449095Y608340D01*
X447972Y609803D01*
X446510Y610924D01*
X444807Y611630D01*
X442980Y611870D01*
D02*
G37*
G36*
X435980D02*
X434980D01*
X433153Y611630D01*
X431450Y610924D01*
X429988Y609803D01*
X428866Y608340D01*
X428646Y607810D01*
X435980D01*
Y611870D01*
D02*
G37*
G36*
X475780Y625482D02*
X473341Y624997D01*
X471274Y623616D01*
X469893Y621549D01*
X469408Y619110D01*
X469893Y616671D01*
X470950Y615090D01*
X471118Y613856D01*
X470614Y611437D01*
X469646Y610694D01*
X468324Y608971D01*
X467843Y607810D01*
X493717D01*
X493236Y608971D01*
X491914Y610694D01*
X490191Y612016D01*
X488184Y612848D01*
X486030Y613131D01*
X482910D01*
X481306Y616131D01*
X481667Y616671D01*
X482152Y619110D01*
X481667Y621549D01*
X480286Y623616D01*
X478219Y624997D01*
X475780Y625482D01*
D02*
G37*
G36*
X512610Y644339D02*
X510522Y644064D01*
X508576Y643258D01*
X506904Y641976D01*
X505622Y640305D01*
X504816Y638358D01*
X504541Y636270D01*
X504816Y634182D01*
X505622Y632235D01*
X506904Y630564D01*
X507767Y629902D01*
Y623520D01*
X502110D01*
Y607520D01*
X502110Y604520D01*
X502110Y601520D01*
Y598020D01*
X523110D01*
Y601520D01*
X523110Y604520D01*
X523110Y607520D01*
Y623520D01*
X517453D01*
Y629902D01*
X518316Y630564D01*
X519598Y632235D01*
X520404Y634182D01*
X520679Y636270D01*
X520404Y638358D01*
X519598Y640305D01*
X518316Y641976D01*
X516645Y643258D01*
X514698Y644064D01*
X512610Y644339D01*
D02*
G37*
G36*
X449314Y601810D02*
X441980D01*
Y597750D01*
X442980D01*
X444807Y597990D01*
X446510Y598696D01*
X447972Y599818D01*
X449095Y601280D01*
X449314Y601810D01*
D02*
G37*
G36*
X435980D02*
X428646D01*
X428866Y601280D01*
X429988Y599818D01*
X431450Y598696D01*
X433153Y597990D01*
X434980Y597750D01*
X435980D01*
Y601810D01*
D02*
G37*
G36*
X493717Y601810D02*
X467843D01*
X468324Y600649D01*
X469646Y598926D01*
X471369Y597604D01*
X473376Y596772D01*
X475530Y596489D01*
X478430D01*
X479188Y593489D01*
X478772Y593264D01*
X478677Y593225D01*
X478438Y593126D01*
X476825Y592458D01*
X475154Y591176D01*
X473872Y589505D01*
X473443Y588470D01*
X488276D01*
X487848Y589505D01*
X486566Y591176D01*
X484894Y592458D01*
X483282Y593126D01*
X483043Y593225D01*
X482948Y593264D01*
X482532Y593489D01*
X483290Y596489D01*
X486030D01*
X488184Y596772D01*
X490191Y597604D01*
X491914Y598926D01*
X493236Y600649D01*
X493717Y601810D01*
D02*
G37*
G36*
X523110Y592020D02*
X515610D01*
Y585520D01*
X523110D01*
Y592020D01*
D02*
G37*
G36*
X509610D02*
X502110D01*
Y585520D01*
X509610D01*
Y592020D01*
D02*
G37*
G36*
X788540Y588210D02*
X781040D01*
Y581710D01*
X788540D01*
Y588210D01*
D02*
G37*
G36*
X775040D02*
X767540D01*
Y581710D01*
X775040D01*
Y588210D01*
D02*
G37*
G36*
X813940D02*
X806440D01*
Y581710D01*
X813940D01*
Y588210D01*
D02*
G37*
G36*
X800440D02*
X792940D01*
Y581710D01*
X800440D01*
Y588210D01*
D02*
G37*
G36*
X761870D02*
X754370D01*
Y581710D01*
X761870D01*
Y588210D01*
D02*
G37*
G36*
X748370D02*
X740870D01*
Y581710D01*
X748370D01*
Y588210D01*
D02*
G37*
G36*
X433410Y588580D02*
X425410D01*
Y579580D01*
X433410D01*
Y588580D01*
D02*
G37*
G36*
X419410D02*
X411410D01*
Y579580D01*
X419410D01*
Y588580D01*
D02*
G37*
G36*
X488276Y582470D02*
X483860D01*
Y578054D01*
X484894Y578482D01*
X486566Y579764D01*
X487848Y581436D01*
X488276Y582470D01*
D02*
G37*
G36*
X477860D02*
X473443D01*
X473872Y581436D01*
X475154Y579764D01*
X476825Y578482D01*
X477860Y578054D01*
Y582470D01*
D02*
G37*
G36*
X548170Y635449D02*
X546082Y635174D01*
X544136Y634368D01*
X542464Y633086D01*
X541182Y631415D01*
X540376Y629468D01*
X540101Y627380D01*
X540376Y625292D01*
X541182Y623345D01*
X542052Y622211D01*
Y591814D01*
X511486Y561248D01*
X489550D01*
Y563130D01*
X477074D01*
X476550Y563199D01*
X463838D01*
X461410Y564580D01*
Y588580D01*
X439410D01*
Y567245D01*
X439410Y565490D01*
X437597Y565490D01*
X433410D01*
Y573580D01*
X411410D01*
Y564580D01*
X421220D01*
Y557990D01*
X430720D01*
Y554990D01*
X433720D01*
Y544490D01*
X437220D01*
X440220Y544490D01*
Y544490D01*
X440220D01*
Y544490D01*
X459220D01*
Y547061D01*
X476550D01*
X477074Y547130D01*
X489550D01*
Y549012D01*
X514020D01*
X516361Y549478D01*
X518346Y550804D01*
X552496Y584954D01*
X553822Y586939D01*
X554287Y589280D01*
Y622211D01*
X555158Y623345D01*
X555964Y625292D01*
X556239Y627380D01*
X555964Y629468D01*
X555158Y631415D01*
X553876Y633086D01*
X552205Y634368D01*
X550258Y635174D01*
X548170Y635449D01*
D02*
G37*
G36*
X957780Y606390D02*
X946280D01*
Y589890D01*
X946422D01*
Y585974D01*
X920286Y559838D01*
X901319D01*
X900184Y560708D01*
X898238Y561514D01*
X896150Y561789D01*
X894062Y561514D01*
X892115Y560708D01*
X890444Y559426D01*
X889162Y557755D01*
X888356Y555808D01*
X888081Y553720D01*
X888356Y551632D01*
X889162Y549686D01*
X890444Y548014D01*
X892115Y546732D01*
X894062Y545926D01*
X896150Y545651D01*
X898238Y545926D01*
X900184Y546732D01*
X901319Y547603D01*
X922820D01*
X925161Y548068D01*
X927146Y549394D01*
X956356Y578604D01*
X957682Y580589D01*
X958148Y582930D01*
X957682Y585271D01*
X957638Y585337D01*
Y589890D01*
X957780D01*
Y606390D01*
D02*
G37*
G36*
X580260Y561290D02*
X572760D01*
Y554790D01*
X580260D01*
Y561290D01*
D02*
G37*
G36*
X566760D02*
X559260D01*
Y554790D01*
X566760D01*
Y561290D01*
D02*
G37*
G36*
X602320Y554786D02*
X601286Y554358D01*
X599614Y553076D01*
X598332Y551405D01*
X597904Y550370D01*
X602320D01*
Y554786D01*
D02*
G37*
G36*
X427720Y551990D02*
X421220D01*
Y544490D01*
X427720D01*
Y551990D01*
D02*
G37*
G36*
X634730Y523580D02*
X628230D01*
Y516080D01*
X634730D01*
Y523580D01*
D02*
G37*
G36*
X850430Y661083D02*
X847624Y660713D01*
X845009Y659630D01*
X842763Y657907D01*
X841040Y655661D01*
X839957Y653046D01*
X839587Y650240D01*
X839957Y647434D01*
X841040Y644819D01*
X842763Y642573D01*
X845009Y640850D01*
X845587Y640610D01*
Y603986D01*
X757528Y515927D01*
X756450Y516069D01*
X754362Y515794D01*
X752415Y514988D01*
X750744Y513706D01*
X749462Y512035D01*
X748656Y510089D01*
X748381Y508000D01*
X748656Y505912D01*
X749462Y503965D01*
X750744Y502294D01*
X752415Y501012D01*
X754362Y500206D01*
X756450Y499931D01*
X758538Y500206D01*
X760484Y501012D01*
X762156Y502294D01*
X763438Y503965D01*
X764244Y505912D01*
X764519Y508000D01*
X764377Y509078D01*
X853855Y598555D01*
X854904Y600127D01*
X855273Y601980D01*
Y640610D01*
X855851Y640850D01*
X858097Y642573D01*
X859820Y644819D01*
X860903Y647434D01*
X861273Y650240D01*
X860903Y653046D01*
X859820Y655661D01*
X858097Y657907D01*
X855851Y659630D01*
X853236Y660713D01*
X850430Y661083D01*
D02*
G37*
G36*
X489550Y517130D02*
X479550D01*
Y512130D01*
X489550D01*
Y517130D01*
D02*
G37*
G36*
X706870Y510080D02*
X700370D01*
Y502580D01*
X706870D01*
Y510080D01*
D02*
G37*
G36*
X634730D02*
X628230D01*
Y502580D01*
X634730D01*
Y510080D01*
D02*
G37*
G36*
X489550Y506130D02*
X479550D01*
Y501130D01*
X489550D01*
Y506130D01*
D02*
G37*
G36*
X473550D02*
X463550D01*
Y501130D01*
X473550D01*
Y506130D01*
D02*
G37*
G36*
X852420Y493330D02*
X842520D01*
Y490680D01*
X852420D01*
Y493330D01*
D02*
G37*
G36*
X474110Y494600D02*
X466110D01*
Y485600D01*
X474110D01*
Y494600D01*
D02*
G37*
G36*
X460110D02*
X452110D01*
Y485600D01*
X460110D01*
Y494600D01*
D02*
G37*
G36*
Y479600D02*
X452110D01*
Y470600D01*
X460110D01*
Y479600D01*
D02*
G37*
G36*
X613750Y459280D02*
X605750D01*
Y450280D01*
X613750D01*
Y459280D01*
D02*
G37*
G36*
X599750D02*
X591750D01*
Y450280D01*
X599750D01*
Y459280D01*
D02*
G37*
G36*
X925155Y450818D02*
X923280D01*
Y441000D01*
X933098D01*
Y442875D01*
X932827Y444931D01*
X932034Y446847D01*
X930771Y448492D01*
X929127Y449754D01*
X927211Y450547D01*
X925155Y450818D01*
D02*
G37*
G36*
X917280D02*
X915405D01*
X913349Y450547D01*
X911433Y449754D01*
X909789Y448492D01*
X908526Y446847D01*
X907733Y444931D01*
X907462Y442875D01*
Y441000D01*
X917280D01*
Y450818D01*
D02*
G37*
G36*
X598510Y442530D02*
X590510D01*
Y433530D01*
X598510D01*
Y442530D01*
D02*
G37*
G36*
X584510D02*
X576510D01*
Y433530D01*
X584510D01*
Y442530D01*
D02*
G37*
G36*
X883050Y437450D02*
X875050D01*
Y428450D01*
X883050D01*
Y437450D01*
D02*
G37*
G36*
X869050D02*
X861050D01*
Y428450D01*
X869050D01*
Y437450D01*
D02*
G37*
G36*
X933098Y435000D02*
X923280D01*
Y425182D01*
X925155D01*
X927211Y425453D01*
X929127Y426246D01*
X930771Y427509D01*
X932034Y429154D01*
X932827Y431069D01*
X933098Y433125D01*
Y435000D01*
D02*
G37*
G36*
X917280D02*
X907462D01*
Y433125D01*
X907733Y431069D01*
X908526Y429154D01*
X909789Y427509D01*
X911433Y426246D01*
X913349Y425453D01*
X915405Y425182D01*
X917280D01*
Y435000D01*
D02*
G37*
G36*
X883050Y422450D02*
X875050D01*
Y413450D01*
X883050D01*
Y422450D01*
D02*
G37*
G36*
X869050D02*
X861050D01*
Y413450D01*
X869050D01*
Y422450D01*
D02*
G37*
G36*
X562710Y407270D02*
X553710D01*
Y399270D01*
X562710D01*
Y407270D01*
D02*
G37*
G36*
Y393270D02*
X553710D01*
Y385270D01*
X562710D01*
Y393270D01*
D02*
G37*
G36*
X447380Y389430D02*
X438380D01*
Y381430D01*
X447380D01*
Y389430D01*
D02*
G37*
G36*
Y375430D02*
X438380D01*
Y367430D01*
X447380D01*
Y375430D01*
D02*
G37*
G36*
X940020Y294963D02*
Y287840D01*
X947142D01*
X946192Y290135D01*
X944509Y292329D01*
X942315Y294012D01*
X940020Y294963D01*
D02*
G37*
G36*
X934020Y294963D02*
X931725Y294012D01*
X929531Y292329D01*
X927848Y290135D01*
X926898Y287840D01*
X934020D01*
Y294963D01*
D02*
G37*
G36*
X680440Y294963D02*
Y287840D01*
X687562D01*
X686612Y290135D01*
X684929Y292329D01*
X682735Y294012D01*
X680440Y294963D01*
D02*
G37*
G36*
X674440Y294963D02*
X672145Y294012D01*
X669951Y292329D01*
X668268Y290135D01*
X667318Y287840D01*
X674440D01*
Y294963D01*
D02*
G37*
G36*
X875020Y294963D02*
Y287840D01*
X882142D01*
X881192Y290135D01*
X879509Y292329D01*
X877315Y294012D01*
X875020Y294963D01*
D02*
G37*
G36*
X869020D02*
X866725Y294012D01*
X864531Y292329D01*
X862848Y290135D01*
X861898Y287840D01*
X869020D01*
Y294963D01*
D02*
G37*
G36*
X745230D02*
Y287840D01*
X752353D01*
X751402Y290135D01*
X749719Y292329D01*
X747525Y294012D01*
X745230Y294963D01*
D02*
G37*
G36*
X739230D02*
X736935Y294012D01*
X734741Y292329D01*
X733058Y290135D01*
X732108Y287840D01*
X739230D01*
Y294963D01*
D02*
G37*
G36*
X615440D02*
Y287840D01*
X622562D01*
X621612Y290135D01*
X619929Y292329D01*
X617735Y294012D01*
X615440Y294963D01*
D02*
G37*
G36*
X609440D02*
X607145Y294012D01*
X604951Y292329D01*
X603268Y290135D01*
X602318Y287840D01*
X609440D01*
Y294963D01*
D02*
G37*
G36*
X810230D02*
Y287840D01*
X817353D01*
X816402Y290135D01*
X814719Y292329D01*
X812525Y294012D01*
X810230Y294963D01*
D02*
G37*
G36*
X804230D02*
X801935Y294012D01*
X799741Y292329D01*
X798058Y290135D01*
X797107Y287840D01*
X804230D01*
Y294963D01*
D02*
G37*
G36*
X550650D02*
Y287840D01*
X557772D01*
X556822Y290135D01*
X555139Y292329D01*
X552945Y294012D01*
X550650Y294963D01*
D02*
G37*
G36*
X544650D02*
X542355Y294012D01*
X540161Y292329D01*
X538478Y290135D01*
X537528Y287840D01*
X544650D01*
Y294963D01*
D02*
G37*
G36*
X485650D02*
Y287840D01*
X492772D01*
X491822Y290135D01*
X490139Y292329D01*
X487945Y294012D01*
X485650Y294963D01*
D02*
G37*
G36*
X479650D02*
X477355Y294012D01*
X475161Y292329D01*
X473478Y290135D01*
X472528Y287840D01*
X479650D01*
Y294963D01*
D02*
G37*
G36*
X947142Y281840D02*
X940020D01*
Y274718D01*
X942315Y275668D01*
X944509Y277351D01*
X946192Y279545D01*
X947142Y281840D01*
D02*
G37*
G36*
X687562D02*
X680440D01*
Y274718D01*
X682735Y275668D01*
X684929Y277351D01*
X686612Y279545D01*
X687562Y281840D01*
D02*
G37*
G36*
X882142Y281840D02*
X875020D01*
Y274718D01*
X877315Y275668D01*
X879509Y277351D01*
X881192Y279545D01*
X882142Y281840D01*
D02*
G37*
G36*
X869020D02*
X861898D01*
X862848Y279545D01*
X864531Y277351D01*
X866725Y275668D01*
X869020Y274718D01*
Y281840D01*
D02*
G37*
G36*
X817352Y281840D02*
X810230D01*
Y274718D01*
X812525Y275668D01*
X814719Y277351D01*
X816402Y279545D01*
X817352Y281840D01*
D02*
G37*
G36*
X804230D02*
X797108D01*
X798058Y279545D01*
X799741Y277351D01*
X801935Y275668D01*
X804230Y274718D01*
Y281840D01*
D02*
G37*
G36*
X752353Y281840D02*
X745230D01*
Y274718D01*
X747525Y275668D01*
X749719Y277351D01*
X751402Y279545D01*
X752353Y281840D01*
D02*
G37*
G36*
X739230D02*
X732108D01*
X733058Y279545D01*
X734741Y277351D01*
X736935Y275668D01*
X739230Y274718D01*
Y281840D01*
D02*
G37*
G36*
X622562D02*
X615440D01*
Y274718D01*
X617735Y275668D01*
X619929Y277351D01*
X621612Y279545D01*
X622562Y281840D01*
D02*
G37*
G36*
X609440D02*
X602318D01*
X603268Y279545D01*
X604951Y277351D01*
X607145Y275668D01*
X609440Y274718D01*
Y281840D01*
D02*
G37*
G36*
X557772Y281840D02*
X550650D01*
Y274718D01*
X552945Y275668D01*
X555139Y277351D01*
X556822Y279545D01*
X557772Y281840D01*
D02*
G37*
G36*
X544650D02*
X537528D01*
X538478Y279545D01*
X540161Y277351D01*
X542355Y275668D01*
X544650Y274718D01*
Y281840D01*
D02*
G37*
G36*
X492772Y281840D02*
X485650D01*
Y274718D01*
X487945Y275668D01*
X490139Y277351D01*
X491822Y279545D01*
X492772Y281840D01*
D02*
G37*
G36*
X479650D02*
X472528D01*
X473478Y279545D01*
X475161Y277351D01*
X477355Y275668D01*
X479650Y274718D01*
Y281840D01*
D02*
G37*
G36*
X934020Y281840D02*
X926898D01*
X927848Y279545D01*
X929531Y277351D01*
X931725Y275668D01*
X934020Y274718D01*
Y281840D01*
D02*
G37*
G36*
X674440D02*
X667318D01*
X668268Y279545D01*
X669951Y277351D01*
X672145Y275668D01*
X674440Y274718D01*
Y281840D01*
D02*
G37*
%LPD*%
G36*
X802407Y424916D02*
X789054Y411563D01*
X751370D01*
Y419381D01*
X752425Y420085D01*
X774891Y442552D01*
X777320Y443930D01*
X802407D01*
Y424916D01*
D02*
G37*
D12*
X1602740Y593090D02*
Y598140D01*
Y1143470D02*
Y1148520D01*
X952030Y593090D02*
Y598140D01*
Y1143470D02*
Y1148520D01*
D13*
X1287330Y579970D02*
X1317170Y609810D01*
X1315930Y632460D02*
X1316930Y633460D01*
X1315690Y611560D02*
Y632460D01*
X1317650Y535940D02*
Y536940D01*
Y534940D02*
Y535940D01*
X1307440Y513080D02*
X1307017D01*
X1329080D02*
X1307440D01*
X1329625D02*
X1329080D01*
X1106510Y411480D02*
X1105510Y412480D01*
X1133360Y329840D02*
X1096370D01*
X1198360D02*
X1133360D01*
X1379930Y676910D02*
Y692150D01*
Y502210D02*
Y676910D01*
X1237970Y403190D02*
X1242570Y407790D01*
X1242600Y371570D02*
Y381730D01*
X1521460Y480670D02*
X1509370D01*
X1522460D02*
X1521460D01*
X1433680Y449580D02*
X1425780D01*
X1263150Y329840D02*
X1221740D01*
X1260930Y676910D02*
Y692150D01*
Y648790D02*
Y676910D01*
X1164590Y614020D02*
X1163320Y615290D01*
X1276960Y462280D02*
X1279500Y464820D01*
X1292860D02*
X1279500D01*
X1276960Y461280D02*
Y462280D01*
X1281710Y456530D02*
X1276960Y461280D01*
X1343690Y632460D02*
Y640050D01*
X1353820Y329540D02*
Y341630D01*
X1449930Y703990D02*
X1449070Y704850D01*
X1449930Y676910D02*
Y703990D01*
X1442930Y709720D02*
X1442720Y709930D01*
X1442930Y676910D02*
Y709720D01*
X1449930Y676910D02*
X1442930D01*
X1330930Y707360D02*
X1330960Y707390D01*
X1330930Y676910D02*
Y707360D01*
X1309930Y704290D02*
X1309370Y704850D01*
X1309930Y676910D02*
Y704290D01*
X1295930Y705590D02*
X1295400Y706120D01*
X1295930Y676910D02*
Y705590D01*
X1246930Y704640D02*
X1247140Y704850D01*
X1246930Y676910D02*
Y704640D01*
X1148080Y386080D02*
X1125660D01*
X1148080D02*
X1156970Y394970D01*
X1242600Y381730D02*
X1242060Y382270D01*
X1247140Y367030D02*
X1242600Y371570D01*
X1308100Y367030D02*
X1247140D01*
X1318260D02*
X1308100D01*
X1236980Y356870D02*
X1229360Y364490D01*
X1296670Y356870D02*
X1236980D01*
X1229360Y364490D02*
Y395580D01*
X1125660Y424180D02*
X1085850D01*
X1156970Y394970D02*
Y458470D01*
X1125660Y436880D02*
X1065530D01*
X1100430Y554990D02*
X1100570Y555130D01*
X1317650Y563610D02*
Y582930D01*
Y562610D02*
Y563610D01*
X1163320Y615290D02*
Y636270D01*
X1253930Y653220D02*
Y676910D01*
Y692150D01*
X1245870Y645160D02*
X1253930Y653220D01*
X1245870Y581660D02*
Y645160D01*
X1300970Y573550D02*
X1299210Y575310D01*
X1317650Y563610D02*
X1307710Y573550D01*
X1300970D01*
X1287330Y566964D02*
Y579970D01*
X1312604Y541690D02*
X1287330Y566964D01*
X1317170Y609810D02*
X1281930Y645050D01*
X1307440Y526730D02*
X1310900Y530190D01*
X1312900D02*
X1317650Y534940D01*
X1312900Y530190D02*
X1310900D01*
X1307440Y513080D02*
Y526730D01*
X1317650Y535940D02*
X1223620D01*
X1220470Y532790D02*
X1223620Y535940D01*
X1220470Y531520D02*
X1219860Y532130D01*
X1317650Y536940D02*
X1312900Y541690D01*
X1312604D01*
X1336650Y562610D02*
Y563610D01*
Y535940D02*
Y562610D01*
X1356360Y583320D02*
Y640080D01*
X1336650Y563610D02*
X1356360Y583320D01*
X1343690Y632460D02*
X1342642D01*
X1344142D02*
X1343690D01*
X1336650Y582930D02*
Y585470D01*
X1336650Y585470D01*
Y608330D01*
X1330010Y478470D02*
X1323340Y485140D01*
X1206500Y474980D02*
X1216660Y485140D01*
X1323340D02*
X1216660D01*
X1330010Y467868D02*
Y478470D01*
X1322010Y472243D02*
X1321220Y473033D01*
X1322010Y467868D02*
Y472243D01*
X1321220Y473033D02*
X1316845D01*
X1313628Y476250D02*
X1228090D01*
X1316845Y473033D02*
X1313628Y476250D01*
X1215590Y463750D02*
X1228090Y476250D01*
X1237970Y403190D02*
X1236970D01*
X1229360Y395580D02*
X1236970Y403190D01*
X1242570Y407790D02*
Y408790D01*
X1322070Y356870D02*
X1296670D01*
X1365930Y676910D02*
Y692150D01*
Y500970D02*
Y676910D01*
X1291780Y422720D02*
X1282700Y431800D01*
X1275080Y607720D02*
X1271390Y611410D01*
X1264380D01*
X1259990Y615800D01*
Y635150D02*
X1267930Y643090D01*
X1259990Y615800D02*
Y635150D01*
X1253490Y641350D02*
X1260930Y648790D01*
X1253490Y603860D02*
Y641350D01*
X1269330Y588020D02*
X1253490Y603860D01*
X1264260Y563270D02*
X1245870Y581660D01*
X1267930Y643090D02*
Y676910D01*
X1275080Y563270D02*
X1264260D01*
X1419860Y461627D02*
Y473860D01*
X1397743Y439510D02*
X1419860Y461627D01*
Y473860D02*
X1433680Y487680D01*
X1465580Y419100D02*
Y514350D01*
X1526540Y575310D01*
Y650240D01*
X1503680Y474980D02*
X1490230D01*
X1503680D02*
X1509370Y480670D01*
X1188150Y485840D02*
X1171640D01*
X1188850Y485140D02*
X1188150Y485840D01*
X1156970Y458470D02*
X1173480Y474980D01*
X1141730Y398780D02*
X1145540Y402590D01*
Y459740D02*
X1171640Y485840D01*
X1145540Y402590D02*
Y459740D01*
X1141730Y398780D02*
X1125660D01*
X1205340Y463550D02*
X1205540Y463750D01*
X1215590D02*
X1205540D01*
X1206500Y474980D02*
X1173480D01*
X1163320Y660400D02*
Y681380D01*
X1115060Y314960D02*
X1100430D01*
X1107630Y449620D02*
X1107590Y449660D01*
X1125660Y449580D02*
X1125620Y449620D01*
X1095090Y449660D02*
X1094590D01*
X1125620Y449620D02*
X1107630D01*
X1521460Y461670D02*
X1520850Y462280D01*
X1490230D01*
X1577340Y614680D02*
Y650240D01*
X1473200Y510540D02*
X1577340Y614680D01*
X1473200Y415290D02*
Y510540D01*
X1275080Y582270D02*
X1274080D01*
X1269330Y587020D01*
Y588020D01*
X1341642Y631460D02*
X1342642Y632460D01*
X1402080Y610210D02*
Y622300D01*
X1454150Y610210D02*
Y623570D01*
X1435930Y641790D01*
Y676910D01*
X1428930Y610390D02*
Y675640D01*
X1421930Y642150D02*
Y676910D01*
X1402080Y622300D02*
X1421930Y642150D01*
X1379930Y676910D02*
X1372930D01*
X1356360Y640080D02*
X1344930Y651510D01*
Y676910D01*
X1343690Y640050D02*
X1337930Y645810D01*
X1341642Y616130D02*
Y631460D01*
X1341400Y615888D02*
X1341642Y616130D01*
X1341400Y613080D02*
Y615888D01*
X1336650Y608330D02*
X1341400Y613080D01*
X1313642Y632460D02*
X1302930Y643172D01*
X1275080Y626720D02*
X1274930Y626870D01*
X1337930Y645810D02*
Y676910D01*
X1316930Y633460D02*
Y676910D01*
X1302930Y643172D02*
Y676910D01*
X1281930Y645050D02*
Y676910D01*
X1274930Y626870D02*
Y676910D01*
X1317650Y608330D02*
Y609330D01*
X1316142Y632460D02*
X1315930D01*
X1315690D01*
X1313642D01*
X1407160Y508000D02*
X1501140Y601980D01*
X1490980Y424840D02*
X1490370Y425450D01*
X1243330Y314960D02*
X1226160D01*
X1503680D02*
X1486510D01*
X1482090Y310540D02*
X1486510Y314960D01*
X1096010Y310540D02*
X1100430Y314960D01*
X1221740Y310540D02*
X1226160Y314960D01*
X1374140D02*
X1356970D01*
X1352550Y310540D02*
X1356970Y314960D01*
X1391920Y490220D02*
X1379930Y502210D01*
X1376680Y490220D02*
X1365930Y500970D01*
X1501140Y601980D02*
Y650240D01*
X1322070Y356870D02*
X1338010Y372810D01*
X1318260Y367030D02*
X1329220Y377990D01*
X1587730Y329840D02*
X1522730D01*
X1482578D02*
X1482578Y329840D01*
Y348372D01*
X1522730Y329840D02*
X1482578D01*
X1482578Y348372D02*
X1470502Y360448D01*
X1362010Y349820D02*
Y385572D01*
X1353820Y341630D02*
X1362010Y349820D01*
X1392640Y329540D02*
X1353820D01*
X1301660Y439510D02*
X1284640Y456530D01*
X1281710D01*
X1308862Y438720D02*
X1308072Y439510D01*
X1301660D01*
X1298776Y430964D02*
X1283970Y445770D01*
X1267460D01*
X1308618Y430964D02*
X1298776D01*
X1308862Y430720D02*
X1308618Y430964D01*
X1258570Y461670D02*
X1257960Y462280D01*
X1258570Y454660D02*
Y461670D01*
X1267460Y445770D02*
X1258570Y454660D01*
X1308862Y422720D02*
X1291780D01*
X1198360Y329840D02*
Y337460D01*
X1324610Y345440D02*
X1345766Y366596D01*
X1198360Y337460D02*
X1206340Y345440D01*
X1324610D02*
X1206340D01*
X1328150Y329840D02*
Y337460D01*
X1329220Y377990D02*
Y384782D01*
X1330010Y385572D01*
X1338010Y372810D02*
Y385572D01*
X1345766Y366596D02*
Y385328D01*
X1354010Y363320D02*
Y385572D01*
X1328150Y337460D02*
X1354010Y363320D01*
X1328150Y329840D02*
X1263150D01*
X1443482Y385572D02*
X1378010D01*
X1443482D02*
X1473200Y415290D01*
X1445200Y398720D02*
X1391158D01*
X1445200D02*
X1465580Y419100D01*
X1457960Y422910D02*
Y452500D01*
X1448180Y462280D01*
X1441770Y406720D02*
X1457960Y422910D01*
X1441770Y406720D02*
X1391158D01*
X1345766Y385328D02*
X1346010Y385572D01*
X1383262Y360448D02*
X1370010Y373700D01*
Y385572D01*
X1470502Y360448D02*
X1383262D01*
X1457940Y329840D02*
X1392940D01*
X1392640Y329540D02*
X1392940Y329840D01*
X1391158Y438720D02*
X1391948Y439510D01*
X1397743D02*
X1391948D01*
X1440930Y487680D02*
X1433680D01*
X1391158Y422720D02*
X1391948Y423510D01*
X1399710D02*
X1391948D01*
X1399710D02*
X1425780Y449580D01*
X1440930D02*
X1433680D01*
X1440930Y462280D02*
Y474980D01*
X1448180Y462280D02*
X1440930D01*
X1490370Y449440D02*
X1490230Y449580D01*
X1391158Y422720D02*
X1390368Y423510D01*
X1384573D01*
X1370010Y438073D01*
Y467868D01*
X1287330Y1130350D02*
X1317170Y1160190D01*
X1315930Y1182840D02*
X1316930Y1183840D01*
X1315690Y1161940D02*
Y1182840D01*
X1317650Y1086320D02*
Y1087320D01*
Y1085320D02*
Y1086320D01*
X1307440Y1063460D02*
X1307017D01*
X1329080D02*
X1307440D01*
X1329625D02*
X1329080D01*
X1106510Y961860D02*
X1105510Y962860D01*
X1133360Y880220D02*
X1096370D01*
X1198360D02*
X1133360D01*
X1379930Y1227290D02*
Y1242530D01*
Y1052590D02*
Y1227290D01*
X1237970Y953570D02*
X1242570Y958170D01*
X1242600Y921950D02*
Y932110D01*
X1521460Y1031050D02*
X1509370D01*
X1522460D02*
X1521460D01*
X1433680Y999960D02*
X1425780D01*
X1263150Y880220D02*
X1221740D01*
X1260930Y1227290D02*
Y1242530D01*
Y1199170D02*
Y1227290D01*
X1164590Y1164400D02*
X1163320Y1165670D01*
X1276960Y1012660D02*
X1279500Y1015200D01*
X1292860D02*
X1279500D01*
X1276960Y1011660D02*
Y1012660D01*
X1281710Y1006910D02*
X1276960Y1011660D01*
X1343690Y1182840D02*
Y1190430D01*
X1353820Y879920D02*
Y892010D01*
X1449930Y1254370D02*
X1449070Y1255230D01*
X1449930Y1227290D02*
Y1254370D01*
X1442930Y1260100D02*
X1442720Y1260310D01*
X1442930Y1227290D02*
Y1260100D01*
X1449930Y1227290D02*
X1442930D01*
X1330930Y1257740D02*
X1330960Y1257770D01*
X1330930Y1227290D02*
Y1257740D01*
X1309930Y1254670D02*
X1309370Y1255230D01*
X1309930Y1227290D02*
Y1254670D01*
X1295930Y1255970D02*
X1295400Y1256500D01*
X1295930Y1227290D02*
Y1255970D01*
X1246930Y1255020D02*
X1247140Y1255230D01*
X1246930Y1227290D02*
Y1255020D01*
X1148080Y936460D02*
X1125660D01*
X1148080D02*
X1156970Y945350D01*
X1242600Y932110D02*
X1242060Y932650D01*
X1247140Y917410D02*
X1242600Y921950D01*
X1308100Y917410D02*
X1247140D01*
X1318260D02*
X1308100D01*
X1236980Y907250D02*
X1229360Y914870D01*
X1296670Y907250D02*
X1236980D01*
X1229360Y914870D02*
Y945960D01*
X1125660Y974560D02*
X1085850D01*
X1156970Y945350D02*
Y1008850D01*
X1125660Y987260D02*
X1065530D01*
X1100430Y1105370D02*
X1100570Y1105510D01*
X1317650Y1113990D02*
Y1133310D01*
Y1112990D02*
Y1113990D01*
X1163320Y1165670D02*
Y1186650D01*
X1253930Y1203600D02*
Y1227290D01*
Y1242530D01*
X1245870Y1195540D02*
X1253930Y1203600D01*
X1245870Y1132040D02*
Y1195540D01*
X1300970Y1123930D02*
X1299210Y1125690D01*
X1317650Y1113990D02*
X1307710Y1123930D01*
X1300970D01*
X1287330Y1117344D02*
Y1130350D01*
X1312604Y1092070D02*
X1287330Y1117344D01*
X1317170Y1160190D02*
X1281930Y1195430D01*
X1307440Y1077110D02*
X1310900Y1080570D01*
X1312900D02*
X1317650Y1085320D01*
X1312900Y1080570D02*
X1310900D01*
X1307440Y1063460D02*
Y1077110D01*
X1317650Y1086320D02*
X1223620D01*
X1220470Y1083170D02*
X1223620Y1086320D01*
X1220470Y1081900D02*
X1219860Y1082510D01*
X1317650Y1087320D02*
X1312900Y1092070D01*
X1312604D01*
X1336650Y1112990D02*
Y1113990D01*
Y1086320D02*
Y1112990D01*
X1356360Y1133700D02*
Y1190460D01*
X1336650Y1113990D02*
X1356360Y1133700D01*
X1343690Y1182840D02*
X1342642D01*
X1344142D02*
X1343690D01*
X1336650Y1133310D02*
Y1135850D01*
X1336650Y1135850D01*
Y1158710D01*
X1330010Y1028850D02*
X1323340Y1035520D01*
X1206500Y1025360D02*
X1216660Y1035520D01*
X1323340D02*
X1216660D01*
X1330010Y1018248D02*
Y1028850D01*
X1322010Y1022623D02*
X1321220Y1023413D01*
X1322010Y1018248D02*
Y1022623D01*
X1321220Y1023413D02*
X1316845D01*
X1313628Y1026630D02*
X1228090D01*
X1316845Y1023413D02*
X1313628Y1026630D01*
X1215590Y1014130D02*
X1228090Y1026630D01*
X1237970Y953570D02*
X1236970D01*
X1229360Y945960D02*
X1236970Y953570D01*
X1242570Y958170D02*
Y959170D01*
X1322070Y907250D02*
X1296670D01*
X1365930Y1227290D02*
Y1242530D01*
Y1051350D02*
Y1227290D01*
X1291780Y973100D02*
X1282700Y982180D01*
X1275080Y1158100D02*
X1271390Y1161790D01*
X1264380D01*
X1259990Y1166180D01*
Y1185530D02*
X1267930Y1193470D01*
X1259990Y1166180D02*
Y1185530D01*
X1253490Y1191730D02*
X1260930Y1199170D01*
X1253490Y1154240D02*
Y1191730D01*
X1269330Y1138400D02*
X1253490Y1154240D01*
X1264260Y1113650D02*
X1245870Y1132040D01*
X1267930Y1193470D02*
Y1227290D01*
X1275080Y1113650D02*
X1264260D01*
X1419860Y1012007D02*
Y1024240D01*
X1397743Y989890D02*
X1419860Y1012007D01*
Y1024240D02*
X1433680Y1038060D01*
X1465580Y969480D02*
Y1064730D01*
X1526540Y1125690D01*
Y1200620D01*
X1503680Y1025360D02*
X1490230D01*
X1503680D02*
X1509370Y1031050D01*
X1188150Y1036220D02*
X1171640D01*
X1188850Y1035520D02*
X1188150Y1036220D01*
X1156970Y1008850D02*
X1173480Y1025360D01*
X1141730Y949160D02*
X1145540Y952970D01*
Y1010120D02*
X1171640Y1036220D01*
X1145540Y952970D02*
Y1010120D01*
X1141730Y949160D02*
X1125660D01*
X1205340Y1013930D02*
X1205540Y1014130D01*
X1215590D02*
X1205540D01*
X1206500Y1025360D02*
X1173480D01*
X1163320Y1210780D02*
Y1231760D01*
X1115060Y865340D02*
X1100430D01*
X1107630Y1000000D02*
X1107590Y1000040D01*
X1125660Y999960D02*
X1125620Y1000000D01*
X1095090Y1000040D02*
X1094590D01*
X1125620Y1000000D02*
X1107630D01*
X1521460Y1012050D02*
X1520850Y1012660D01*
X1490230D01*
X1577340Y1165060D02*
Y1200620D01*
X1473200Y1060920D02*
X1577340Y1165060D01*
X1473200Y965670D02*
Y1060920D01*
X1275080Y1132650D02*
X1274080D01*
X1269330Y1137400D01*
Y1138400D01*
X1341642Y1181840D02*
X1342642Y1182840D01*
X1402080Y1160590D02*
Y1172680D01*
X1454150Y1160590D02*
Y1173950D01*
X1435930Y1192170D01*
Y1227290D01*
X1428930Y1160770D02*
Y1226020D01*
X1421930Y1192530D02*
Y1227290D01*
X1402080Y1172680D02*
X1421930Y1192530D01*
X1379930Y1227290D02*
X1372930D01*
X1356360Y1190460D02*
X1344930Y1201890D01*
Y1227290D01*
X1343690Y1190430D02*
X1337930Y1196190D01*
X1341642Y1166510D02*
Y1181840D01*
X1341400Y1166268D02*
X1341642Y1166510D01*
X1341400Y1163460D02*
Y1166268D01*
X1336650Y1158710D02*
X1341400Y1163460D01*
X1313642Y1182840D02*
X1302930Y1193552D01*
X1275080Y1177100D02*
X1274930Y1177250D01*
X1337930Y1196190D02*
Y1227290D01*
X1316930Y1183840D02*
Y1227290D01*
X1302930Y1193552D02*
Y1227290D01*
X1281930Y1195430D02*
Y1227290D01*
X1274930Y1177250D02*
Y1227290D01*
X1317650Y1158710D02*
Y1159710D01*
X1316142Y1182840D02*
X1315930D01*
X1315690D01*
X1313642D01*
X1407160Y1058380D02*
X1501140Y1152360D01*
X1490980Y975220D02*
X1490370Y975830D01*
X1243330Y865340D02*
X1226160D01*
X1503680D02*
X1486510D01*
X1482090Y860920D02*
X1486510Y865340D01*
X1096010Y860920D02*
X1100430Y865340D01*
X1221740Y860920D02*
X1226160Y865340D01*
X1374140D02*
X1356970D01*
X1352550Y860920D02*
X1356970Y865340D01*
X1391920Y1040600D02*
X1379930Y1052590D01*
X1376680Y1040600D02*
X1365930Y1051350D01*
X1501140Y1152360D02*
Y1200620D01*
X1322070Y907250D02*
X1338010Y923190D01*
X1318260Y917410D02*
X1329220Y928370D01*
X1587730Y880220D02*
X1522730D01*
X1482578D02*
X1482578Y880220D01*
Y898752D01*
X1522730Y880220D02*
X1482578D01*
X1482578Y898752D02*
X1470502Y910829D01*
X1362010Y900200D02*
Y935952D01*
X1353820Y892010D02*
X1362010Y900200D01*
X1392640Y879920D02*
X1353820D01*
X1301660Y989890D02*
X1284640Y1006910D01*
X1281710D01*
X1308862Y989100D02*
X1308072Y989890D01*
X1301660D01*
X1298776Y981344D02*
X1283970Y996150D01*
X1267460D01*
X1308618Y981344D02*
X1298776D01*
X1308862Y981100D02*
X1308618Y981344D01*
X1258570Y1012050D02*
X1257960Y1012660D01*
X1258570Y1005040D02*
Y1012050D01*
X1267460Y996150D02*
X1258570Y1005040D01*
X1308862Y973100D02*
X1291780D01*
X1198360Y880220D02*
Y887840D01*
X1324610Y895820D02*
X1345766Y916976D01*
X1198360Y887840D02*
X1206340Y895820D01*
X1324610D02*
X1206340D01*
X1328150Y880220D02*
Y887840D01*
X1329220Y928370D02*
Y935162D01*
X1330010Y935952D01*
X1338010Y923190D02*
Y935952D01*
X1345766Y916976D02*
Y935708D01*
X1354010Y913700D02*
Y935952D01*
X1328150Y887840D02*
X1354010Y913700D01*
X1328150Y880220D02*
X1263150D01*
X1443482Y935952D02*
X1378010D01*
X1443482D02*
X1473200Y965670D01*
X1445200Y949100D02*
X1391158D01*
X1445200D02*
X1465580Y969480D01*
X1457960Y973290D02*
Y1002880D01*
X1448180Y1012660D01*
X1441770Y957100D02*
X1457960Y973290D01*
X1441770Y957100D02*
X1391158D01*
X1345766Y935708D02*
X1346010Y935952D01*
X1383262Y910829D02*
X1370010Y924080D01*
Y935952D01*
X1470502Y910829D02*
X1383262D01*
X1457940Y880220D02*
X1392940D01*
X1392640Y879920D02*
X1392940Y880220D01*
X1391158Y989100D02*
X1391948Y989890D01*
X1397743D02*
X1391948D01*
X1440930Y1038060D02*
X1433680D01*
X1391158Y973100D02*
X1391948Y973890D01*
X1399710D02*
X1391948D01*
X1399710D02*
X1425780Y999960D01*
X1440930D02*
X1433680D01*
X1440930Y1012660D02*
Y1025360D01*
X1448180Y1012660D02*
X1440930D01*
X1490370Y999820D02*
X1490230Y999960D01*
X1391158Y973100D02*
X1390368Y973890D01*
X1384573D01*
X1370010Y988453D01*
Y1018248D01*
X636620Y579970D02*
X666460Y609810D01*
X665220Y632460D02*
X666220Y633460D01*
X664980Y611560D02*
Y632460D01*
X666940Y535940D02*
Y536940D01*
Y534940D02*
Y535940D01*
X656730Y513080D02*
X656307D01*
X678370D02*
X656730D01*
X678915D02*
X678370D01*
X455800Y411480D02*
X454800Y412480D01*
X482650Y329840D02*
X445660D01*
X547650D02*
X482650D01*
X729220Y676910D02*
Y692150D01*
Y502210D02*
Y676910D01*
X587260Y403190D02*
X591860Y407790D01*
X591890Y371570D02*
Y381730D01*
X870750Y480670D02*
X858660D01*
X871750D02*
X870750D01*
X782970Y449580D02*
X775070D01*
X612440Y329840D02*
X571030D01*
X610220Y676910D02*
Y692150D01*
Y648790D02*
Y676910D01*
X513880Y614020D02*
X512610Y615290D01*
X626250Y462280D02*
X628790Y464820D01*
X642150D02*
X628790D01*
X626250Y461280D02*
Y462280D01*
X631000Y456530D02*
X626250Y461280D01*
X692980Y632460D02*
Y640050D01*
X703110Y329540D02*
Y341630D01*
X799220Y703990D02*
X798360Y704850D01*
X799220Y676910D02*
Y703990D01*
X792220Y709720D02*
X792010Y709930D01*
X792220Y676910D02*
Y709720D01*
X799220Y676910D02*
X792220D01*
X680220Y707360D02*
X680250Y707390D01*
X680220Y676910D02*
Y707360D01*
X659220Y704290D02*
X658660Y704850D01*
X659220Y676910D02*
Y704290D01*
X645220Y705590D02*
X644690Y706120D01*
X645220Y676910D02*
Y705590D01*
X596220Y704640D02*
X596430Y704850D01*
X596220Y676910D02*
Y704640D01*
X497370Y386080D02*
X474950D01*
X497370D02*
X506260Y394970D01*
X591890Y381730D02*
X591350Y382270D01*
X596430Y367030D02*
X591890Y371570D01*
X657390Y367030D02*
X596430D01*
X667550D02*
X657390D01*
X586270Y356870D02*
X578650Y364490D01*
X645960Y356870D02*
X586270D01*
X578650Y364490D02*
Y395580D01*
X474950Y424180D02*
X435140D01*
X506260Y394970D02*
Y458470D01*
X474950Y436880D02*
X414820D01*
X449720Y554990D02*
X449860Y555130D01*
X666940Y563610D02*
Y582930D01*
Y562610D02*
Y563610D01*
X512610Y615290D02*
Y636270D01*
X603220Y653220D02*
Y676910D01*
Y692150D01*
X595160Y645160D02*
X603220Y653220D01*
X595160Y581660D02*
Y645160D01*
X650260Y573550D02*
X648500Y575310D01*
X666940Y563610D02*
X657000Y573550D01*
X650260D01*
X636620Y566964D02*
Y579970D01*
X661894Y541690D02*
X636620Y566964D01*
X666460Y609810D02*
X631220Y645050D01*
X656730Y526730D02*
X660190Y530190D01*
X662190D02*
X666940Y534940D01*
X662190Y530190D02*
X660190D01*
X656730Y513080D02*
Y526730D01*
X666940Y535940D02*
X572910D01*
X569760Y532790D02*
X572910Y535940D01*
X569760Y531520D02*
X569150Y532130D01*
X666940Y536940D02*
X662190Y541690D01*
X661894D01*
X685940Y562610D02*
Y563610D01*
Y535940D02*
Y562610D01*
X705650Y583320D02*
Y640080D01*
X685940Y563610D02*
X705650Y583320D01*
X692980Y632460D02*
X691932D01*
X693432D02*
X692980D01*
X685940Y582930D02*
Y585470D01*
X685940Y585470D01*
Y608330D01*
X679300Y478470D02*
X672630Y485140D01*
X555790Y474980D02*
X565950Y485140D01*
X672630D02*
X565950D01*
X679300Y467868D02*
Y478470D01*
X671300Y472243D02*
X670510Y473033D01*
X671300Y467868D02*
Y472243D01*
X670510Y473033D02*
X666135D01*
X662918Y476250D02*
X577380D01*
X666135Y473033D02*
X662918Y476250D01*
X564880Y463750D02*
X577380Y476250D01*
X587260Y403190D02*
X586260D01*
X578650Y395580D02*
X586260Y403190D01*
X591860Y407790D02*
Y408790D01*
X671360Y356870D02*
X645960D01*
X715220Y676910D02*
Y692150D01*
Y500970D02*
Y676910D01*
X641070Y422720D02*
X631990Y431800D01*
X624370Y607720D02*
X620680Y611410D01*
X613670D01*
X609280Y615800D01*
Y635150D02*
X617220Y643090D01*
X609280Y615800D02*
Y635150D01*
X602780Y641350D02*
X610220Y648790D01*
X602780Y603860D02*
Y641350D01*
X618620Y588020D02*
X602780Y603860D01*
X613550Y563270D02*
X595160Y581660D01*
X617220Y643090D02*
Y676910D01*
X624370Y563270D02*
X613550D01*
X769150Y461627D02*
Y473860D01*
X747033Y439510D02*
X769150Y461627D01*
Y473860D02*
X782970Y487680D01*
X814870Y419100D02*
Y514350D01*
X875830Y575310D01*
Y650240D01*
X852970Y474980D02*
X839520D01*
X852970D02*
X858660Y480670D01*
X537440Y485840D02*
X520930D01*
X538140Y485140D02*
X537440Y485840D01*
X506260Y458470D02*
X522770Y474980D01*
X491020Y398780D02*
X494830Y402590D01*
Y459740D02*
X520930Y485840D01*
X494830Y402590D02*
Y459740D01*
X491020Y398780D02*
X474950D01*
X554630Y463550D02*
X554830Y463750D01*
X564880D02*
X554830D01*
X555790Y474980D02*
X522770D01*
X512610Y660400D02*
Y681380D01*
X464350Y314960D02*
X449720D01*
X456920Y449620D02*
X456880Y449660D01*
X474950Y449580D02*
X474910Y449620D01*
X444380Y449660D02*
X443880D01*
X474910Y449620D02*
X456920D01*
X870750Y461670D02*
X870140Y462280D01*
X839520D01*
X926630Y614680D02*
Y650240D01*
X822490Y510540D02*
X926630Y614680D01*
X822490Y415290D02*
Y510540D01*
X624370Y582270D02*
X623370D01*
X618620Y587020D01*
Y588020D01*
X690932Y631460D02*
X691932Y632460D01*
X751370Y610210D02*
Y622300D01*
X803440Y610210D02*
Y623570D01*
X785220Y641790D01*
Y676910D01*
X778220Y610390D02*
Y675640D01*
X771220Y642150D02*
Y676910D01*
X751370Y622300D02*
X771220Y642150D01*
X729220Y676910D02*
X722220D01*
X705650Y640080D02*
X694220Y651510D01*
Y676910D01*
X692980Y640050D02*
X687220Y645810D01*
X690932Y616130D02*
Y631460D01*
X690690Y615888D02*
X690932Y616130D01*
X690690Y613080D02*
Y615888D01*
X685940Y608330D02*
X690690Y613080D01*
X662932Y632460D02*
X652220Y643172D01*
X624370Y626720D02*
X624220Y626870D01*
X687220Y645810D02*
Y676910D01*
X666220Y633460D02*
Y676910D01*
X652220Y643172D02*
Y676910D01*
X631220Y645050D02*
Y676910D01*
X624220Y626870D02*
Y676910D01*
X666940Y608330D02*
Y609330D01*
X665432Y632460D02*
X665220D01*
X664980D01*
X662932D01*
X756450Y508000D02*
X850430Y601980D01*
X840270Y424840D02*
X839660Y425450D01*
X592620Y314960D02*
X575450D01*
X852970D02*
X835800D01*
X831380Y310540D02*
X835800Y314960D01*
X445300Y310540D02*
X449720Y314960D01*
X571030Y310540D02*
X575450Y314960D01*
X723430D02*
X706260D01*
X701840Y310540D02*
X706260Y314960D01*
X741210Y490220D02*
X729220Y502210D01*
X725970Y490220D02*
X715220Y500970D01*
X850430Y601980D02*
Y650240D01*
X671360Y356870D02*
X687300Y372810D01*
X667550Y367030D02*
X678510Y377990D01*
X937020Y329840D02*
X872020D01*
X831868D02*
X831868Y329840D01*
Y348372D01*
X872020Y329840D02*
X831868D01*
X831868Y348372D02*
X819791Y360448D01*
X711300Y349820D02*
Y385572D01*
X703110Y341630D02*
X711300Y349820D01*
X741930Y329540D02*
X703110D01*
X650950Y439510D02*
X633930Y456530D01*
X631000D01*
X658152Y438720D02*
X657362Y439510D01*
X650950D01*
X648066Y430964D02*
X633260Y445770D01*
X616750D01*
X657908Y430964D02*
X648066D01*
X658152Y430720D02*
X657908Y430964D01*
X607860Y461670D02*
X607250Y462280D01*
X607860Y454660D02*
Y461670D01*
X616750Y445770D02*
X607860Y454660D01*
X658152Y422720D02*
X641070D01*
X547650Y329840D02*
Y337460D01*
X673900Y345440D02*
X695056Y366596D01*
X547650Y337460D02*
X555630Y345440D01*
X673900D02*
X555630D01*
X677440Y329840D02*
Y337460D01*
X678510Y377990D02*
Y384782D01*
X679300Y385572D01*
X687300Y372810D02*
Y385572D01*
X695056Y366596D02*
Y385328D01*
X703300Y363320D02*
Y385572D01*
X677440Y337460D02*
X703300Y363320D01*
X677440Y329840D02*
X612440D01*
X792772Y385572D02*
X727300D01*
X792772D02*
X822490Y415290D01*
X794490Y398720D02*
X740448D01*
X794490D02*
X814870Y419100D01*
X807250Y422910D02*
Y452500D01*
X797470Y462280D01*
X791060Y406720D02*
X807250Y422910D01*
X791060Y406720D02*
X740448D01*
X695056Y385328D02*
X695300Y385572D01*
X732551Y360448D02*
X719300Y373700D01*
Y385572D01*
X819791Y360448D02*
X732551D01*
X807230Y329840D02*
X742230D01*
X741930Y329540D02*
X742230Y329840D01*
X740448Y438720D02*
X741238Y439510D01*
X747033D02*
X741238D01*
X790220Y487680D02*
X782970D01*
X740448Y422720D02*
X741238Y423510D01*
X749000D02*
X741238D01*
X749000D02*
X775070Y449580D01*
X790220D02*
X782970D01*
X790220Y462280D02*
Y474980D01*
X797470Y462280D02*
X790220D01*
X839660Y449440D02*
X839520Y449580D01*
X740448Y422720D02*
X739658Y423510D01*
X733863D01*
X719300Y438073D01*
Y467868D01*
X636620Y1130350D02*
X666460Y1160190D01*
X665220Y1182840D02*
X666220Y1183840D01*
X664980Y1161940D02*
Y1182840D01*
X666940Y1086320D02*
Y1087320D01*
Y1085320D02*
Y1086320D01*
X656730Y1063460D02*
X656307D01*
X678370D02*
X656730D01*
X678915D02*
X678370D01*
X455800Y961860D02*
X454800Y962860D01*
X482650Y880220D02*
X445660D01*
X547650D02*
X482650D01*
X729220Y1227290D02*
Y1242530D01*
Y1052590D02*
Y1227290D01*
X587260Y953570D02*
X591860Y958170D01*
X591890Y921950D02*
Y932110D01*
X870750Y1031050D02*
X858660D01*
X871750D02*
X870750D01*
X782970Y999960D02*
X775070D01*
X612440Y880220D02*
X571030D01*
X610220Y1227290D02*
Y1242530D01*
Y1199170D02*
Y1227290D01*
X513880Y1164400D02*
X512610Y1165670D01*
X626250Y1012660D02*
X628790Y1015200D01*
X642150D02*
X628790D01*
X626250Y1011660D02*
Y1012660D01*
X631000Y1006910D02*
X626250Y1011660D01*
X692980Y1182840D02*
Y1190430D01*
X703110Y879920D02*
Y892010D01*
X799220Y1254370D02*
X798360Y1255230D01*
X799220Y1227290D02*
Y1254370D01*
X792220Y1260100D02*
X792010Y1260310D01*
X792220Y1227290D02*
Y1260100D01*
X799220Y1227290D02*
X792220D01*
X680220Y1257740D02*
X680250Y1257770D01*
X680220Y1227290D02*
Y1257740D01*
X659220Y1254670D02*
X658660Y1255230D01*
X659220Y1227290D02*
Y1254670D01*
X645220Y1255970D02*
X644690Y1256500D01*
X645220Y1227290D02*
Y1255970D01*
X596220Y1255020D02*
X596430Y1255230D01*
X596220Y1227290D02*
Y1255020D01*
X497370Y936460D02*
X474950D01*
X497370D02*
X506260Y945350D01*
X591890Y932110D02*
X591350Y932650D01*
X596430Y917410D02*
X591890Y921950D01*
X657390Y917410D02*
X596430D01*
X667550D02*
X657390D01*
X586270Y907250D02*
X578650Y914870D01*
X645960Y907250D02*
X586270D01*
X578650Y914870D02*
Y945960D01*
X474950Y974560D02*
X435140D01*
X506260Y945350D02*
Y1008850D01*
X474950Y987260D02*
X414820D01*
X449720Y1105370D02*
X449860Y1105510D01*
X666940Y1113990D02*
Y1133310D01*
Y1112990D02*
Y1113990D01*
X512610Y1165670D02*
Y1186650D01*
X603220Y1203600D02*
Y1227290D01*
Y1242530D01*
X595160Y1195540D02*
X603220Y1203600D01*
X595160Y1132040D02*
Y1195540D01*
X650260Y1123930D02*
X648500Y1125690D01*
X666940Y1113990D02*
X657000Y1123930D01*
X650260D01*
X636620Y1117344D02*
Y1130350D01*
X661894Y1092070D02*
X636620Y1117344D01*
X666460Y1160190D02*
X631220Y1195430D01*
X656730Y1077110D02*
X660190Y1080570D01*
X662190D02*
X666940Y1085320D01*
X662190Y1080570D02*
X660190D01*
X656730Y1063460D02*
Y1077110D01*
X666940Y1086320D02*
X572910D01*
X569760Y1083170D02*
X572910Y1086320D01*
X569760Y1081900D02*
X569150Y1082510D01*
X666940Y1087320D02*
X662190Y1092070D01*
X661894D01*
X685940Y1112990D02*
Y1113990D01*
Y1086320D02*
Y1112990D01*
X705650Y1133700D02*
Y1190460D01*
X685940Y1113990D02*
X705650Y1133700D01*
X692980Y1182840D02*
X691932D01*
X693432D02*
X692980D01*
X685940Y1133310D02*
Y1135850D01*
X685940Y1135850D01*
Y1158710D01*
X679300Y1028850D02*
X672630Y1035520D01*
X555790Y1025360D02*
X565950Y1035520D01*
X672630D02*
X565950D01*
X679300Y1018248D02*
Y1028850D01*
X671300Y1022623D02*
X670510Y1023413D01*
X671300Y1018248D02*
Y1022623D01*
X670510Y1023413D02*
X666135D01*
X662918Y1026630D02*
X577380D01*
X666135Y1023413D02*
X662918Y1026630D01*
X564880Y1014130D02*
X577380Y1026630D01*
X587260Y953570D02*
X586260D01*
X578650Y945960D02*
X586260Y953570D01*
X591860Y958170D02*
Y959170D01*
X671360Y907250D02*
X645960D01*
X715220Y1227290D02*
Y1242530D01*
Y1051350D02*
Y1227290D01*
X641070Y973100D02*
X631990Y982180D01*
X624370Y1158100D02*
X620680Y1161790D01*
X613670D01*
X609280Y1166180D01*
Y1185530D02*
X617220Y1193470D01*
X609280Y1166180D02*
Y1185530D01*
X602780Y1191730D02*
X610220Y1199170D01*
X602780Y1154240D02*
Y1191730D01*
X618620Y1138400D02*
X602780Y1154240D01*
X613550Y1113650D02*
X595160Y1132040D01*
X617220Y1193470D02*
Y1227290D01*
X624370Y1113650D02*
X613550D01*
X769150Y1012007D02*
Y1024240D01*
X747033Y989890D02*
X769150Y1012007D01*
Y1024240D02*
X782970Y1038060D01*
X814870Y969480D02*
Y1064730D01*
X875830Y1125690D01*
Y1200620D01*
X852970Y1025360D02*
X839520D01*
X852970D02*
X858660Y1031050D01*
X537440Y1036220D02*
X520930D01*
X538140Y1035520D02*
X537440Y1036220D01*
X506260Y1008850D02*
X522770Y1025360D01*
X491020Y949160D02*
X494830Y952970D01*
Y1010120D02*
X520930Y1036220D01*
X494830Y952970D02*
Y1010120D01*
X491020Y949160D02*
X474950D01*
X554630Y1013930D02*
X554830Y1014130D01*
X564880D02*
X554830D01*
X555790Y1025360D02*
X522770D01*
X512610Y1210780D02*
Y1231760D01*
X464350Y865340D02*
X449720D01*
X456920Y1000000D02*
X456880Y1000040D01*
X474950Y999960D02*
X474910Y1000000D01*
X444380Y1000040D02*
X443880D01*
X474910Y1000000D02*
X456920D01*
X870750Y1012050D02*
X870140Y1012660D01*
X839520D01*
X926630Y1165060D02*
Y1200620D01*
X822490Y1060920D02*
X926630Y1165060D01*
X822490Y965670D02*
Y1060920D01*
X624370Y1132650D02*
X623370D01*
X618620Y1137400D01*
Y1138400D01*
X690932Y1181840D02*
X691932Y1182840D01*
X751370Y1160590D02*
Y1172680D01*
X803440Y1160590D02*
Y1173950D01*
X785220Y1192170D01*
Y1227290D01*
X778220Y1160770D02*
Y1226020D01*
X771220Y1192530D02*
Y1227290D01*
X751370Y1172680D02*
X771220Y1192530D01*
X729220Y1227290D02*
X722220D01*
X705650Y1190460D02*
X694220Y1201890D01*
Y1227290D01*
X692980Y1190430D02*
X687220Y1196190D01*
X690932Y1166510D02*
Y1181840D01*
X690690Y1166268D02*
X690932Y1166510D01*
X690690Y1163460D02*
Y1166268D01*
X685940Y1158710D02*
X690690Y1163460D01*
X662932Y1182840D02*
X652220Y1193552D01*
X624370Y1177100D02*
X624220Y1177250D01*
X687220Y1196190D02*
Y1227290D01*
X666220Y1183840D02*
Y1227290D01*
X652220Y1193552D02*
Y1227290D01*
X631220Y1195430D02*
Y1227290D01*
X624220Y1177250D02*
Y1227290D01*
X666940Y1158710D02*
Y1159710D01*
X665432Y1182840D02*
X665220D01*
X664980D01*
X662932D01*
X756450Y1058380D02*
X850430Y1152360D01*
X840270Y975220D02*
X839660Y975830D01*
X592620Y865340D02*
X575450D01*
X852970D02*
X835800D01*
X831380Y860920D02*
X835800Y865340D01*
X445300Y860920D02*
X449720Y865340D01*
X571030Y860920D02*
X575450Y865340D01*
X723430D02*
X706260D01*
X701840Y860920D02*
X706260Y865340D01*
X741210Y1040600D02*
X729220Y1052590D01*
X725970Y1040600D02*
X715220Y1051350D01*
X850430Y1152360D02*
Y1200620D01*
X671360Y907250D02*
X687300Y923190D01*
X667550Y917410D02*
X678510Y928370D01*
X937020Y880220D02*
X872020D01*
X831868D02*
X831868Y880220D01*
Y898752D01*
X872020Y880220D02*
X831868D01*
X831868Y898752D02*
X819791Y910829D01*
X711300Y900200D02*
Y935952D01*
X703110Y892010D02*
X711300Y900200D01*
X741930Y879920D02*
X703110D01*
X650950Y989890D02*
X633930Y1006910D01*
X631000D01*
X658152Y989100D02*
X657362Y989890D01*
X650950D01*
X648066Y981344D02*
X633260Y996150D01*
X616750D01*
X657908Y981344D02*
X648066D01*
X658152Y981100D02*
X657908Y981344D01*
X607860Y1012050D02*
X607250Y1012660D01*
X607860Y1005040D02*
Y1012050D01*
X616750Y996150D02*
X607860Y1005040D01*
X658152Y973100D02*
X641070D01*
X547650Y880220D02*
Y887840D01*
X673900Y895820D02*
X695056Y916976D01*
X547650Y887840D02*
X555630Y895820D01*
X673900D02*
X555630D01*
X677440Y880220D02*
Y887840D01*
X678510Y928370D02*
Y935162D01*
X679300Y935952D01*
X687300Y923190D02*
Y935952D01*
X695056Y916976D02*
Y935708D01*
X703300Y913700D02*
Y935952D01*
X677440Y887840D02*
X703300Y913700D01*
X677440Y880220D02*
X612440D01*
X792772Y935952D02*
X727300D01*
X792772D02*
X822490Y965670D01*
X794490Y949100D02*
X740448D01*
X794490D02*
X814870Y969480D01*
X807250Y973290D02*
Y1002880D01*
X797470Y1012660D01*
X791060Y957100D02*
X807250Y973290D01*
X791060Y957100D02*
X740448D01*
X695056Y935708D02*
X695300Y935952D01*
X732551Y910829D02*
X719300Y924080D01*
Y935952D01*
X819791Y910829D02*
X732551D01*
X807230Y880220D02*
X742230D01*
X741930Y879920D02*
X742230Y880220D01*
X740448Y989100D02*
X741238Y989890D01*
X747033D02*
X741238D01*
X790220Y1038060D02*
X782970D01*
X740448Y973100D02*
X741238Y973890D01*
X749000D02*
X741238D01*
X749000D02*
X775070Y999960D01*
X790220D02*
X782970D01*
X790220Y1012660D02*
Y1025360D01*
X797470Y1012660D02*
X790220D01*
X839660Y999820D02*
X839520Y999960D01*
X740448Y973100D02*
X739658Y973890D01*
X733863D01*
X719300Y988453D01*
Y1018248D01*
D14*
X1261720Y406400D02*
Y431800D01*
X1101090Y410820D02*
X1067460D01*
X1261720Y382270D02*
Y406400D01*
X1282700Y431800D02*
X1261720D01*
X1283970Y382270D02*
X1261720D01*
X1201420Y372770D02*
X1200420D01*
X1186555Y358905D02*
X1200420Y372770D01*
X1490370Y425450D02*
Y449440D01*
X1082040Y482600D02*
X1071880D01*
X1186555Y358905D02*
X1175515D01*
X1174750Y358140D02*
X1175515Y358905D01*
X1573530Y553720D02*
X1546860D01*
X1573530D02*
X1602740Y582930D01*
X1220470Y510540D02*
Y531520D01*
X1567180Y353060D02*
X1549400D01*
X1490980Y411480D01*
X1052830Y463550D02*
X1071880Y482600D01*
X1052830Y425450D02*
Y463550D01*
X1067460Y410820D02*
X1052830Y425450D01*
X1198880Y589280D02*
Y627380D01*
X1164730Y555130D02*
X1198880Y589280D01*
X1164730Y555130D02*
X1127260D01*
X1125660Y411480D02*
X1106510D01*
X1200810Y373380D02*
X1180660D01*
X1490980Y411480D02*
Y424840D01*
X1261720Y956780D02*
Y982180D01*
X1101090Y961200D02*
X1067460D01*
X1261720Y932650D02*
Y956780D01*
X1282700Y982180D02*
X1261720D01*
X1283970Y932650D02*
X1261720D01*
X1201420Y923150D02*
X1200420D01*
X1186555Y909286D02*
X1200420Y923150D01*
X1490370Y975830D02*
Y999820D01*
X1082040Y1032980D02*
X1071880D01*
X1186555Y909286D02*
X1175515D01*
X1174750Y908520D02*
X1175515Y909286D01*
X1573530Y1104100D02*
X1546860D01*
X1573530D02*
X1602740Y1133310D01*
X1220470Y1060920D02*
Y1081900D01*
X1567180Y903440D02*
X1549400D01*
X1490980Y961860D01*
X1052830Y1013930D02*
X1071880Y1032980D01*
X1052830Y975830D02*
Y1013930D01*
X1067460Y961200D02*
X1052830Y975830D01*
X1198880Y1139660D02*
Y1177760D01*
X1164730Y1105510D02*
X1198880Y1139660D01*
X1164730Y1105510D02*
X1127260D01*
X1125660Y961860D02*
X1106510D01*
X1200810Y923760D02*
X1180660D01*
X1490980Y961860D02*
Y975220D01*
X611010Y406400D02*
Y431800D01*
X450380Y410820D02*
X416750D01*
X611010Y382270D02*
Y406400D01*
X631990Y431800D02*
X611010D01*
X633260Y382270D02*
X611010D01*
X550710Y372770D02*
X549710D01*
X535845Y358905D02*
X549710Y372770D01*
X839660Y425450D02*
Y449440D01*
X431330Y482600D02*
X421170D01*
X535845Y358905D02*
X524805D01*
X524040Y358140D02*
X524805Y358905D01*
X922820Y553720D02*
X896150D01*
X922820D02*
X952030Y582930D01*
X569760Y510540D02*
Y531520D01*
X916470Y353060D02*
X898690D01*
X840270Y411480D01*
X402120Y463550D02*
X421170Y482600D01*
X402120Y425450D02*
Y463550D01*
X416750Y410820D02*
X402120Y425450D01*
X548170Y589280D02*
Y627380D01*
X514020Y555130D02*
X548170Y589280D01*
X514020Y555130D02*
X476550D01*
X474950Y411480D02*
X455800D01*
X550100Y373380D02*
X529950D01*
X840270Y411480D02*
Y424840D01*
X611010Y956780D02*
Y982180D01*
X450380Y961200D02*
X416750D01*
X611010Y932650D02*
Y956780D01*
X631990Y982180D02*
X611010D01*
X633260Y932650D02*
X611010D01*
X550710Y923150D02*
X549710D01*
X535845Y909286D02*
X549710Y923150D01*
X839660Y975830D02*
Y999820D01*
X431330Y1032980D02*
X421170D01*
X535845Y909286D02*
X524805D01*
X524040Y908520D02*
X524805Y909286D01*
X922820Y1104100D02*
X896150D01*
X922820D02*
X952030Y1133310D01*
X569760Y1060920D02*
Y1081900D01*
X916470Y903440D02*
X898690D01*
X840270Y961860D01*
X402120Y1013930D02*
X421170Y1032980D01*
X402120Y975830D02*
Y1013930D01*
X416750Y961200D02*
X402120Y975830D01*
X548170Y1139660D02*
Y1177760D01*
X514020Y1105510D02*
X548170Y1139660D01*
X514020Y1105510D02*
X476550D01*
X474950Y961860D02*
X455800D01*
X550100Y923760D02*
X529950D01*
X840270Y961860D02*
Y975220D01*
D15*
X1570990Y473000D02*
D03*
Y508000D02*
D03*
Y1023380D02*
D03*
Y1058380D02*
D03*
X920280Y473000D02*
D03*
Y508000D02*
D03*
Y1023380D02*
D03*
Y1058380D02*
D03*
D16*
X1570990Y438000D02*
D03*
Y988380D02*
D03*
X920280Y438000D02*
D03*
Y988380D02*
D03*
D17*
X1131490Y604810D02*
D03*
Y691210D02*
D03*
Y1155190D02*
D03*
Y1241590D02*
D03*
X480780Y604810D02*
D03*
Y691210D02*
D03*
Y1155190D02*
D03*
Y1241590D02*
D03*
D18*
X1089690Y604810D02*
D03*
Y691210D02*
D03*
Y1155190D02*
D03*
Y1241590D02*
D03*
X438980Y604810D02*
D03*
Y691210D02*
D03*
Y1155190D02*
D03*
Y1241590D02*
D03*
D19*
X1126490Y619110D02*
D03*
Y676910D02*
D03*
Y1169490D02*
D03*
Y1227290D02*
D03*
X475780Y619110D02*
D03*
Y676910D02*
D03*
Y1169490D02*
D03*
Y1227290D02*
D03*
D20*
X1522730Y329840D02*
D03*
X1392940D02*
D03*
X1263150D02*
D03*
X1133360D02*
D03*
X1522730Y880220D02*
D03*
X1392940D02*
D03*
X1263150D02*
D03*
X1133360D02*
D03*
X872020Y329840D02*
D03*
X742230D02*
D03*
X612440D02*
D03*
X482650D02*
D03*
X872020Y880220D02*
D03*
X742230D02*
D03*
X612440D02*
D03*
X482650D02*
D03*
D21*
X1587730Y329840D02*
D03*
Y284840D02*
D03*
X1522730D02*
D03*
X1457940Y329840D02*
D03*
Y284840D02*
D03*
X1392940D02*
D03*
X1328150Y329840D02*
D03*
Y284840D02*
D03*
X1263150D02*
D03*
X1198360Y329840D02*
D03*
Y284840D02*
D03*
X1133360D02*
D03*
X1587730Y880220D02*
D03*
Y835220D02*
D03*
X1522730D02*
D03*
X1457940Y880220D02*
D03*
Y835220D02*
D03*
X1392940D02*
D03*
X1328150Y880220D02*
D03*
Y835220D02*
D03*
X1263150D02*
D03*
X1198360Y880220D02*
D03*
Y835220D02*
D03*
X1133360D02*
D03*
X937020Y329840D02*
D03*
Y284840D02*
D03*
X872020D02*
D03*
X807230Y329840D02*
D03*
Y284840D02*
D03*
X742230D02*
D03*
X677440Y329840D02*
D03*
Y284840D02*
D03*
X612440D02*
D03*
X547650Y329840D02*
D03*
Y284840D02*
D03*
X482650D02*
D03*
X937020Y880220D02*
D03*
Y835220D02*
D03*
X872020D02*
D03*
X807230Y880220D02*
D03*
Y835220D02*
D03*
X742230D02*
D03*
X677440Y880220D02*
D03*
Y835220D02*
D03*
X612440D02*
D03*
X547650Y880220D02*
D03*
Y835220D02*
D03*
X482650D02*
D03*
D22*
X1501140Y650240D02*
D03*
X1526540D02*
D03*
X1551940D02*
D03*
X1577340D02*
D03*
X1501140Y1200620D02*
D03*
X1526540D02*
D03*
X1551940D02*
D03*
X1577340D02*
D03*
X850430Y650240D02*
D03*
X875830D02*
D03*
X901230D02*
D03*
X926630D02*
D03*
X850430Y1200620D02*
D03*
X875830D02*
D03*
X901230D02*
D03*
X926630D02*
D03*
D23*
X1602740Y650240D02*
D03*
Y1200620D02*
D03*
X952030Y650240D02*
D03*
Y1200620D02*
D03*
D24*
X1085850Y424180D02*
D03*
X1256030Y547370D02*
D03*
X1174750Y358140D02*
D03*
X1546860Y553720D02*
D03*
X1065530Y436880D02*
D03*
X1131570Y712470D02*
D03*
X1163320Y636270D02*
D03*
X1131570Y585470D02*
D03*
X1299210Y575310D02*
D03*
X1292860Y464820D02*
D03*
X1567180Y353060D02*
D03*
X1188850Y485140D02*
D03*
X1205340Y463550D02*
D03*
X1296670Y356870D02*
D03*
X1220470Y510540D02*
D03*
X1198880Y627380D02*
D03*
X1163320Y660400D02*
D03*
X1115060Y314960D02*
D03*
X1243330D02*
D03*
X1503680D02*
D03*
X1374140D02*
D03*
X1407160Y508000D02*
D03*
X1391920Y490220D02*
D03*
X1376680D02*
D03*
X1308100Y367030D02*
D03*
X1283970Y382270D02*
D03*
X1085850Y974560D02*
D03*
X1256030Y1097750D02*
D03*
X1174750Y908520D02*
D03*
X1546860Y1104100D02*
D03*
X1065530Y987260D02*
D03*
X1131570Y1262850D02*
D03*
X1163320Y1186650D02*
D03*
X1131570Y1135850D02*
D03*
X1299210Y1125690D02*
D03*
X1292860Y1015200D02*
D03*
X1567180Y903440D02*
D03*
X1188850Y1035520D02*
D03*
X1205340Y1013930D02*
D03*
X1296670Y907250D02*
D03*
X1220470Y1060920D02*
D03*
X1198880Y1177760D02*
D03*
X1163320Y1210780D02*
D03*
X1115060Y865340D02*
D03*
X1243330D02*
D03*
X1503680D02*
D03*
X1374140D02*
D03*
X1407160Y1058380D02*
D03*
X1391920Y1040600D02*
D03*
X1376680D02*
D03*
X1308100Y917410D02*
D03*
X1283970Y932650D02*
D03*
X435140Y424180D02*
D03*
X605320Y547370D02*
D03*
X524040Y358140D02*
D03*
X896150Y553720D02*
D03*
X414820Y436880D02*
D03*
X480860Y712470D02*
D03*
X512610Y636270D02*
D03*
X480860Y585470D02*
D03*
X648500Y575310D02*
D03*
X642150Y464820D02*
D03*
X916470Y353060D02*
D03*
X538140Y485140D02*
D03*
X554630Y463550D02*
D03*
X645960Y356870D02*
D03*
X569760Y510540D02*
D03*
X548170Y627380D02*
D03*
X512610Y660400D02*
D03*
X464350Y314960D02*
D03*
X592620D02*
D03*
X852970D02*
D03*
X723430D02*
D03*
X756450Y508000D02*
D03*
X741210Y490220D02*
D03*
X725970D02*
D03*
X657390Y367030D02*
D03*
X633260Y382270D02*
D03*
X435140Y974560D02*
D03*
X605320Y1097750D02*
D03*
X524040Y908520D02*
D03*
X896150Y1104100D02*
D03*
X414820Y987260D02*
D03*
X480860Y1262850D02*
D03*
X512610Y1186650D02*
D03*
X480860Y1135850D02*
D03*
X648500Y1125690D02*
D03*
X642150Y1015200D02*
D03*
X916470Y903440D02*
D03*
X538140Y1035520D02*
D03*
X554630Y1013930D02*
D03*
X645960Y907250D02*
D03*
X569760Y1060920D02*
D03*
X548170Y1177760D02*
D03*
X512610Y1210780D02*
D03*
X464350Y865340D02*
D03*
X592620D02*
D03*
X852970D02*
D03*
X723430D02*
D03*
X756450Y1058380D02*
D03*
X741210Y1040600D02*
D03*
X725970D02*
D03*
X657390Y917410D02*
D03*
X633260Y932650D02*
D03*
D25*
X1266220Y430530D02*
D03*
X1238220D02*
D03*
X1281460Y462280D02*
D03*
X1253460D02*
D03*
X1494760Y425450D02*
D03*
X1522760D02*
D03*
X1085820Y482600D02*
D03*
X1113820D02*
D03*
X1101120Y576580D02*
D03*
X1073120D02*
D03*
X1266220Y980910D02*
D03*
X1238220D02*
D03*
X1281460Y1012660D02*
D03*
X1253460D02*
D03*
X1494760Y975830D02*
D03*
X1522760D02*
D03*
X1085820Y1032980D02*
D03*
X1113820D02*
D03*
X1101120Y1126960D02*
D03*
X1073120D02*
D03*
X615510Y430530D02*
D03*
X587510D02*
D03*
X630750Y462280D02*
D03*
X602750D02*
D03*
X844050Y425450D02*
D03*
X872050D02*
D03*
X435110Y482600D02*
D03*
X463110D02*
D03*
X450410Y576580D02*
D03*
X422410D02*
D03*
X615510Y980910D02*
D03*
X587510D02*
D03*
X630750Y1012660D02*
D03*
X602750D02*
D03*
X844050Y975830D02*
D03*
X872050D02*
D03*
X435110Y1032980D02*
D03*
X463110D02*
D03*
X450410Y1126960D02*
D03*
X422410D02*
D03*
D26*
X1201420Y368270D02*
D03*
Y396270D02*
D03*
X1101090Y406430D02*
D03*
Y378430D02*
D03*
X1201420Y918650D02*
D03*
Y946650D02*
D03*
X1101090Y956810D02*
D03*
Y928810D02*
D03*
X550710Y368270D02*
D03*
Y396270D02*
D03*
X450380Y406430D02*
D03*
Y378430D02*
D03*
X550710Y918650D02*
D03*
Y946650D02*
D03*
X450380Y956810D02*
D03*
Y928810D02*
D03*
D27*
X1402080Y610210D02*
D03*
Y591210D02*
D03*
X1428750Y610210D02*
D03*
Y591210D02*
D03*
X1163320Y595020D02*
D03*
Y614020D02*
D03*
Y700380D02*
D03*
Y681380D02*
D03*
X1220470Y532790D02*
D03*
Y551790D02*
D03*
X1221740Y329540D02*
D03*
Y310540D02*
D03*
X1096010Y329540D02*
D03*
Y310540D02*
D03*
X1482090Y329540D02*
D03*
Y310540D02*
D03*
X1352550Y329540D02*
D03*
Y310540D02*
D03*
X1521460Y461670D02*
D03*
Y480670D02*
D03*
X1454150Y610210D02*
D03*
Y591210D02*
D03*
X1275080Y626720D02*
D03*
Y607720D02*
D03*
Y582270D02*
D03*
Y563270D02*
D03*
X1402080Y1160590D02*
D03*
Y1141590D02*
D03*
X1428750Y1160590D02*
D03*
Y1141590D02*
D03*
X1163320Y1145400D02*
D03*
Y1164400D02*
D03*
Y1250760D02*
D03*
Y1231760D02*
D03*
X1220470Y1083170D02*
D03*
Y1102170D02*
D03*
X1221740Y879920D02*
D03*
Y860920D02*
D03*
X1096010Y879920D02*
D03*
Y860920D02*
D03*
X1482090Y879920D02*
D03*
Y860920D02*
D03*
X1352550Y879920D02*
D03*
Y860920D02*
D03*
X1521460Y1012050D02*
D03*
Y1031050D02*
D03*
X1454150Y1160590D02*
D03*
Y1141590D02*
D03*
X1275080Y1177100D02*
D03*
Y1158100D02*
D03*
Y1132650D02*
D03*
Y1113650D02*
D03*
X751370Y610210D02*
D03*
Y591210D02*
D03*
X778040Y610210D02*
D03*
Y591210D02*
D03*
X512610Y595020D02*
D03*
Y614020D02*
D03*
Y700380D02*
D03*
Y681380D02*
D03*
X569760Y532790D02*
D03*
Y551790D02*
D03*
X571030Y329540D02*
D03*
Y310540D02*
D03*
X445300Y329540D02*
D03*
Y310540D02*
D03*
X831380Y329540D02*
D03*
Y310540D02*
D03*
X701840Y329540D02*
D03*
Y310540D02*
D03*
X870750Y461670D02*
D03*
Y480670D02*
D03*
X803440Y610210D02*
D03*
Y591210D02*
D03*
X624370Y626720D02*
D03*
Y607720D02*
D03*
Y582270D02*
D03*
Y563270D02*
D03*
X751370Y1160590D02*
D03*
Y1141590D02*
D03*
X778040Y1160590D02*
D03*
Y1141590D02*
D03*
X512610Y1145400D02*
D03*
Y1164400D02*
D03*
Y1250760D02*
D03*
Y1231760D02*
D03*
X569760Y1083170D02*
D03*
Y1102170D02*
D03*
X571030Y879920D02*
D03*
Y860920D02*
D03*
X445300Y879920D02*
D03*
Y860920D02*
D03*
X831380Y879920D02*
D03*
Y860920D02*
D03*
X701840Y879920D02*
D03*
Y860920D02*
D03*
X870750Y1012050D02*
D03*
Y1031050D02*
D03*
X803440Y1160590D02*
D03*
Y1141590D02*
D03*
X624370Y1177100D02*
D03*
Y1158100D02*
D03*
Y1132650D02*
D03*
Y1113650D02*
D03*
D28*
X1081430Y554990D02*
D03*
X1100430D02*
D03*
X1317650Y608330D02*
D03*
X1336650D02*
D03*
X1242720Y381000D02*
D03*
X1261720D02*
D03*
Y406400D02*
D03*
X1242720D02*
D03*
X1336650Y562610D02*
D03*
X1317650D02*
D03*
X1317650Y535940D02*
D03*
X1336650D02*
D03*
X1317650Y585470D02*
D03*
X1336650D02*
D03*
X1307440Y513080D02*
D03*
X1288440D02*
D03*
X1348080D02*
D03*
X1329080D02*
D03*
X1081430Y1105370D02*
D03*
X1100430D02*
D03*
X1317650Y1158710D02*
D03*
X1336650D02*
D03*
X1242720Y931380D02*
D03*
X1261720D02*
D03*
Y956780D02*
D03*
X1242720D02*
D03*
X1336650Y1112990D02*
D03*
X1317650D02*
D03*
X1317650Y1086320D02*
D03*
X1336650D02*
D03*
X1317650Y1135850D02*
D03*
X1336650D02*
D03*
X1307440Y1063460D02*
D03*
X1288440D02*
D03*
X1348080D02*
D03*
X1329080D02*
D03*
X430720Y554990D02*
D03*
X449720D02*
D03*
X666940Y608330D02*
D03*
X685940D02*
D03*
X592010Y381000D02*
D03*
X611010D02*
D03*
Y406400D02*
D03*
X592010D02*
D03*
X685940Y562610D02*
D03*
X666940D02*
D03*
X666940Y535940D02*
D03*
X685940D02*
D03*
X666940Y585470D02*
D03*
X685940D02*
D03*
X656730Y513080D02*
D03*
X637730D02*
D03*
X697370D02*
D03*
X678370D02*
D03*
X430720Y1105370D02*
D03*
X449720D02*
D03*
X666940Y1158710D02*
D03*
X685940D02*
D03*
X592010Y931380D02*
D03*
X611010D02*
D03*
Y956780D02*
D03*
X592010D02*
D03*
X685940Y1112990D02*
D03*
X666940D02*
D03*
X666940Y1086320D02*
D03*
X685940D02*
D03*
X666940Y1135850D02*
D03*
X685940D02*
D03*
X656730Y1063460D02*
D03*
X637730D02*
D03*
X697370D02*
D03*
X678370D02*
D03*
D29*
X1191760Y532130D02*
D03*
Y1082510D02*
D03*
X541050Y532130D02*
D03*
Y1082510D02*
D03*
D30*
X1127260Y555130D02*
D03*
Y532130D02*
D03*
Y509130D02*
D03*
Y1105510D02*
D03*
Y1082510D02*
D03*
Y1059510D02*
D03*
X476550Y555130D02*
D03*
Y532130D02*
D03*
Y509130D02*
D03*
Y1105510D02*
D03*
Y1082510D02*
D03*
Y1059510D02*
D03*
D31*
X1094590Y449660D02*
D03*
X1107590D02*
D03*
Y459660D02*
D03*
X1094590D02*
D03*
Y1000040D02*
D03*
X1107590D02*
D03*
Y1010040D02*
D03*
X1094590D02*
D03*
X443880Y449660D02*
D03*
X456880D02*
D03*
Y459660D02*
D03*
X443880D02*
D03*
Y1000040D02*
D03*
X456880D02*
D03*
Y1010040D02*
D03*
X443880D02*
D03*
D32*
X1125660Y386080D02*
D03*
X1180660Y411480D02*
D03*
X1125660Y373380D02*
D03*
Y398780D02*
D03*
Y411480D02*
D03*
X1180660Y398780D02*
D03*
Y424180D02*
D03*
Y436880D02*
D03*
X1125660D02*
D03*
X1180660Y462280D02*
D03*
X1125660Y424180D02*
D03*
Y449580D02*
D03*
X1180660D02*
D03*
X1125660Y462280D02*
D03*
X1180660Y386080D02*
D03*
Y373380D02*
D03*
X1125660Y936460D02*
D03*
X1180660Y961860D02*
D03*
X1125660Y923760D02*
D03*
Y949160D02*
D03*
Y961860D02*
D03*
X1180660Y949160D02*
D03*
Y974560D02*
D03*
Y987260D02*
D03*
X1125660D02*
D03*
X1180660Y1012660D02*
D03*
X1125660Y974560D02*
D03*
Y999960D02*
D03*
X1180660D02*
D03*
X1125660Y1012660D02*
D03*
X1180660Y936460D02*
D03*
Y923760D02*
D03*
X474950Y386080D02*
D03*
X529950Y411480D02*
D03*
X474950Y373380D02*
D03*
Y398780D02*
D03*
Y411480D02*
D03*
X529950Y398780D02*
D03*
Y424180D02*
D03*
Y436880D02*
D03*
X474950D02*
D03*
X529950Y462280D02*
D03*
X474950Y424180D02*
D03*
Y449580D02*
D03*
X529950D02*
D03*
X474950Y462280D02*
D03*
X529950Y386080D02*
D03*
Y373380D02*
D03*
X474950Y936460D02*
D03*
X529950Y961860D02*
D03*
X474950Y923760D02*
D03*
Y949160D02*
D03*
Y961860D02*
D03*
X529950Y949160D02*
D03*
Y974560D02*
D03*
Y987260D02*
D03*
X474950D02*
D03*
X529950Y1012660D02*
D03*
X474950Y974560D02*
D03*
Y999960D02*
D03*
X529950D02*
D03*
X474950Y1012660D02*
D03*
X529950Y936460D02*
D03*
Y923760D02*
D03*
D33*
X1490230Y449580D02*
D03*
Y462280D02*
D03*
Y474980D02*
D03*
Y487680D02*
D03*
X1440930D02*
D03*
Y474980D02*
D03*
Y462280D02*
D03*
Y449580D02*
D03*
X1490230Y999960D02*
D03*
Y1012660D02*
D03*
Y1025360D02*
D03*
Y1038060D02*
D03*
X1440930D02*
D03*
Y1025360D02*
D03*
Y1012660D02*
D03*
Y999960D02*
D03*
X839520Y449580D02*
D03*
Y462280D02*
D03*
Y474980D02*
D03*
Y487680D02*
D03*
X790220D02*
D03*
Y474980D02*
D03*
Y462280D02*
D03*
Y449580D02*
D03*
X839520Y999960D02*
D03*
Y1012660D02*
D03*
Y1025360D02*
D03*
Y1038060D02*
D03*
X790220D02*
D03*
Y1025360D02*
D03*
Y1012660D02*
D03*
Y999960D02*
D03*
D34*
X1322010Y385572D02*
D03*
X1330010D02*
D03*
X1338010D02*
D03*
X1346010D02*
D03*
X1354010D02*
D03*
X1362010D02*
D03*
X1370010D02*
D03*
X1378010D02*
D03*
Y467868D02*
D03*
X1370010D02*
D03*
X1362010D02*
D03*
X1354010D02*
D03*
X1346010D02*
D03*
X1338010D02*
D03*
X1330010D02*
D03*
X1322010D02*
D03*
Y935952D02*
D03*
X1330010D02*
D03*
X1338010D02*
D03*
X1346010D02*
D03*
X1354010D02*
D03*
X1362010D02*
D03*
X1370010D02*
D03*
X1378010D02*
D03*
Y1018248D02*
D03*
X1370010D02*
D03*
X1362010D02*
D03*
X1354010D02*
D03*
X1346010D02*
D03*
X1338010D02*
D03*
X1330010D02*
D03*
X1322010D02*
D03*
X671300Y385572D02*
D03*
X679300D02*
D03*
X687300D02*
D03*
X695300D02*
D03*
X703300D02*
D03*
X711300D02*
D03*
X719300D02*
D03*
X727300D02*
D03*
Y467868D02*
D03*
X719300D02*
D03*
X711300D02*
D03*
X703300D02*
D03*
X695300D02*
D03*
X687300D02*
D03*
X679300D02*
D03*
X671300D02*
D03*
Y935952D02*
D03*
X679300D02*
D03*
X687300D02*
D03*
X695300D02*
D03*
X703300D02*
D03*
X711300D02*
D03*
X719300D02*
D03*
X727300D02*
D03*
Y1018248D02*
D03*
X719300D02*
D03*
X711300D02*
D03*
X703300D02*
D03*
X695300D02*
D03*
X687300D02*
D03*
X679300D02*
D03*
X671300D02*
D03*
D35*
X1391158Y398720D02*
D03*
Y406720D02*
D03*
Y414720D02*
D03*
Y422720D02*
D03*
Y430720D02*
D03*
Y438720D02*
D03*
Y446720D02*
D03*
Y454720D02*
D03*
X1308862D02*
D03*
Y446720D02*
D03*
Y438720D02*
D03*
Y430720D02*
D03*
Y422720D02*
D03*
Y414720D02*
D03*
Y406720D02*
D03*
Y398720D02*
D03*
X1391158Y949100D02*
D03*
Y957100D02*
D03*
Y965100D02*
D03*
Y973100D02*
D03*
Y981100D02*
D03*
Y989100D02*
D03*
Y997100D02*
D03*
Y1005100D02*
D03*
X1308862D02*
D03*
Y997100D02*
D03*
Y989100D02*
D03*
Y981100D02*
D03*
Y973100D02*
D03*
Y965100D02*
D03*
Y957100D02*
D03*
Y949100D02*
D03*
X740448Y398720D02*
D03*
Y406720D02*
D03*
Y414720D02*
D03*
Y422720D02*
D03*
Y430720D02*
D03*
Y438720D02*
D03*
Y446720D02*
D03*
Y454720D02*
D03*
X658152D02*
D03*
Y446720D02*
D03*
Y438720D02*
D03*
Y430720D02*
D03*
Y422720D02*
D03*
Y414720D02*
D03*
Y406720D02*
D03*
Y398720D02*
D03*
X740448Y949100D02*
D03*
Y957100D02*
D03*
Y965100D02*
D03*
Y973100D02*
D03*
Y981100D02*
D03*
Y989100D02*
D03*
Y997100D02*
D03*
Y1005100D02*
D03*
X658152D02*
D03*
Y997100D02*
D03*
Y989100D02*
D03*
Y981100D02*
D03*
Y973100D02*
D03*
Y965100D02*
D03*
Y957100D02*
D03*
Y949100D02*
D03*
D36*
X1246930Y676910D02*
D03*
X1253930D02*
D03*
X1260930D02*
D03*
X1267930D02*
D03*
X1281930D02*
D03*
X1288930D02*
D03*
X1295930D02*
D03*
X1302930D02*
D03*
X1309930D02*
D03*
X1316930D02*
D03*
X1323930D02*
D03*
X1330930D02*
D03*
X1337930D02*
D03*
X1344930D02*
D03*
X1351930D02*
D03*
X1358930D02*
D03*
X1365930D02*
D03*
X1372930D02*
D03*
X1379930D02*
D03*
X1386930D02*
D03*
X1393930D02*
D03*
X1400930D02*
D03*
X1407930D02*
D03*
X1414930D02*
D03*
X1421930D02*
D03*
X1428930D02*
D03*
X1435930D02*
D03*
X1442930D02*
D03*
X1449930D02*
D03*
X1274930D02*
D03*
X1246930Y1227290D02*
D03*
X1253930D02*
D03*
X1260930D02*
D03*
X1267930D02*
D03*
X1281930D02*
D03*
X1288930D02*
D03*
X1295930D02*
D03*
X1302930D02*
D03*
X1309930D02*
D03*
X1316930D02*
D03*
X1323930D02*
D03*
X1330930D02*
D03*
X1337930D02*
D03*
X1344930D02*
D03*
X1351930D02*
D03*
X1358930D02*
D03*
X1365930D02*
D03*
X1372930D02*
D03*
X1379930D02*
D03*
X1386930D02*
D03*
X1393930D02*
D03*
X1400930D02*
D03*
X1407930D02*
D03*
X1414930D02*
D03*
X1421930D02*
D03*
X1428930D02*
D03*
X1435930D02*
D03*
X1442930D02*
D03*
X1449930D02*
D03*
X1274930D02*
D03*
X596220Y676910D02*
D03*
X603220D02*
D03*
X610220D02*
D03*
X617220D02*
D03*
X631220D02*
D03*
X638220D02*
D03*
X645220D02*
D03*
X652220D02*
D03*
X659220D02*
D03*
X666220D02*
D03*
X673220D02*
D03*
X680220D02*
D03*
X687220D02*
D03*
X694220D02*
D03*
X701220D02*
D03*
X708220D02*
D03*
X715220D02*
D03*
X722220D02*
D03*
X729220D02*
D03*
X736220D02*
D03*
X743220D02*
D03*
X750220D02*
D03*
X757220D02*
D03*
X764220D02*
D03*
X771220D02*
D03*
X778220D02*
D03*
X785220D02*
D03*
X792220D02*
D03*
X799220D02*
D03*
X624220D02*
D03*
X596220Y1227290D02*
D03*
X603220D02*
D03*
X610220D02*
D03*
X617220D02*
D03*
X631220D02*
D03*
X638220D02*
D03*
X645220D02*
D03*
X652220D02*
D03*
X659220D02*
D03*
X666220D02*
D03*
X673220D02*
D03*
X680220D02*
D03*
X687220D02*
D03*
X694220D02*
D03*
X701220D02*
D03*
X708220D02*
D03*
X715220D02*
D03*
X722220D02*
D03*
X729220D02*
D03*
X736220D02*
D03*
X743220D02*
D03*
X750220D02*
D03*
X757220D02*
D03*
X764220D02*
D03*
X771220D02*
D03*
X778220D02*
D03*
X785220D02*
D03*
X792220D02*
D03*
X799220D02*
D03*
X624220D02*
D03*
D37*
X1316142Y632460D02*
D03*
X1344142D02*
D03*
X1316142Y1182840D02*
D03*
X1344142D02*
D03*
X665432Y632460D02*
D03*
X693432D02*
D03*
X665432Y1182840D02*
D03*
X693432D02*
D03*
D38*
X1602740Y598140D02*
D03*
Y626140D02*
D03*
Y1148520D02*
D03*
Y1176520D02*
D03*
X952030Y598140D02*
D03*
Y626140D02*
D03*
Y1148520D02*
D03*
Y1176520D02*
D03*
D39*
X1127260Y532130D02*
X1118870D01*
X1191760D02*
X1127260D01*
X1100430Y554990D02*
Y576580D01*
X1574340Y507440D02*
X1549230D01*
X1563732Y461670D02*
X1574340Y472278D01*
X1085820Y482600D02*
X1086687Y483467D01*
Y499947D02*
X1118870Y532130D01*
X1086687Y483467D02*
Y499947D01*
X1574340Y472278D02*
Y472440D01*
X1563732Y461670D02*
X1522460D01*
X1219860Y532130D02*
X1191760D01*
X1127260Y555130D02*
X1100570D01*
X1522460Y480670D02*
X1549230Y507440D01*
X1127260Y1082510D02*
X1118870D01*
X1191760D02*
X1127260D01*
X1100430Y1105370D02*
Y1126960D01*
X1574340Y1057820D02*
X1549230D01*
X1563732Y1012050D02*
X1574340Y1022658D01*
X1085820Y1032980D02*
X1086687Y1033847D01*
Y1050327D02*
X1118870Y1082510D01*
X1086687Y1033847D02*
Y1050327D01*
X1574340Y1022658D02*
Y1022820D01*
X1563732Y1012050D02*
X1522460D01*
X1219860Y1082510D02*
X1191760D01*
X1127260Y1105510D02*
X1100570D01*
X1522460Y1031050D02*
X1549230Y1057820D01*
X476550Y532130D02*
X468160D01*
X541050D02*
X476550D01*
X449720Y554990D02*
Y576580D01*
X923630Y507440D02*
X898520D01*
X913022Y461670D02*
X923630Y472278D01*
X435110Y482600D02*
X435977Y483467D01*
Y499947D02*
X468160Y532130D01*
X435977Y483467D02*
Y499947D01*
X923630Y472278D02*
Y472440D01*
X913022Y461670D02*
X871750D01*
X569150Y532130D02*
X541050D01*
X476550Y555130D02*
X449860D01*
X871750Y480670D02*
X898520Y507440D01*
X476550Y1082510D02*
X468160D01*
X541050D02*
X476550D01*
X449720Y1105370D02*
Y1126960D01*
X923630Y1057820D02*
X898520D01*
X913022Y1012050D02*
X923630Y1022658D01*
X435110Y1032980D02*
X435977Y1033847D01*
Y1050327D02*
X468160Y1082510D01*
X435977Y1033847D02*
Y1050327D01*
X923630Y1022658D02*
Y1022820D01*
X913022Y1012050D02*
X871750D01*
X569150Y1082510D02*
X541050D01*
X476550Y1105510D02*
X449860D01*
X871750Y1031050D02*
X898520Y1057820D01*
D40*
X1094590Y459660D02*
X1087720Y466530D01*
Y480700D02*
X1085820Y482600D01*
X1087720Y466530D02*
Y480700D01*
X1094590Y449660D02*
Y459660D01*
Y1010040D02*
X1087720Y1016910D01*
Y1031080D02*
X1085820Y1032980D01*
X1087720Y1016910D02*
Y1031080D01*
X1094590Y1000040D02*
Y1010040D01*
X443880Y459660D02*
X437010Y466530D01*
Y480700D02*
X435110Y482600D01*
X437010Y466530D02*
Y480700D01*
X443880Y449660D02*
Y459660D01*
Y1010040D02*
X437010Y1016910D01*
Y1031080D02*
X435110Y1032980D01*
X437010Y1016910D02*
Y1031080D01*
X443880Y1000040D02*
Y1010040D01*
D41*
X1602740Y582930D02*
Y593090D01*
Y1133310D02*
Y1143470D01*
X952030Y582930D02*
Y593090D01*
Y1133310D02*
Y1143470D01*
D42*
X1428750Y610210D02*
X1428930Y610390D01*
X1428750Y1160590D02*
X1428930Y1160770D01*
X778040Y610210D02*
X778220Y610390D01*
X778040Y1160590D02*
X778220Y1160770D01*
D43*
X1602740Y626140D02*
Y650240D01*
Y1176520D02*
Y1200620D01*
X952030Y626140D02*
Y650240D01*
Y1176520D02*
Y1200620D01*
M02*
